<svg data-name="Layer 1" xmlns="http://www.w3.org/2000/svg" width="1013.58" height="769.76"><path d="M935.22 718.22 831.5 538.57a3.3 3.3 0 0 0-5.73 0L722.05 718.22a3.3 3.3 0 0 0 2.86 5h30.94a3.32 3.32 0 0 1 3.31 3.31v38.35a3.31 3.31 0 0 0 3.3 3.31h40.33a3.31 3.31 0 0 0 3.31-3.31v-18.54a3.3 3.3 0 0 1 3.3-3.3h38.39a3.31 3.31 0 0 1 3.31 3.3v18.54a3.31 3.31 0 0 0 3.31 3.31h40.38a3.31 3.31 0 0 0 3.31-3.31v-38.39a3.31 3.31 0 0 1 3.31-3.31h30.94a3.31 3.31 0 0 0 2.87-4.96ZM790.61 738.1a3.3 3.3 0 0 1-2.34 1h-14.56a3.31 3.31 0 0 1 0-6.62h14.56a3.31 3.31 0 0 1 2.34 5.65Zm95.28 0a3.3 3.3 0 0 1-2.34 1H869a3.31 3.31 0 0 1 0-6.62h14.55a3.31 3.31 0 0 1 2.34 5.65Zm-591.76-18.3L190.41 540.15a3.31 3.31 0 0 0-5.73 0L95.09 695.32a273.67 273.67 0 0 0 37.53 38.71h14.56a3.31 3.31 0 0 1 0 6.62h-6.16a160.29 160.29 0 0 0 24 14.93v-7.65a3.31 3.31 0 0 1 3.31-3.31h38.46a3.31 3.31 0 0 1 3.3 3.31v18.52a3.22 3.22 0 0 0 .31 1.39 3.31 3.31 0 0 0 3 1.92h40.37a3.24 3.24 0 0 0 2.63-1.33 3.18 3.18 0 0 0 .67-2v-38.35a3.31 3.31 0 0 1 3.31-3.31h30.94a3.31 3.31 0 0 0 2.81-4.97ZM225.57 735a3.3 3.3 0 0 1 2.34-1h14.56a3.31 3.31 0 0 1 0 6.62h-14.56a3.31 3.31 0 0 1-2.34-5.65Zm-65.15-66.48a3.31 3.31 0 0 1-3.31-3.31v-25.14a3.31 3.31 0 0 1 3.31-3.31h54.26a3.31 3.31 0 0 1 3.3 3.31v25.14a3.31 3.31 0 0 1-3.3 3.31Zm543.69-271.44H575.79v-27.76a6.64 6.64 0 0 0-6.64-6.64h-37.72v-29.57a4.18 4.18 0 0 0-4.18-4.18H478.7a4.18 4.18 0 0 0-4.18 4.18v29.57h-44.31a6.64 6.64 0 0 0-6.64 6.64v27.76H301.18a1.35 1.35 0 0 0-1.34 1.35v368.52a1.35 1.35 0 0 0 1.34 1.35h81.34a1.35 1.35 0 0 0 1.35-1.35v-49.58a1.36 1.36 0 0 1 1.35-1.35h34.36a1.36 1.36 0 0 1 1.35 1.35v49.58a1.35 1.35 0 0 0 1.34 1.35h160.75a1.36 1.36 0 0 0 1.35-1.35v-49.58a1.35 1.35 0 0 1 1.34-1.35h34.36a1.35 1.35 0 0 1 1.35 1.35v49.58a1.36 1.36 0 0 0 1.35 1.35h81.34a1.36 1.36 0 0 0 1.35-1.35V398.43a1.36 1.36 0 0 0-1.35-1.35ZM369.31 698.8a1.34 1.34 0 0 1-1.34 1.34h-50.24a1.34 1.34 0 0 1-1.35-1.34v-17.16a1.35 1.35 0 0 1 1.35-1.35h50.24a1.35 1.35 0 0 1 1.34 1.35Zm0-44.34a1.34 1.34 0 0 1-1.34 1.35h-50.24a1.34 1.34 0 0 1-1.35-1.35v-17.15a1.34 1.34 0 0 1 1.35-1.35h50.24a1.34 1.34 0 0 1 1.34 1.35Zm0-44.33a1.35 1.35 0 0 1-1.34 1.35h-50.24a1.35 1.35 0 0 1-1.35-1.35v-17.16a1.35 1.35 0 0 1 1.35-1.35h50.24a1.35 1.35 0 0 1 1.34 1.35Zm0-44.34a1.34 1.34 0 0 1-1.34 1.35h-50.24a1.34 1.34 0 0 1-1.35-1.35v-17.15a1.34 1.34 0 0 1 1.35-1.35h50.24a1.34 1.34 0 0 1 1.34 1.35Zm0-44.33a1.35 1.35 0 0 1-1.34 1.35h-50.24a1.35 1.35 0 0 1-1.35-1.35V504.3a1.34 1.34 0 0 1 1.35-1.34h50.24a1.34 1.34 0 0 1 1.34 1.34Zm0-44.33a1.34 1.34 0 0 1-1.34 1.34h-50.24a1.34 1.34 0 0 1-1.35-1.34v-17.16a1.35 1.35 0 0 1 1.35-1.35h50.24a1.35 1.35 0 0 1 1.34 1.35Zm0-44.34a1.34 1.34 0 0 1-1.34 1.35h-50.24a1.34 1.34 0 0 1-1.35-1.35v-17.15a1.34 1.34 0 0 1 1.35-1.35h50.24a1.34 1.34 0 0 1 1.34 1.35Zm119.11 266a1.34 1.34 0 0 1-1.35 1.34h-50.28a1.35 1.35 0 0 1-1.35-1.34v-17.15a1.36 1.36 0 0 1 1.35-1.35h50.24a1.35 1.35 0 0 1 1.35 1.35Zm0-44.34a1.34 1.34 0 0 1-1.35 1.35h-50.28a1.35 1.35 0 0 1-1.35-1.35v-17.14a1.35 1.35 0 0 1 1.35-1.35h50.24a1.34 1.34 0 0 1 1.35 1.35Zm0-44.33a1.35 1.35 0 0 1-1.35 1.35h-50.28a1.36 1.36 0 0 1-1.35-1.35v-17.15a1.36 1.36 0 0 1 1.35-1.35h50.24a1.35 1.35 0 0 1 1.35 1.35Zm0-44.34a1.34 1.34 0 0 1-1.35 1.35h-50.28a1.35 1.35 0 0 1-1.35-1.35v-17.14a1.35 1.35 0 0 1 1.35-1.35h50.24a1.34 1.34 0 0 1 1.35 1.35Zm0-44.33a1.35 1.35 0 0 1-1.35 1.35h-50.28a1.36 1.36 0 0 1-1.35-1.35V504.3a1.35 1.35 0 0 1 1.35-1.34h50.24a1.34 1.34 0 0 1 1.35 1.34Zm0-44.33a1.34 1.34 0 0 1-1.35 1.34h-50.28a1.35 1.35 0 0 1-1.35-1.34v-17.15a1.36 1.36 0 0 1 1.35-1.35h50.24a1.35 1.35 0 0 1 1.35 1.35Zm0-44.34a1.34 1.34 0 0 1-1.35 1.35h-50.28a1.35 1.35 0 0 1-1.35-1.35v-17.14a1.35 1.35 0 0 1 1.35-1.35h50.24a1.34 1.34 0 0 1 1.35 1.35Zm81.39 266a1.34 1.34 0 0 1-1.35 1.34h-50.24a1.35 1.35 0 0 1-1.35-1.34v-17.14a1.36 1.36 0 0 1 1.35-1.35h50.24a1.35 1.35 0 0 1 1.35 1.35Zm0-44.34a1.34 1.34 0 0 1-1.35 1.35h-50.24a1.35 1.35 0 0 1-1.35-1.35v-17.13a1.35 1.35 0 0 1 1.35-1.35h50.24a1.34 1.34 0 0 1 1.35 1.35Zm0-44.33a1.35 1.35 0 0 1-1.35 1.35h-50.24a1.36 1.36 0 0 1-1.35-1.35v-17.14a1.36 1.36 0 0 1 1.35-1.35h50.24a1.35 1.35 0 0 1 1.35 1.35Zm0-44.34a1.34 1.34 0 0 1-1.35 1.35h-50.24a1.35 1.35 0 0 1-1.35-1.35v-17.13a1.35 1.35 0 0 1 1.35-1.35h50.24a1.34 1.34 0 0 1 1.35 1.35Zm0-44.33a1.35 1.35 0 0 1-1.35 1.35h-50.24a1.36 1.36 0 0 1-1.35-1.35V504.3a1.35 1.35 0 0 1 1.35-1.34h50.24a1.34 1.34 0 0 1 1.35 1.34Zm0-44.33a1.34 1.34 0 0 1-1.35 1.34h-50.24a1.35 1.35 0 0 1-1.35-1.34v-17.14a1.36 1.36 0 0 1 1.35-1.35h50.24a1.35 1.35 0 0 1 1.35 1.35Zm0-44.34a1.34 1.34 0 0 1-1.35 1.35h-50.24a1.35 1.35 0 0 1-1.35-1.35v-17.13a1.35 1.35 0 0 1 1.35-1.35h50.24a1.34 1.34 0 0 1 1.35 1.35Zm119.11 266a1.35 1.35 0 0 1-1.35 1.34h-50.24a1.34 1.34 0 0 1-1.35-1.34v-17.13a1.35 1.35 0 0 1 1.35-1.35h50.24a1.36 1.36 0 0 1 1.35 1.35Zm0-44.34a1.35 1.35 0 0 1-1.35 1.35h-50.24a1.34 1.34 0 0 1-1.35-1.35v-17.12a1.34 1.34 0 0 1 1.35-1.35h50.24a1.35 1.35 0 0 1 1.35 1.35Zm0-44.33a1.36 1.36 0 0 1-1.35 1.35h-50.24a1.35 1.35 0 0 1-1.35-1.35v-17.13a1.35 1.35 0 0 1 1.35-1.35h50.24a1.36 1.36 0 0 1 1.35 1.35Zm0-44.34a1.35 1.35 0 0 1-1.35 1.35h-50.24a1.34 1.34 0 0 1-1.35-1.35v-17.12a1.34 1.34 0 0 1 1.35-1.35h50.24a1.35 1.35 0 0 1 1.35 1.35Zm0-44.33a1.36 1.36 0 0 1-1.35 1.35h-50.24a1.35 1.35 0 0 1-1.35-1.35V504.3a1.34 1.34 0 0 1 1.35-1.34h50.24a1.35 1.35 0 0 1 1.35 1.34Zm0-44.33a1.35 1.35 0 0 1-1.35 1.34h-50.24a1.34 1.34 0 0 1-1.35-1.34v-17.13a1.35 1.35 0 0 1 1.35-1.35h50.24a1.36 1.36 0 0 1 1.35 1.35Zm0-44.34a1.35 1.35 0 0 1-1.35 1.35h-50.24a1.34 1.34 0 0 1-1.35-1.35v-17.12a1.34 1.34 0 0 1 1.35-1.35h50.24a1.35 1.35 0 0 1 1.35 1.35Z" fill="#1bb1dc" opacity=".1"/><g opacity=".1"><path d="M89.93 644.6a24.45 24.45 0 0 1-3.23 12.38 25.34 25.34 0 0 1 0 24.76 22.75 22.75 0 0 1 2.44 6 454.1 454.1 0 0 1-30.09-45 24 24 0 0 1 3.16-10.56 24.45 24.45 0 0 1-3.23-12.3 25.46 25.46 0 0 1 1.46-8.61 21.39 21.39 0 0 1 1.77-3.77c2.82-4.79 7.26-7.88 12.24-7.88s9.43 3.09 12.25 7.88a22.28 22.28 0 0 1 1.73 3.65 25.63 25.63 0 0 1 1.5 8.73 24.45 24.45 0 0 1-3.23 12.38 24.45 24.45 0 0 1 3.23 12.34Z" fill="#3f3d56"/><ellipse cx="74.45" cy="595.08" rx="15.47" ry="20.26" fill="#3f3d56"/><ellipse cx="74.45" cy="570.32" rx="15.47" ry="20.26" fill="#3f3d56"/><path d="M148.25 446.71a73.78 73.78 0 0 1-15.87 45.83 74.13 74.13 0 0 1-44 118.57c-1.78.36-3.59.64-5.42.86a74.89 74.89 0 0 1-17 .09q-2.82-.3-5.57-.83a73.3 73.3 0 0 1-23-8.41 738.54 738.54 0 0 1-34.91-83.83 73.79 73.79 0 0 1 13.29-26.45 74.19 74.19 0 0 1-11.95-69.61l56.28 18.89L7.32 414.4a74.43 74.43 0 0 1 8.54-13.52 74.13 74.13 0 1 1 122.43-82.95l-54.41 40 59-30.6a74.22 74.22 0 0 1-1.42 58.73l-44-.33 40.66 6.68a74.43 74.43 0 0 1-5.77 8.48 73.8 73.8 0 0 1 15.9 45.82Z" fill="#1bb1dc"/><path d="M148.25 538.37a74.15 74.15 0 0 1-59.82 72.74c-1.78.36-3.59.64-5.42.86a74.89 74.89 0 0 1-17 .09q-2.82-.3-5.57-.83a73.3 73.3 0 0 1-23-8.41 738.54 738.54 0 0 1-34.91-83.83 73.79 73.79 0 0 1 13.29-26.45A73.83 73.83 0 0 1-.04 446.71c0-8.32 142.32 33.22 132.38 45.83a73.78 73.78 0 0 1 15.91 45.83Z" opacity=".1"/></g><g opacity=".1"><path d="M982.48 625.32c-2.9 9.26-6 18.45-9.18 27.43a25.69 25.69 0 0 1-1.32-8.21c0-8.93 4.4-16.52 10.5-19.22Z" fill="#3f3d56"/><path d="M1013.58 465.75c0 17.56-3.54 45.28-10 77a846.64 846.64 0 0 1-21.15 82.57c-2.9 9.26-6 18.45-9.18 27.43-3.65 10.19-7.5 20.11-11.53 29.6a74.4 74.4 0 0 1-32.91-115.76 74.5 74.5 0 0 1-12-69.77l56.28 18.93-52.78-27.48a74.67 74.67 0 0 1 8.45-13.55 74.39 74.39 0 0 1 29.12-114.24 127.55 127.55 0 0 1 48.75 63.93l-9.85 7.25 10.46-5.43a127 127 0 0 1 6.09 33.32h-2.94l3 .49c.15 1.84.19 3.84.19 5.71Z" fill="#1bb1dc"/><path d="M1003.63 542.75a846.64 846.64 0 0 1-21.15 82.57c-2.9 9.26-6 18.45-9.18 27.43-3.65 10.19-7.5 20.11-11.53 29.6a74.4 74.4 0 0 1-32.91-115.76A74.12 74.12 0 0 1 913 520.65c0-5.03 51.72 8.11 90.63 22.1Z" opacity=".1"/></g><path d="M323.53 123.19a28.9 28.9 0 0 0-16.74 1.83 24.71 24.71 0 0 1-20.14 0 28.26 28.26 0 0 0-23.68.46 14.64 14.64 0 0 1-6.82 1.71c-9.6 0-17.59-9.67-19.25-22.43a18.58 18.58 0 0 0 4.8-5.18c5.63-9.07 14.35-14.89 24.14-14.89s18.4 5.75 24 14.73a18.53 18.53 0 0 0 15.95 8.71h.25c7.65 0 14.27 6.13 17.49 15.06Z" fill="#1bb1dc" opacity=".1"/><path d="m352.79 83.14-15.52 9.85 9.41-17.11a15.4 15.4 0 0 0-9.39-3.35h-.25a18.16 18.16 0 0 1-3.22-.23l-5.26 3.33 2.26-4.1a18.68 18.68 0 0 1-9.2-7l-9.42 6 5.95-10.81c-5.51-6.61-12.93-10.67-21.09-10.67-9.79 0-18.51 5.83-24.14 14.9a18 18 0 0 1-16 8.6h-.53c-10.81 0-19.57 12.26-19.57 27.37s8.76 27.37 19.57 27.37a14.72 14.72 0 0 0 6.82-1.7 28.22 28.22 0 0 1 23.68-.47 24.71 24.71 0 0 0 20.14.05 28.29 28.29 0 0 1 23.48.45 14.65 14.65 0 0 0 6.74 1.67c10.81 0 19.57-12.25 19.57-27.37a34.76 34.76 0 0 0-4.03-16.78Zm415.74 203.53a20.23 20.23 0 0 0-11.74 1.28 17.27 17.27 0 0 1-14.1 0 19.8 19.8 0 0 0-16.58.32 10.29 10.29 0 0 1-4.77 1.2c-6.72 0-12.31-6.78-13.47-15.71a12.94 12.94 0 0 0 3.36-3.62c3.94-6.35 10-10.42 16.89-10.42s12.89 4 16.83 10.3a13 13 0 0 0 11.16 6.14h.18c5.35-.03 9.98 4.26 12.24 10.51Z" fill="#1bb1dc" opacity=".1"/><path d="m789 258.64-10.86 6.89 6.59-12a10.69 10.69 0 0 0-6.57-2.35h-.17a11.21 11.21 0 0 1-2.25-.17l-3.69 2.34 1.58-2.87a13.13 13.13 0 0 1-6.44-4.89l-6.59 4.18 4.16-7.57c-3.85-4.62-9.05-7.46-14.76-7.46-6.85 0-13 4.07-16.9 10.42a12.65 12.65 0 0 1-11.17 6h-.37c-7.56 0-13.7 8.58-13.7 19.16s6.14 19.16 13.7 19.16a10.17 10.17 0 0 0 4.77-1.2 19.8 19.8 0 0 1 16.58-.32 17.5 17.5 0 0 0 7.09 1.52 17.29 17.29 0 0 0 7-1.49 19.79 19.79 0 0 1 16.43.32 10.24 10.24 0 0 0 4.72 1.17c7.57 0 13.7-8.58 13.7-19.16a24.35 24.35 0 0 0-2.85-11.68Zm-597.8-16.97a20.24 20.24 0 0 1 11.74 1.28 17.24 17.24 0 0 0 14.09 0 19.8 19.8 0 0 1 16.58.32 10.32 10.32 0 0 0 4.77 1.2c6.72 0 12.32-6.78 13.48-15.71a12.79 12.79 0 0 1-3.36-3.62c-3.94-6.35-10-10.42-16.9-10.42s-12.88 4-16.82 10.3a13 13 0 0 1-11.17 6.14h-.17c-5.35-.03-9.99 4.26-12.24 10.51Z" fill="#1bb1dc" opacity=".1"/><path d="m170.72 213.64 10.87 6.89-6.6-12a10.71 10.71 0 0 1 6.57-2.35h.23a11.26 11.26 0 0 0 2.25-.17l3.68 2.34-1.58-2.87a13.15 13.15 0 0 0 6.45-4.89l6.59 4.18-4.17-7.57c3.86-4.62 9.05-7.46 14.77-7.46 6.85 0 12.95 4.07 16.9 10.42a12.64 12.64 0 0 0 11.17 6h.36c7.57 0 13.7 8.58 13.7 19.16s-6.13 19.16-13.7 19.16a10.23 10.23 0 0 1-4.77-1.2 19.8 19.8 0 0 0-16.58-.32 17.45 17.45 0 0 1-7.08 1.52 17.22 17.22 0 0 1-7-1.49 19.81 19.81 0 0 0-16.44.32 10.21 10.21 0 0 1-4.72 1.17c-7.56 0-13.7-8.58-13.7-19.16a24.35 24.35 0 0 1 2.8-11.68Z" fill="#1bb1dc" opacity=".1"/><path d="m254.3 402 219.43 106c5.71 2.72 13.36 4.15 20.88 4.15s15.17-1.43 20.88-4.15l219.43-106c11.55-5.58 11.55-14.66 0-20.23l-219.43-106c-5.71-2.72-13.36-4.15-20.88-4.15s-15.17 1.43-20.88 4.15l-219.43 106c-11.51 5.57-11.51 14.65 0 20.23Z" fill="#192534"/><path d="M734.92 510.55s-40.07-19.32-45.39-21.92-6.74-2.46-12.32.13-161.85 78.12-161.85 78.12c-5.84 2.73-13.36 4.15-20.88 4.15s-15.17-1.42-20.88-4.15c0 0-152.13-73.4-159.26-76.9-7.78-3.76-10-3.76-17-.39l-43.31 20.88c-11.55 5.58-11.55 14.65 0 20.23l219.43 106c5.71 2.72 13.36 4.15 20.88 4.15s15.17-1.43 20.88-4.15l219.43-106c11.81-5.45 11.81-14.52.26-20.1Z" fill="#192534"/><path d="M734.92 639.33s-40.07-19.32-45.39-21.92-6.74-2.46-12.32.13-161.72 78.2-161.72 78.2c-5.84 2.73-13.36 4.16-20.88 4.16s-15.17-1.43-20.88-4.16c0 0-152.13-73.4-159.26-76.9-7.78-3.76-10-3.76-17-.39l-43.31 20.88c-11.55 5.58-11.55 14.66 0 20.23l219.43 106c5.71 2.85 13.36 4.15 20.88 4.15s15.17-1.43 20.88-4.15l219.44-106c11.68-5.57 11.68-14.65.13-20.23Z" fill="#192534"/><ellipse cx="361.43" cy="211.8" rx="47.64" ry="66.17" fill="#192534"/><path fill="#1bb1dc" d="M356.14 320.32h42.35v42.35h-42.35z"/><path d="m323.79 524.37 13.91 19.56a25.34 25.34 0 0 1 10.05-20.26 123.83 123.83 0 0 0-19.69-15.79 1.58 1.58 0 0 0-1.14-.38 1.65 1.65 0 0 0-.85.63c-2.07 2.45-4.7 5.69-5.59 8.83-.85 2.92 1.61 5.09 3.31 7.41Z" fill="#fbbebe"/><path d="M351.45 521.7c2.15 0 4.14 1 6 2.07a30.77 30.77 0 0 1 6.91 4.53 10.48 10.48 0 0 1 3.54 7.25c0 2.23-.92 4.34-1.72 6.42a55.5 55.5 0 0 0-2.58 30.4c.65 3.32 1.61 6.8.58 10-.93 2.94-3.35 5.12-5.72 7.09-3.78 3.13-7.94 6.19-12.81 6.85s-10.5-2-11.58-6.74c-.64-2.82.37-5.71 1.07-8.51 1.67-6.69 1.63-13.67 1.58-20.57a28.38 28.38 0 0 0-.52-6.25c-.33-1.44-.89-2.82-1.36-4.23-1.26-3.79-1.81-8-.37-11.75a23.41 23.41 0 0 1 3.25-5.34c3.4-4.55 7.07-11.25 13.73-11.22Z" fill="#f2f2f2"/><path d="M343.9 228.59c.12 2.48.21 5.1-.94 7.3-1 1.95-2.85 3.3-4.63 4.59l-5.93 4.29c-.3.21-.63.48-.66.84a1.26 1.26 0 0 0 .64 1 19.67 19.67 0 0 0 8.23 3.75 39 39 0 0 0 6.39.54c11.12.33 22.43.58 33.16-2.34a17 17 0 0 0 5.48-2.33 7 7 0 0 0 3.08-4.91c-2.74-.15-5.16-1.76-7.42-3.31s-4.57-3.24-5.29-5.82c-.45-1.61-.19-3.35-.56-5-.62-2.66-2.84-4.65-5.22-6-6.14-3.48-13.39-3.69-20.08-5.51-2.4-.65-6.69-3.53-6.85.36-.17 4.13.4 8.43.6 12.55Z" fill="#fbbebe"/><path d="M343.9 228.59c.12 2.48.21 5.1-.94 7.3-1 1.95-2.85 3.3-4.63 4.59l-5.93 4.29c-.3.21-.63.48-.66.84a1.26 1.26 0 0 0 .64 1 19.67 19.67 0 0 0 8.23 3.75 39 39 0 0 0 6.39.54c11.12.33 22.43.58 33.16-2.34a17 17 0 0 0 5.48-2.33 7 7 0 0 0 3.08-4.91c-2.74-.15-5.16-1.76-7.42-3.31s-4.57-3.24-5.29-5.82c-.45-1.61-.19-3.35-.56-5-.62-2.66-2.84-4.65-5.22-6-6.14-3.48-13.39-3.69-20.08-5.51-2.4-.65-6.69-3.53-6.85.36-.17 4.13.4 8.43.6 12.55Z" opacity=".1"/><path d="M333.08 367.59c-8.64-2.12-17.73 1-25.56 5.17s-15.07 9.63-23.39 12.78c-6.67 2.53-14.1 3.65-19.71 8.06-5 4-7.89 10.07-9.75 16.2a25.76 25.76 0 0 0-1.38 10.7 29 29 0 0 0 2.63 8c5.8 12.84 13.12 24.91 20.43 37 13.1 21.61 26.32 43.38 43.3 62.11 5.42-3.72 4.89-12.68 10.26-16.46 1.35-1 3-1.5 4.13-2.69 2.54-2.63 1.55-6.93.35-10.38a519.51 519.51 0 0 0-26.41-62.68c14.61.1 26.86-11.32 41.25-13.88a75.9 75.9 0 0 1 12.06-.8 409.14 409.14 0 0 0 42.56-3c5.12-.64 10.55-1.51 14.4-4.95 4-3.58 5.42-9.16 6.63-14.39 2.54-10.89 8.91-20.45 12.83-30.92 1-2.7 2-5.41 3.23-8 1.08-2.22 2.36-4.34 3.5-6.53 3.6-7 5.64-14.67 7.39-22.34 2.1-9.2 4-18.6 5.94-27.84 1.3-6.36 3.83-13.26.81-19-1.71-3.25-4.94-5.44-8.28-7-3.57-1.63-7.55-2.69-11.43-2.08-7.64 1.21-12.79 8.21-17.08 14.63l-6.7 10.09a71.28 71.28 0 0 0-4.42 7.23c-2.52 4.94-3.89 10.36-5.82 15.55-5.21 13.94-15 26.53-28.3 33.17-3.54 1.77-7.28 3.1-10.84 4.81-2.79 1.34-5.47 2.91-8.29 4.19-7.63 3.54-16.13 5.26-24.34 3.25Z" fill="#01e7c0"/><circle cx="366.73" cy="203.86" r="26.47" fill="#fbbebe"/><path d="M378.27 233.95c-1.12 3-2.3 6.11-4.41 8.55-3.78 4.36-9.89 5.91-15.66 6.14a46.29 46.29 0 0 1-18.8-3.19c-2.56-1-5.17-2.28-7.9-2-3.95.35-6.88 3.67-10.36 5.58-1.74 1-3.65 1.57-5.48 2.36a30.46 30.46 0 0 0-17.55 22.14c-2 11.28 7.08 22 12.58 32.06 2.41 4.42 5.22 8.7 6.56 13.54 2.25 8.14.08 16.81-2.77 24.76s-6.41 15.81-7 24.23c-.18 2.47.68 5.8 3.16 5.77a5.45 5.45 0 0 0 2.53-1 22.5 22.5 0 0 1 14.62-2.69c3.51.57 6.85 2 10.36 2.49 6.9 1 13.78-1.42 20.31-3.82 6.23-2.29 12.71-4.75 17.15-9.69 3.33-3.7 5.24-8.53 8.66-12.15 4.5-4.75 11.29-7.08 15.05-12.43 2.21-3.15 3.11-7 4.39-10.62s3.2-7.32 6.58-9.15c-1.81-3.16-3.83-6.55-3.61-10.19.19-3.17 1.95-6 3.25-8.9.85-1.91 1.52-3.9 2.19-5.88l2.16-6.43c.58-1.75 1.17-3.49 1.61-5.28.75-3 1.06-6.2 1.94-9.21 2.24-7.77 7.94-14 13.21-20.1a84.82 84.82 0 0 0-14.21-4.1 21.37 21.37 0 0 1-4.76-1.24c-1.75-.77-3.23-2-4.92-2.92-2.64-1.37-5.67-1.74-8.61-2.19a122 122 0 0 1-20.27-4.44Z" fill="#1bb1dc"/><path d="M288.95 351.73a25.8 25.8 0 0 0 .23 7 27.39 27.39 0 0 0 2.87 6.8c5.5 10.51 10 21.51 14.53 32.49a43.69 43.69 0 0 1 2.91 8.78c.42 2.28.47 4.62.77 6.92a22 22 0 0 0 1.79 6.56c1.06 2.26 6.8 14.33 9 15.51 4.73 2.57 11.08.2 14.09-4.27s-1-20.36-2.38-25.55-4.24-9.87-6.88-14.56a267.46 267.46 0 0 1-12.53-25.28c-3.18-7.38-6.08-15.36-4.74-23.29.75-4.46 2.81-8.59 4.36-12.84s2.6-8.95 1.28-13.29a6.28 6.28 0 0 0-1-2.11 6.72 6.72 0 0 0-2.8-1.81c-4.68-1.89-14.25-3.46-16.27 2.83-.83 2.61-1 5.46-1.7 8.13a97.61 97.61 0 0 0-2.34 12.91c-.61 4.99-.9 10.03-1.19 15.07Zm97 18.8q-8.85 10.44-17.22 21.29l14.44 10.67a30.44 30.44 0 0 1 2.1-5.5 30.82 30.82 0 0 1 3.43-4.85l14.63-18.13a25.91 25.91 0 0 0-11.35-3.84c-1.93.28-4.1.08-6.03.36Zm63.39-114.73c3.82.87 7.64 1.74 11.41 2.8 7.83 2.21 15.75 5.42 21.17 11.49 1.2 1.34 2.29 3.38 1.23 4.84a6.78 6.78 0 0 1-1.26 1.12c-1.47 1.22-2.29 3-3.2 4.71a36.89 36.89 0 0 1-6.69 8.86 29.16 29.16 0 0 0-7.39-5.83l-6-3.75c-2.65-1.67-5.4-3.37-8.5-3.85-3.56-.55-7.15.57-10.75.84a22.78 22.78 0 0 1-13.11-3 3.14 3.14 0 0 1-1.24-1.07 3.1 3.1 0 0 1-.33-1.16 15.74 15.74 0 0 1 3.59-11.48c1.85-2.35 6-6.75 9.19-7.16 1.57-.2 3.8.83 5.35 1.18Z" fill="#fbbebe"/><path d="M444.69 280.51a25.58 25.58 0 0 0-3.14 1.46c-7.84 4.09-15.93 8.39-21.32 15.4a61.22 61.22 0 0 0-6.44 11.51l-13.06 27.78-2.74 5.83-4.2 8.82-10.68 22.72c3.81-.66 7.89-.62 11.36 1.08s6.17 5.35 5.88 9.21c3.1-.27 4.75-3.64 6.93-5.86 1.78-1.82 4.12-3 6.18-4.47a48.85 48.85 0 0 0 7.33-7.11 215 215 0 0 1 22.17-21.36 49.87 49.87 0 0 0 4.4-3.94 36.31 36.31 0 0 0 6.7-11.27 98.13 98.13 0 0 0 6.58-24.5c.68-5.12.92-10.52-1.17-15.24a17 17 0 0 0-18.75-9.4" fill="#01e7c0"/><path d="M443.69 281.51a25.58 25.58 0 0 0-3.14 1.46c-7.84 4.09-15.93 8.39-21.32 15.4a61.22 61.22 0 0 0-6.44 11.51l-13.06 27.78-2.74 5.83-4.2 8.82-10.68 22.72c3.81-.66 7.89-.62 11.36 1.08s6.17 5.35 5.88 9.21c3.1-.27 4.75-3.64 6.93-5.86 1.78-1.82 4.12-3 6.18-4.47a48.85 48.85 0 0 0 7.33-7.11 215 215 0 0 1 22.17-21.36 49.87 49.87 0 0 0 4.4-3.94 36.31 36.31 0 0 0 6.7-11.27 98.13 98.13 0 0 0 6.58-24.5c.68-5.12.92-10.52-1.17-15.24a17 17 0 0 0-18.75-9.4" opacity=".1"/><path d="m374.84 388.22-10.94-1.2a1.72 1.72 0 0 0-.9.07 1.6 1.6 0 0 0-.63.77q-5.28 9.94-9.86 20.24c-1.7 3.81-3.29 8.38-1.14 12 .64 1.06 1.57 1.94 2.17 3 1.36 2.49.74 5.59-.24 8.26a4.33 4.33 0 0 0-.42 2.43c.27 1.12 1.4 1.79 2.44 2.3a85.79 85.79 0 0 0 27.33 8.16 2.83 2.83 0 0 0 2.13-.31 2.86 2.86 0 0 0 .82-1.47 26.17 26.17 0 0 0 .89-3.26c.72-3.94-.39-8-1.23-11.88-1.36-6.36-2-13.06-.16-19.29a25.85 25.85 0 0 1 3.5-7.32c1.74-2.54-4.21-4.93-5.79-6.71-2.68-3.05-3.5-5.3-7.97-5.79Z" fill="#f2f2f2"/><path d="m294.22 300.13-3.32 20.32c2.79-2.64 6.94-3.12 10.78-3.2s8.31.29 11 3.17c1.09 1.18 1.78 2.67 2.84 3.88s2.71 2.12 4.22 1.6a3.65 3.65 0 0 0 2.14-2.53 11 11 0 0 0 .2-3.43l-1.09-22.42c-.27-5.41-.55-10.94-2.54-16a25 25 0 0 0-4.67-7.55 8.18 8.18 0 0 0-2-1.73 8.37 8.37 0 0 0-2.65-.79c-2.6-.41-6.83-1.09-9.25.32-2 1.19-2.19 4-2.42 6.08-.84 7.48-2.02 14.89-3.24 22.28Z" fill="#1bb1dc"/><ellipse cx="366.73" cy="187.98" rx="37.06" ry="15.88" fill="#192534"/><circle cx="319.08" cy="166.8" r="21.17" fill="#192534"/><circle cx="393.2" cy="161.51" r="21.17" fill="#192534"/><path d="M403.24 149.45a21.18 21.18 0 0 1 4.67 27.62 22.35 22.35 0 0 0 1.8-1.95 21.18 21.18 0 0 0-32.92-26.65 22.45 22.45 0 0 0-1.53 2.17 21.17 21.17 0 0 1 27.98-1.19Zm-89.7 2.59a21.18 21.18 0 0 1 26.6 8.75 21.89 21.89 0 0 0-.88-2.5 21.18 21.18 0 0 0-38.92 16.7 19.35 19.35 0 0 0 1.2 2.36 21.17 21.17 0 0 1 12-25.31Zm53.19 46.52c-18.36 0-33.59-5.72-36.54-13.23a7.35 7.35 0 0 0-.52 2.65c0 8.77 16.59 15.88 37.06 15.88s37.06-7.11 37.06-15.88a7.15 7.15 0 0 0-.52-2.65c-2.95 7.55-18.18 13.23-36.54 13.23Z" opacity=".1"/><path d="M767.79 132.88a21.83 21.83 0 0 0-8.76 41.83 19.24 19.24 0 0 1 .38-5l2.81-11.9a8.33 8.33 0 0 1-.7-3.45c0-3.24 1.87-5.65 4.21-5.65 2 0 2.94 1.49 2.94 3.27 0 2-1.28 5-1.93 7.75a3.37 3.37 0 0 0 3.45 4.2c4.13 0 6.92-5.31 6.92-11.61 0-4.78-3.23-8.36-9.08-8.36a10.34 10.34 0 0 0-10.75 10.46 6.3 6.3 0 0 0 1.44 4.28 1 1 0 0 1 .31 1.21c-.11.4-.34 1.37-.45 1.76a.74.74 0 0 1-1.09.54c-3.05-1.24-4.47-4.58-4.47-8.34 0-6.2 5.23-13.63 15.6-13.63 8.33 0 13.82 6 13.82 12.5 0 8.57-4.77 15-11.78 15a6.27 6.27 0 0 1-5.33-2.72s-1.27 5-1.54 6a18 18 0 0 1-2.2 4.68 21.83 21.83 0 1 0 6.2-42.82Z" fill="#be000f"/><path d="M708.72 24.43a19.19 19.19 0 0 1-5.41 1.5 9.57 9.57 0 0 0 4.15-5.23 18.86 18.86 0 0 1-6 2.29 9.43 9.43 0 0 0-16.32 6.45 9.66 9.66 0 0 0 .24 2.16 26.75 26.75 0 0 1-19.45-9.87 9.46 9.46 0 0 0 2.94 12.6 9.13 9.13 0 0 1-4.29-1.17v.11a9.44 9.44 0 0 0 7.57 9.26 9.7 9.7 0 0 1-2.48.33 9.51 9.51 0 0 1-1.78-.17 9.44 9.44 0 0 0 8.82 6.55 18.87 18.87 0 0 1-11.72 4 18.62 18.62 0 0 1-2.25-.14 26.36 26.36 0 0 0 14.44 4.27c17.37 0 26.87-14.39 26.87-26.88v-1.21a19.21 19.21 0 0 0 4.67-4.85Z" fill="#55acee"/><path d="M391.46 0h-33.29a2.07 2.07 0 0 0-2.07 2.07v33.28a2.07 2.07 0 0 0 2.07 2.07h16.62V22.61h-4.47v-5.46h4.47v-4c0-4.84 3.35-7.47 7.67-7.47 2.07 0 4.29.16 4.8.23v5h-3.44c-2.34 0-2.79 1.12-2.79 2.75v3.48h5.59l-.73 5.46h-4.86v14.81h10.41a2.07 2.07 0 0 0 2.06-2.07V2.07A2.07 2.07 0 0 0 391.46 0Z" fill="#3b5998"/><path d="m499.87 96.26-.15-.68h-15.26v6.3h8.83c-.91 4.38-4.71 6.2-8.19 6.2a9.35 9.35 0 0 1-6.66-2.47 9.83 9.83 0 0 1-.12-13.64 9.16 9.16 0 0 1 6.69-2.48 8.44 8.44 0 0 1 5.66 2.06l4.68-4.65a15.82 15.82 0 0 0-10.49-4 15.66 15.66 0 0 0-16 15.88 16 16 0 0 0 4.34 11 16.6 16.6 0 0 0 12 4.84 14.76 14.76 0 0 0 10.75-4.51 15.85 15.85 0 0 0 4.13-11 18 18 0 0 0-.2-2.84Zm18.89-.67h-5.56v-5.55h-4v5.55h-5.56v4h5.56v5.55h4v-5.55h5.59Z" fill="#dd4b39"/><path d="M211.99 130.02a7.82 7.82 0 0 1 7.79 7.8v15.59a7.78 7.78 0 0 1-2.29 5.5 7.68 7.68 0 0 1-5.5 2.29h-15.6a7.82 7.82 0 0 1-7.79-7.79v-15.59a7.82 7.82 0 0 1 7.79-7.8h15.6m0-3.12h-15.6a10.94 10.94 0 0 0-10.91 10.92v15.59a10.94 10.94 0 0 0 10.91 10.91h15.6a10.94 10.94 0 0 0 10.91-10.91v-15.59a10.94 10.94 0 0 0-10.91-10.94Z" fill="#e53c5f"/><path d="M214.32 137.82a2.34 2.34 0 1 1 2.34-2.34 2.33 2.33 0 0 1-2.34 2.34Zm-10.13 1.56a6.24 6.24 0 1 1-6.24 6.23 6.24 6.24 0 0 1 6.24-6.23m0-3.12a9.36 9.36 0 1 0 9.36 9.35 9.35 9.35 0 0 0-9.36-9.35Z" fill="#e53c5f"/><path d="M647.59 222.88h-31.22a3.05 3.05 0 0 0-3.2 2.92v31.29a3.29 3.29 0 0 0 3.2 3.2h31.21a3.13 3.13 0 0 0 3-3.2v-31.27a2.87 2.87 0 0 0-2.99-2.94Zm-22.8 31.21h-5.36v-16.67h5.36Zm-2.5-19.2a2.88 2.88 0 1 1 2.94-2.88 2.75 2.75 0 0 1-3 2.87Zm22.08 19.2h-5.38v-9.12c0-2.18-.78-3.67-2.72-3.67a2.92 2.92 0 0 0-2.74 2 3.51 3.51 0 0 0-.19 1.31v9.5h-5.36v-16.69h5.36v2.32a5.43 5.43 0 0 1 4.84-2.71c3.51 0 6.17 2.32 6.17 7.32Z" fill="#007bb6"/><path fill="#464a5f" d="m424.31 393.58 2.65 4.79 86.23-18.28-3.41-5.42-85.47 18.91z"/><path d="m413.98 398.24-13.06-77.46a2.48 2.48 0 0 1 2.18-2.87l99-10.56a2.47 2.47 0 0 1 2.71 2.12l9.26 67.85Z" fill="#464a5f"/><path d="m413.98 398.24-13.06-77.46a2.48 2.48 0 0 1 2.18-2.87l99-10.56a2.47 2.47 0 0 1 2.71 2.12l9.26 67.85Z" opacity=".1"/><path d="m415.49 398.24-13.05-77.46a2.47 2.47 0 0 1 2.17-2.87l99-10.56a2.47 2.47 0 0 1 2.71 2.12l9.25 67.85Z" fill="#464a5f"/><path fill="#1bb1dc" d="m409.31 324.24 10.72 65.81 89.5-18.41-8.32-58.49-91.9 11.09z"/><path d="m426.46 396.88-.63-1.27-11.85 2.65 30.18 46.12a3.9 3.9 0 0 0 4.36 1.61l106-30.81a3.9 3.9 0 0 0 1.27-6.86l-41.08-31.11-8.57 2 .38.88Z" fill="#9c9ca1"/><path d="m426.46 396.88-.63-1.27-11.85 2.65 30.18 46.12a3.9 3.9 0 0 0 4.36 1.61l106-30.81a3.9 3.9 0 0 0 1.27-6.86l-41.08-31.11-8.57 2 .38.88Z" opacity=".1"/><path d="m427.97 396.88-.63-1.27-11.85 2.65 30.18 46.12a3.9 3.9 0 0 0 4.36 1.61l106-30.81a3.9 3.9 0 0 0 1.26-6.86l-41.08-31.11-8.57 2 .38.88Z" fill="#9c9ca1"/><path d="m475.25 415.75 34.06-8.87a.67.67 0 0 1 .61.15l15.13 13.73a.66.66 0 0 1-.26 1.12l-36 10.64a.65.65 0 0 1-.68-.21l-13.17-15.51a.67.67 0 0 1 .31-1.05Z" opacity=".1"/><path d="m476.01 415 34.06-8.85a.66.66 0 0 1 .61.15l15.11 13.72a.66.66 0 0 1-.26 1.12l-36 10.64a.67.67 0 0 1-.69-.21l-13.16-15.51a.65.65 0 0 1 .33-1.06Z" fill="#939498"/><g opacity=".1"><path d="m428.03 403.29 1.53 2.46a.3.3 0 0 0 .31.14l5.17-1.15a.3.3 0 0 0 .17-.46l-1.71-2.4a.29.29 0 0 0-.3-.12l-5 1.07a.29.29 0 0 0-.17.46Zm6.76-1.41 1.52 2.47a.31.31 0 0 0 .32.13l5.16-1.15a.29.29 0 0 0 .17-.46l-1.7-2.38a.3.3 0 0 0-.3-.12l-5 1.07a.29.29 0 0 0-.17.44Zm6.54-1.42 1.53 2.46a.3.3 0 0 0 .31.13l5.17-1.15a.3.3 0 0 0 .17-.46l-1.72-2.38a.31.31 0 0 0-.3-.12l-5 1.07a.3.3 0 0 0-.16.45Zm6.46-1.4 1.51 2.43a.32.32 0 0 0 .34.14l5.12-1.14a.32.32 0 0 0 .18-.49l-1.68-2.35a.31.31 0 0 0-.32-.12l-5 1.06a.32.32 0 0 0-.15.47Zm-.53 3.76 1.53 2.46a.28.28 0 0 0 .31.13l5.16-1.15a.28.28 0 0 0 .17-.45l-1.7-2.39a.29.29 0 0 0-.3-.11l-5 1.07a.29.29 0 0 0-.17.44Zm-6.69 1.42 1.53 2.46a.3.3 0 0 0 .32.13l5.16-1.15a.29.29 0 0 0 .17-.46l-1.71-2.34a.28.28 0 0 0-.3-.11l-5 1.07a.3.3 0 0 0-.17.4Zm4.35 3.02 1.53 2.47a.32.32 0 0 0 .32.13l5.16-1.15a.29.29 0 0 0 .17-.46l-1.71-2.37a.29.29 0 0 0-.3-.12l-5 1.07a.3.3 0 0 0-.17.43Zm6.15 2.62 1.53 2.46a.28.28 0 0 0 .31.13l5.16-1.15a.29.29 0 0 0 .18-.45l-1.71-2.39a.29.29 0 0 0-.3-.11l-5 1.07a.29.29 0 0 0-.17.44Zm1.07 4.31 2.47 3.1a.29.29 0 0 0 .3.1l5.2-1.35a.3.3 0 0 0 .16-.47l-2.56-3.12a.29.29 0 0 0-.3-.1l-5.12 1.38a.29.29 0 0 0-.15.46Zm6.8-1.7 2.54 3.19a.29.29 0 0 0 .3.1l6.79-1.88a.3.3 0 0 0 .15-.47l-2.56-3.13a.29.29 0 0 0-.3-.1l-6.76 1.82a.3.3 0 0 0-.16.47Zm-13.45 3.39 2.47 3.1a.29.29 0 0 0 .3.1l5.2-1.35a.3.3 0 0 0 .16-.47l-2.56-3.13a.28.28 0 0 0-.3-.09l-5.12 1.37a.3.3 0 0 0-.15.47Zm-7.03 1.78 2.47 3.09a.29.29 0 0 0 .3.1l5.2-1.35a.3.3 0 0 0 .16-.47l-2.55-3.15a.31.31 0 0 0-.31-.1l-5.12 1.38a.3.3 0 0 0-.15.5Zm15.78-20.11 1.5 2.43a.32.32 0 0 0 .34.14l5.12-1.14a.31.31 0 0 0 .18-.49l-1.68-2.35a.31.31 0 0 0-.32-.12l-4.94 1.06a.3.3 0 0 0-.2.47Zm-.45 3.78 1.5 2.43a.32.32 0 0 0 .34.14l5.12-1.14a.31.31 0 0 0 .18-.49l-1.64-2.39a.31.31 0 0 0-.32-.12l-4.94 1.12a.31.31 0 0 0-.24.45Zm6.72-5.2 1.5 2.43a.32.32 0 0 0 .34.14l5.12-1.14a.31.31 0 0 0 .18-.49l-1.68-2.35a.31.31 0 0 0-.32-.12l-4.94 1.06a.31.31 0 0 0-.2.47Zm18.34-4 2.12 2.26a.28.28 0 0 0 .24.07l4.57-1.06a.25.25 0 0 0 .12-.43l-2.39-2.26a.27.27 0 0 0-.24-.06l-4.3 1.06a.25.25 0 0 0-.12.42Zm5.86-1.36 2.13 2.26a.24.24 0 0 0 .24.07l4.57-1.06a.24.24 0 0 0 .11-.42l-2.39-2.27a.29.29 0 0 0-.24-.06l-4.3 1.06a.26.26 0 0 0-.12.42Zm-5.74 5.01 2.13 2.26a.24.24 0 0 0 .24.07l4.57-1.05a.25.25 0 0 0 .12-.43l-2.4-2.26a.25.25 0 0 0-.23-.07l-4.3 1.07a.25.25 0 0 0-.13.41Zm-6.01 1.4 2 2.16a.31.31 0 0 0 .3.09l4.43-1a.32.32 0 0 0 .14-.54l-2.29-2.16a.3.3 0 0 0-.29-.07l-4.16 1a.32.32 0 0 0-.13.52Zm4.57 6.81 2 2.16a.33.33 0 0 0 .3.09l4.43-1a.31.31 0 0 0 .14-.53l-2.29-2.16a.33.33 0 0 0-.29-.08l-4.16 1a.32.32 0 0 0-.13.52Zm-6.27 1.42 2 2.16a.33.33 0 0 0 .3.09l4.42-1a.31.31 0 0 0 .15-.53l-2.29-2.16a.32.32 0 0 0-.29-.08l-4.17 1a.32.32 0 0 0-.12.52Zm-6.37 1.57 2 2.16a.31.31 0 0 0 .3.09l4.43-1a.32.32 0 0 0 .14-.54l-2.29-2.16a.3.3 0 0 0-.29-.07l-4.16 1a.31.31 0 0 0-.13.52Zm-6.73 1.33 2.06 2.19a.3.3 0 0 0 .28.09l4.47-1a.29.29 0 0 0 .14-.5l-2.32-2.21a.29.29 0 0 0-.27-.07l-4.21 1a.28.28 0 0 0-.15.5Zm13.04-6.84 2 2.16a.32.32 0 0 0 .3.09l4.42-1a.31.31 0 0 0 .15-.53l-2.28-2.19a.32.32 0 0 0-.29-.08l-4.17 1a.31.31 0 0 0-.13.55Zm-6.12 1.41 2 2.15a.29.29 0 0 0 .3.09l4.43-1a.31.31 0 0 0 .14-.53l-2.29-2.16a.28.28 0 0 0-.29-.08l-4.16 1a.31.31 0 0 0-.13.53Zm-6.55 1.39 2 2.16a.31.31 0 0 0 .3.09l4.42-1a.32.32 0 0 0 .15-.54l-2.29-2.16a.31.31 0 0 0-.29-.07l-4.17 1a.31.31 0 0 0-.12.52Zm-6.74 1.61 2.06 2.19a.34.34 0 0 0 .29.08l4.47-1a.29.29 0 0 0 .13-.5l-2.32-2.19a.3.3 0 0 0-.27-.07l-4.21 1a.3.3 0 0 0-.15.49Zm25.71-5.89 2 2.15a.31.31 0 0 0 .3.1l4.42-1a.31.31 0 0 0 .15-.53l-2.29-2.16a.29.29 0 0 0-.29-.08l-4.17 1a.32.32 0 0 0-.12.52Zm-10.71-1.23 2 2.16a.32.32 0 0 0 .3.09l4.42-1a.31.31 0 0 0 .14-.53l-2.28-2.16a.32.32 0 0 0-.29-.08l-4.17 1a.31.31 0 0 0-.12.52Zm23.58-9.42 2.23 2.36a.19.19 0 0 0 .18.06l4.72-1.1a.19.19 0 0 0 .09-.32l-2.51-2.37a.19.19 0 0 0-.18 0l-4.44 1.1a.18.18 0 0 0-.09.27Zm5.7-1.27 2.23 2.37a.21.21 0 0 0 .18.06l4.72-1.1a.19.19 0 0 0 .09-.32l-2.5-2.37a.17.17 0 0 0-.17 0l-4.45 1.1a.18.18 0 0 0-.1.26Zm5.87-1.34 2 2.19a.18.18 0 0 0 .19.06l4.4-1.2a.2.2 0 0 0 .07-.33l-2.27-1.91a.2.2 0 0 0-.16 0l-4.17.92a.18.18 0 0 0-.06.27Zm6.14 2.04 2 2.2a.2.2 0 0 0 .18.06l4.4-1.2a.19.19 0 0 0 .07-.33l-2.27-1.91a.16.16 0 0 0-.16 0l-4.16.91a.19.19 0 0 0-.06.27Zm-.74 4 1.93 2.08a.23.23 0 0 0 .25.07l4.24-1.15a.25.25 0 0 0 .1-.44l-2.15-1.82a.25.25 0 0 0-.22-.05l-4 .89a.25.25 0 0 0-.15.42Zm-5.01 5.11 1.93 2.09a.25.25 0 0 0 .25.07l4.28-1.16a.25.25 0 0 0 .1-.43l-2.15-1.82a.25.25 0 0 0-.22 0l-4 .88a.26.26 0 0 0-.19.37Zm-6.02 1.54 1.93 2.08a.23.23 0 0 0 .25.07l4.24-1.15a.25.25 0 0 0 .1-.44l-2.15-1.82a.25.25 0 0 0-.22 0l-4 .89a.25.25 0 0 0-.15.37Zm11.69-3.06 1.93 2.08a.27.27 0 0 0 .25.08l4.25-1.16a.25.25 0 0 0 .09-.44l-2.15-1.81a.29.29 0 0 0-.22-.06l-4 .89a.26.26 0 0 0-.15.42Zm-.98 4.52 2.91 2.62a.3.3 0 0 0 .24 0l4.21-1.19a.25.25 0 0 0 .1-.43l-3.14-2.75a.23.23 0 0 0-.24 0l-4 1.33a.24.24 0 0 0-.08.42Zm-10.23-9.27 2 2.2a.17.17 0 0 0 .18.05l4.4-1.2a.18.18 0 0 0 .07-.32l-2.27-1.92a.18.18 0 0 0-.16 0l-4.16.92a.19.19 0 0 0-.06.27Zm-5.65 1.41 1.93 2.08a.27.27 0 0 0 .25.08l4.25-1.16a.25.25 0 0 0 .09-.44l-2.15-1.81a.29.29 0 0 0-.22-.06l-4 .89a.25.25 0 0 0-.15.42Zm-1.16 4.03 1.93 2.09a.25.25 0 0 0 .25.07l4.24-1.16a.25.25 0 0 0 .1-.43l-2.16-1.82a.25.25 0 0 0-.22-.05l-4 .88a.25.25 0 0 0-.14.42Zm-5.99 1.45 1.93 2.09a.25.25 0 0 0 .25.07l4.24-1.16a.25.25 0 0 0 .1-.43l-2.16-1.82a.23.23 0 0 0-.21-.05l-4 .88a.25.25 0 0 0-.15.42Zm1.07-4.13 1.93 2.09a.23.23 0 0 0 .25.07l4.24-1.16a.25.25 0 0 0 .1-.43l-2.15-1.82a.25.25 0 0 0-.22-.05l-4 .89a.25.25 0 0 0-.15.41Zm5.01 6.4 1.93 2.09a.25.25 0 0 0 .25.07l4.24-1.16a.25.25 0 0 0 .1-.43l-2.15-1.82a.25.25 0 0 0-.22-.05l-4 .88a.26.26 0 0 0-.15.42Zm-5.88 1.59 1.83 2a.3.3 0 0 0 .31.09l4.09-1.11a.32.32 0 0 0 .12-.55l-2-1.72a.29.29 0 0 0-.27-.06l-3.88.85a.31.31 0 0 0-.2.5Zm18.44-12.2 2 2.2a.19.19 0 0 0 .19 0l4.4-1.2a.18.18 0 0 0 .07-.32l-2.27-1.92a.22.22 0 0 0-.16 0l-4.16.92a.19.19 0 0 0-.07.32Zm-.84 3.96 1.93 2.09a.25.25 0 0 0 .25.07l4.24-1.16a.25.25 0 0 0 .1-.43l-2.12-1.81a.25.25 0 0 0-.22-.05l-4 .88a.25.25 0 0 0-.18.41Zm-5.73 1.58 1.93 2.08a.26.26 0 0 0 .25.08l4.24-1.16a.26.26 0 0 0 .1-.44l-2.16-1.81a.27.27 0 0 0-.21-.06l-4 .89a.25.25 0 0 0-.15.42Zm-23.2-2.28 2.13 2.26a.26.26 0 0 0 .24.07l4.57-1.06a.25.25 0 0 0 .11-.43l-2.39-2.26a.26.26 0 0 0-.24-.06l-4.3 1.06a.26.26 0 0 0-.12.42Zm-6.07 1.46 2 2.16a.31.31 0 0 0 .3.09l4.43-1a.32.32 0 0 0 .14-.54l-2.29-2.16a.3.3 0 0 0-.29-.07l-4.16 1a.32.32 0 0 0-.13.52Zm-6.57 5.1 1.51 2.42a.31.31 0 0 0 .34.14l5.11-1.14a.31.31 0 0 0 .19-.49l-1.68-2.34a.34.34 0 0 0-.32-.13l-5 1.06a.32.32 0 0 0-.15.48Zm-33.51.9 5.05-1.17a.29.29 0 0 1 .3.11l.89 1.17a.29.29 0 0 1-.17.46l-5.23 1.22a.29.29 0 0 1-.32-.14l-.71-1.22a.29.29 0 0 1 .19-.43Zm6.95-1.51 5-1.17a.28.28 0 0 1 .3.11l.89 1.16a.3.3 0 0 1-.17.47l-5.23 1.22a.3.3 0 0 1-.32-.14l-.71-1.22a.29.29 0 0 1 .24-.43Zm6.71-1.49 5-1.16a.28.28 0 0 1 .3.1l.89 1.17a.29.29 0 0 1-.17.46l-5.23 1.22a.29.29 0 0 1-.32-.14l-.71-1.21a.3.3 0 0 1 .24-.44Zm6.53-1.45 5-1.16a.28.28 0 0 1 .3.11l.89 1.16a.3.3 0 0 1-.17.47l-5.13 1.21a.28.28 0 0 1-.32-.13l-.71-1.22a.3.3 0 0 1 .14-.44Zm6.66-1.47 5-1.16a.33.33 0 0 1 .32.12l.86 1.13a.32.32 0 0 1-.18.5l-5.19 1.21a.32.32 0 0 1-.34-.15l-.69-1.18a.32.32 0 0 1 .22-.47Zm6.46-1.34 5-1.16a.3.3 0 0 1 .32.11l.86 1.13a.32.32 0 0 1-.18.5l-5.19 1.21a.32.32 0 0 1-.34-.15l-.7-1.18a.31.31 0 0 1 .23-.46Zm6.31-1.32 4.63-1.12a.3.3 0 0 1 .3.09l.9.94a.31.31 0 0 1-.15.52l-4.58 1.15a.29.29 0 0 1-.29-.08l-1-1a.32.32 0 0 1 .19-.5Zm6.14-1.42 4.77-1.16a.24.24 0 0 1 .24.07l1 1.05a.24.24 0 0 1-.12.41l-4.71 1.19a.26.26 0 0 1-.24-.07l-1.05-1.07a.25.25 0 0 1 .11-.42Zm6.12-1.43 4.77-1.16a.22.22 0 0 1 .24.07l1 1a.26.26 0 0 1-.12.42l-4.69 1.23a.27.27 0 0 1-.24-.07l-1.08-1.06a.25.25 0 0 1 .12-.43Zm6.12-1.26 4.77-1.16a.26.26 0 0 1 .24.07l1 1a.26.26 0 0 1-.12.42l-4.71 1.18a.26.26 0 0 1-.25-.07l-1.05-1.06a.26.26 0 0 1 .12-.38Zm5.8-1.39 4.92-1.19a.18.18 0 0 1 .18 0l1.09 1.15a.18.18 0 0 1-.09.31l-4.82 1.27a.17.17 0 0 1-.18 0l-1.16-1.17a.19.19 0 0 1 .06-.37Zm5.86-1.25 4.92-1.2a.21.21 0 0 1 .18.06l1.1 1.15a.19.19 0 0 1-.09.31l-4.86 1.22a.18.18 0 0 1-.18 0l-1.16-1.21a.19.19 0 0 1 .09-.33Zm5.85-1.34 4.54-1a.19.19 0 0 1 .19.07l.88 1.08a.18.18 0 0 1-.1.29l-4.27 1.13a.17.17 0 0 1-.18-.05l-1.16-1.17a.182.182 0 0 1 .1-.35Zm5.57-1.28 4.55-1a.18.18 0 0 1 .19.06l.88 1.08a.19.19 0 0 1-.1.3l-4.27 1.13a.22.22 0 0 1-.18 0l-1.16-1.18a.20012.20012 0 0 1 .09-.39Zm-77.54 23.95 1.68 2.39a.29.29 0 0 0 .31.12l8.75-2a.29.29 0 0 0 .16-.46l-1.85-2.45a.3.3 0 0 0-.31-.1l-8.56 2.09a.31.31 0 0 0-.18.41Zm2.65 3.23 1.68 2.66a.28.28 0 0 0 .31.13l10.57-2.51a.29.29 0 0 0 .16-.47l-2.09-2.59a.29.29 0 0 0-.3-.1l-10.15 2.44a.29.29 0 0 0-.18.44Zm2.39 3.52 2 2.89a.29.29 0 0 0 .31.12l14-3.46a.3.3 0 0 0 .17-.47l-2.26-2.89a.29.29 0 0 0-.3-.11l-13.84 3.47a.29.29 0 0 0-.08.45Zm32.05-3.16 2.56 3.09a.32.32 0 0 0 .32.1l30.8-7.69a.3.3 0 0 0 .14-.52l-3.14-3.13a.3.3 0 0 0-.3-.08l-30.22 7.73a.31.31 0 0 0-.16.5Zm31.8-7.97 3 3a.26.26 0 0 0 .25.07l6.31-1.69a.25.25 0 0 0 .11-.42l-3.13-3.07a.23.23 0 0 0-.24-.06l-6.2 1.71a.25.25 0 0 0-.1.46Zm15.25-1.91 1.37 1.46a.18.18 0 0 0 .18.05l4.68-1.26a.18.18 0 0 0 .08-.31l-1.67-1.57a.19.19 0 0 0-.18 0l-4.38 1.37a.18.18 0 0 0-.08.26Zm3.98-3.11 1.64 1.72a.17.17 0 0 0 .19.05l4.29-1.49a.18.18 0 0 0 .07-.31l-1.6-1.45a.2.2 0 0 0-.18 0l-4.33 1.21a.19.19 0 0 0-.08.27Z"/><path d="m521.53 400.46-1.18-1a.19.19 0 0 1 .06-.32l4.27-1.48a.18.18 0 0 1 .2 0l1.33 1.29a.19.19 0 0 1-.08.32l-4.44 1.15a.2.2 0 0 1-.16.04Zm4.38-2.64c.37.35 1 1.06 1.27 1.3a.19.19 0 0 0 .18.05l4.45-1.21a.19.19 0 0 0 .08-.32l-1.58-1.42a.17.17 0 0 0-.18 0l-4.14 1.33a.18.18 0 0 0-.08.27ZM513.42 395l2.39 2.3a.16.16 0 0 0 .17.05l11.49-3a.18.18 0 0 0 .07-.32l-2.75-2.34a.17.17 0 0 0-.17 0l-11.08 3a.18.18 0 0 0-.12.31Zm-.78-3.54 2.46 2.19a.21.21 0 0 0 .17 0l8.64-2a.19.19 0 0 0 .08-.33l-2.83-2.37a.21.21 0 0 0-.17 0l-8.27 2.23a.19.19 0 0 0-.08.28Zm.79-3.77 2.33 2.08a.18.18 0 0 0 .17 0l4.43-1a.2.2 0 0 0 .09-.33l-2.76-2.38a.19.19 0 0 0-.18 0l-4 1.28a.19.19 0 0 0-.08.35Zm-6.07-2.07 2.26 2.05a.2.2 0 0 0 .17 0l7-1.67a.19.19 0 0 0 .08-.32l-2.69-2.25a.21.21 0 0 0-.17 0l-6.6 1.87a.19.19 0 0 0-.05.32Z"/></g><path d="m428.03 402.54 1.53 2.46a.3.3 0 0 0 .31.13l5.17-1.15a.3.3 0 0 0 .17-.46l-1.71-2.38a.31.31 0 0 0-.3-.12l-5 1.07a.3.3 0 0 0-.17.45Zm6.76-1.42 1.52 2.46a.3.3 0 0 0 .32.13l5.16-1.15a.29.29 0 0 0 .17-.46l-1.7-2.38a.29.29 0 0 0-.3-.11l-5 1.07a.29.29 0 0 0-.17.44Zm6.54-1.42 1.53 2.46a.28.28 0 0 0 .31.13l5.17-1.15a.29.29 0 0 0 .17-.45l-1.72-2.39a.29.29 0 0 0-.3-.11l-5 1.07a.29.29 0 0 0-.16.44Zm6.46-1.4 1.51 2.43a.31.31 0 0 0 .34.14l5.12-1.14a.32.32 0 0 0 .18-.49l-1.7-2.36a.31.31 0 0 0-.32-.13l-5 1.06a.32.32 0 0 0-.13.49Zm-.53 3.76 1.53 2.47a.31.31 0 0 0 .31.13l5.16-1.15a.29.29 0 0 0 .17-.46l-1.7-2.38a.3.3 0 0 0-.3-.12l-5 1.07a.29.29 0 0 0-.17.44Zm-6.69 1.42 1.53 2.46a.32.32 0 0 0 .32.14l5.16-1.15a.29.29 0 0 0 .17-.46l-1.71-2.38a.29.29 0 0 0-.3-.12l-5 1.07a.3.3 0 0 0-.17.44Zm4.35 3.03 1.53 2.46a.29.29 0 0 0 .32.13l5.16-1.15a.29.29 0 0 0 .17-.46l-1.71-2.38a.28.28 0 0 0-.3-.11l-5 1.06a.3.3 0 0 0-.17.45Zm6.15 2.64 1.53 2.47a.29.29 0 0 0 .31.13l5.16-1.15a.3.3 0 0 0 .18-.46l-1.71-2.38a.3.3 0 0 0-.3-.12l-5 1.07a.29.29 0 0 0-.17.44Zm1.07 4.29 2.47 3.09a.29.29 0 0 0 .3.1l5.2-1.35a.3.3 0 0 0 .16-.47l-2.56-3.12a.29.29 0 0 0-.3-.1l-5.12 1.38a.3.3 0 0 0-.15.47Zm6.8-1.71 2.54 3.19a.29.29 0 0 0 .3.1l6.79-1.88a.3.3 0 0 0 .15-.47l-2.56-3.12a.29.29 0 0 0-.3-.1l-6.76 1.82a.29.29 0 0 0-.16.46Zm-13.45 3.35 2.47 3.09a.29.29 0 0 0 .3.1l5.2-1.35a.3.3 0 0 0 .16-.47l-2.56-3.12a.29.29 0 0 0-.3-.1l-5.12 1.38a.3.3 0 0 0-.15.47Zm-7.03 1.8 2.47 3.1a.29.29 0 0 0 .3.1l5.2-1.35a.3.3 0 0 0 .16-.47l-2.55-3.12a.31.31 0 0 0-.31-.1l-5.12 1.38a.29.29 0 0 0-.15.46Zm15.78-20.09 1.5 2.43a.32.32 0 0 0 .34.14l5.12-1.14a.31.31 0 0 0 .18-.49l-1.68-2.35a.31.31 0 0 0-.32-.12l-4.94 1.06a.31.31 0 0 0-.2.47Zm-.45 3.78 1.5 2.43a.32.32 0 0 0 .34.14l5.12-1.14a.31.31 0 0 0 .18-.49l-1.68-2.34a.31.31 0 0 0-.32-.13l-4.94 1.06a.31.31 0 0 0-.2.47Zm6.72-5.2 1.5 2.43a.32.32 0 0 0 .34.14l5.12-1.14a.31.31 0 0 0 .18-.49l-1.68-2.35a.32.32 0 0 0-.32-.12l-4.94 1.04a.31.31 0 0 0-.2.49Zm18.34-4 2.12 2.26a.28.28 0 0 0 .24.07l4.57-1.06a.25.25 0 0 0 .12-.43l-2.39-2.26a.27.27 0 0 0-.24-.06l-4.3 1.06a.25.25 0 0 0-.12.42Zm5.86-1.35 2.13 2.25a.24.24 0 0 0 .24.08l4.57-1.06a.25.25 0 0 0 .14-.41l-2.39-2.26a.26.26 0 0 0-.24-.06l-4.3 1.06a.26.26 0 0 0-.15.4Zm-5.74 5.01 2.13 2.26a.26.26 0 0 0 .24.07l4.57-1.06a.25.25 0 0 0 .12-.43l-2.4-2.26a.24.24 0 0 0-.23-.06l-4.3 1.06a.26.26 0 0 0-.13.42Zm-6.01 1.4 2 2.15a.31.31 0 0 0 .3.09l4.43-1a.31.31 0 0 0 .14-.53l-2.29-2.16a.28.28 0 0 0-.29-.08l-4.16 1a.31.31 0 0 0-.13.53Zm4.57 6.8 2 2.16a.31.31 0 0 0 .3.09l4.43-1a.32.32 0 0 0 .14-.54l-2.29-2.16a.3.3 0 0 0-.29-.07l-4.16 1a.32.32 0 0 0-.13.52Zm-6.27 1.42 2 2.16a.33.33 0 0 0 .3.09l4.42-1a.31.31 0 0 0 .15-.53l-2.29-2.16a.34.34 0 0 0-.29-.08l-4.17 1a.32.32 0 0 0-.12.52Zm-6.37 1.58 2 2.16a.34.34 0 0 0 .3.09l4.43-1a.3118.3118 0 0 0 .17-.6l-2.29-2.16a.3.3 0 0 0-.29-.08l-4.16 1a.31.31 0 0 0-.16.59Zm-6.73 1.33 2.06 2.19a.29.29 0 0 0 .28.08l4.47-1a.3.3 0 0 0 .14-.5l-2.33-2.2a.32.32 0 0 0-.27-.07l-4.21 1a.29.29 0 0 0-.14.5Zm13.04-6.85 2 2.16a.3.3 0 0 0 .3.09l4.42-1a.32.32 0 0 0 .15-.54l-2.28-2.18a.31.31 0 0 0-.29-.07l-4.17 1a.31.31 0 0 0-.13.54Zm-6.12 1.42 2 2.16a.33.33 0 0 0 .3.09l4.43-1a.31.31 0 0 0 .14-.53l-2.29-2.16a.33.33 0 0 0-.29-.08l-4.16 1a.32.32 0 0 0-.13.52Zm-6.55 1.39 2 2.15a.31.31 0 0 0 .3.1l4.42-1a.31.31 0 0 0 .15-.53l-2.29-2.16a.29.29 0 0 0-.29-.08l-4.17 1a.31.31 0 0 0-.12.52Zm-6.74 1.55 2.06 2.19a.31.31 0 0 0 .29.08l4.47-1a.3.3 0 0 0 .13-.5l-2.32-2.19a.3.3 0 0 0-.27-.08l-4.21 1a.3.3 0 0 0-.15.5Zm25.71-5.84 2 2.16a.33.33 0 0 0 .3.09l4.42-1a.31.31 0 0 0 .15-.53l-2.29-2.16a.34.34 0 0 0-.29-.08l-4.17 1a.32.32 0 0 0-.12.52ZM466.79 398l2 2.16a.3.3 0 0 0 .3.09l4.42-1a.31.31 0 0 0 .14-.53l-2.28-2.16a.34.34 0 0 0-.29-.08l-4.17 1a.31.31 0 0 0-.12.52Zm23.58-9.42 2.23 2.37a.19.19 0 0 0 .18.05l4.72-1.09a.19.19 0 0 0 .09-.32l-2.51-2.37a.2.2 0 0 0-.18 0l-4.44 1.1a.18.18 0 0 0-.09.26Zm5.7-1.26 2.23 2.37a.24.24 0 0 0 .18.05l4.72-1.09a.19.19 0 0 0 .09-.32l-2.5-2.37a.18.18 0 0 0-.17-.05l-4.45 1.1a.19.19 0 0 0-.1.31Zm5.87-1.35 2 2.2a.19.19 0 0 0 .19 0l4.4-1.2a.19.19 0 0 0 .07-.32l-2.27-1.92a.2.2 0 0 0-.16 0l-4.17.92a.18.18 0 0 0-.06.32Zm6.14 2.05 2 2.2a.17.17 0 0 0 .18.05l4.4-1.2a.18.18 0 0 0 .07-.32l-2.23-1.87a.18.18 0 0 0-.16 0l-4.16.92a.19.19 0 0 0-.1.22Zm-.74 3.99 1.93 2.09a.28.28 0 0 0 .25.07l4.24-1.16a.25.25 0 0 0 .1-.44l-2.15-1.81a.29.29 0 0 0-.22-.06l-4 .89a.26.26 0 0 0-.15.42Zm-5.01 5.07 1.93 2.09a.23.23 0 0 0 .25.07l4.28-1.16a.25.25 0 0 0 .1-.43l-2.19-1.77a.25.25 0 0 0-.22-.05l-4 .89a.25.25 0 0 0-.15.36Zm-6.02 1.58 1.93 2.09a.28.28 0 0 0 .25.07l4.24-1.16a.25.25 0 0 0 .1-.44l-2.15-1.81a.29.29 0 0 0-.22-.06l-4 .89a.26.26 0 0 0-.15.42ZM508 395.6l1.93 2.09a.24.24 0 0 0 .25.07l4.25-1.16a.25.25 0 0 0 .09-.43l-2.15-1.82a.25.25 0 0 0-.22-.05l-4 .88a.26.26 0 0 0-.15.42Zm-.98 4.51 2.91 2.61a.24.24 0 0 0 .24.05l4.21-1.19a.25.25 0 0 0 .1-.43l-3.14-2.75a.23.23 0 0 0-.24 0l-4 1.33a.25.25 0 0 0-.08.38Zm-10.23-9.23 2 2.2a.19.19 0 0 0 .18.06l4.4-1.2a.19.19 0 0 0 .07-.33l-2.27-1.91a.16.16 0 0 0-.16 0l-4.16.91a.19.19 0 0 0-.06.27Zm-5.65 1.38 1.93 2.09a.26.26 0 0 0 .25.07l4.25-1.16a.25.25 0 0 0 .09-.43l-2.15-1.82a.25.25 0 0 0-.22-.05l-4 .88a.26.26 0 0 0-.15.42Zm-1.16 4.04 1.93 2.08a.23.23 0 0 0 .25.07l4.24-1.15a.26.26 0 0 0 .1-.44l-2.16-1.82a.25.25 0 0 0-.22-.05l-4 .89a.25.25 0 0 0-.14.42Zm-5.99 1.45 1.93 2.08a.23.23 0 0 0 .25.07l4.24-1.15a.26.26 0 0 0 .1-.44l-2.16-1.82a.23.23 0 0 0-.21-.05l-4 .89a.25.25 0 0 0-.15.42Zm1.07-4.13 1.93 2.08a.23.23 0 0 0 .25.07l4.24-1.15a.26.26 0 0 0 .1-.44l-2.15-1.81a.29.29 0 0 0-.22-.06l-4 .89a.25.25 0 0 0-.15.42Zm5.01 6.39 1.93 2.09a.23.23 0 0 0 .25.07l4.24-1.15a.25.25 0 0 0 .1-.44l-2.15-1.82a.25.25 0 0 0-.22-.05l-4 .89a.25.25 0 0 0-.15.41Zm-5.88 1.6 1.83 2a.33.33 0 0 0 .31.09l4.09-1.12a.31.31 0 0 0 .12-.54l-2-1.72a.29.29 0 0 0-.27-.07l-3.88.86a.31.31 0 0 0-.2.5Zm18.44-12.21 2 2.2a.2.2 0 0 0 .19.06l4.4-1.2a.19.19 0 0 0 .07-.33l-2.27-1.91a.16.16 0 0 0-.16 0l-4.16.92a.18.18 0 0 0-.07.26Zm-.84 3.96 1.93 2.09a.23.23 0 0 0 .25.07l4.24-1.15a.26.26 0 0 0 .1-.44l-2.16-1.82a.25.25 0 0 0-.22-.05l-4 .89a.24.24 0 0 0-.14.41Zm-5.73 1.58 1.93 2.09a.25.25 0 0 0 .25.07l4.24-1.16a.25.25 0 0 0 .1-.43l-2.16-1.82a.23.23 0 0 0-.21-.05l-4 .88a.26.26 0 0 0-.15.42Zm-23.2-2.28 2.13 2.22a.24.24 0 0 0 .24.07l4.57-1.05a.25.25 0 0 0 .11-.43l-2.39-2.26a.27.27 0 0 0-.24-.07l-4.3 1.07a.25.25 0 0 0-.12.45Zm-6.07 1.5 2 2.15a.29.29 0 0 0 .3.09l4.43-1a.31.31 0 0 0 .14-.53l-2.29-2.16a.28.28 0 0 0-.29-.08l-4.16 1a.31.31 0 0 0-.13.53Zm-6.57 5.06 1.51 2.43a.32.32 0 0 0 .34.14l5.11-1.14a.32.32 0 0 0 .19-.49l-1.68-2.35a.31.31 0 0 0-.32-.12l-5 1.06a.31.31 0 0 0-.15.47Zm-33.51.9 5.05-1.17a.31.31 0 0 1 .3.11l.89 1.17a.29.29 0 0 1-.17.46l-5.23 1.19a.29.29 0 0 1-.32-.14l-.71-1.21a.3.3 0 0 1 .19-.41Zm6.95-1.51 5-1.17a.31.31 0 0 1 .3.11l.89 1.17a.29.29 0 0 1-.17.46l-5.23 1.22a.29.29 0 0 1-.32-.14l-.71-1.22a.29.29 0 0 1 .24-.43Zm6.71-1.44 5-1.17a.29.29 0 0 1 .3.11l.89 1.16a.3.3 0 0 1-.17.47l-5.23 1.22a.3.3 0 0 1-.32-.14l-.71-1.22a.29.29 0 0 1 .24-.43Zm6.53-1.49 5-1.17a.29.29 0 0 1 .3.11l.89 1.17a.3.3 0 0 1-.17.46l-5.13 1.22a.29.29 0 0 1-.32-.14l-.71-1.22a.29.29 0 0 1 .14-.43Zm6.66-1.47 5-1.16a.33.33 0 0 1 .32.11l.86 1.14a.31.31 0 0 1-.18.49l-5.19 1.21a.32.32 0 0 1-.34-.15l-.69-1.18a.32.32 0 0 1 .22-.46Zm6.46-1.33 5-1.16a.31.31 0 0 1 .32.12l.86 1.13a.31.31 0 0 1-.18.49l-5.19 1.21a.32.32 0 0 1-.34-.15l-.68-1.18a.31.31 0 0 1 .21-.46Zm6.31-1.33 4.63-1.13a.32.32 0 0 1 .3.09l.9.95a.3.3 0 0 1-.15.51l-4.58 1.15a.29.29 0 0 1-.29-.08l-1-1a.31.31 0 0 1 .19-.49Zm6.14-1.42 4.77-1.16a.27.27 0 0 1 .24.07l1 1a.25.25 0 0 1-.12.42l-4.71 1.18a.24.24 0 0 1-.24-.07l-1.05-1.07a.25.25 0 0 1 .11-.37Zm6.12-1.44 4.77-1.16a.26.26 0 0 1 .24.07l1 1a.26.26 0 0 1-.12.42l-4.69 1.23a.24.24 0 0 1-.24-.07l-1.05-1.07a.25.25 0 0 1 .09-.42Zm6.12-1.25 4.77-1.16a.24.24 0 0 1 .24.07l1 1a.26.26 0 0 1-.12.42l-4.71 1.19a.29.29 0 0 1-.25-.07l-1.05-1.01a.25.25 0 0 1 .12-.44Zm5.8-1.39 4.92-1.2a.18.18 0 0 1 .18 0l1.09 1.16a.19.19 0 0 1-.09.31l-4.82 1.27a.23.23 0 0 1-.18 0l-1.16-1.18a.19.19 0 0 1 .06-.36Zm5.86-1.26 4.92-1.19a.18.18 0 0 1 .18 0l1.1 1.15a.18.18 0 0 1-.09.31l-4.86 1.22a.18.18 0 0 1-.18-.05l-1.16-1.17a.19.19 0 0 1 .09-.27Zm5.85-1.34 4.54-1a.17.17 0 0 1 .19.06l.88 1.08a.19.19 0 0 1-.1.3l-4.27 1.13a.23.23 0 0 1-.18-.05l-1.16-1.18a.18.18 0 0 1 .1-.34Zm5.57-1.28 4.55-1a.2.2 0 0 1 .19.06l.88 1.08a.19.19 0 0 1-.1.3l-4.27 1.13a.17.17 0 0 1-.18-.05l-1.16-1.17a.19.19 0 0 1 .09-.35Zm-77.54 23.97 1.68 2.39a.29.29 0 0 0 .31.12l8.75-2a.29.29 0 0 0 .16-.46l-1.85-2.44a.29.29 0 0 0-.31-.11l-8.56 2.1a.3.3 0 0 0-.18.4Zm2.65 3.21 1.68 2.67a.29.29 0 0 0 .31.13l10.57-2.52a.29.29 0 0 0 .16-.47l-2.09-2.59a.31.31 0 0 0-.3-.1l-10.15 2.41a.29.29 0 0 0-.18.47Zm2.39 3.53 2 2.89a.29.29 0 0 0 .31.11l14-3.46a.29.29 0 0 0 .17-.46l-2.26-2.9a.29.29 0 0 0-.3-.1l-13.84 3.46a.3.3 0 0 0-.08.46Zm32.05-3.16 2.56 3.08a.32.32 0 0 0 .32.1l30.8-7.68a.31.31 0 0 0 .14-.53l-3.14-3.12a.33.33 0 0 0-.3-.09l-30.22 7.73a.32.32 0 0 0-.16.51Zm31.8-7.97 3 3a.26.26 0 0 0 .25.06l6.31-1.69a.25.25 0 0 0 .11-.42l-3.13-3.06a.24.24 0 0 0-.24-.07l-6.2 1.72a.25.25 0 0 0-.1.46Zm15.25-1.87 1.37 1.45a.18.18 0 0 0 .18 0l4.68-1.25a.19.19 0 0 0 .08-.32l-1.67-1.56a.17.17 0 0 0-.18-.05l-4.38 1.37a.1844.1844 0 0 0-.08.36Zm3.98-3.15 1.64 1.72a.17.17 0 0 0 .19 0l4.29-1.48a.19.19 0 0 0 .07-.32l-1.6-1.44a.2.2 0 0 0-.18-.05l-4.33 1.22a.19.19 0 0 0-.08.35Zm3.16 2.97-1.18-.95a.19.19 0 0 1 .06-.33l4.27-1.48a.2.2 0 0 1 .2 0l1.33 1.3a.18.18 0 0 1-.08.31l-4.44 1.15a.2.2 0 0 1-.16 0Zm4.38-2.64c.37.36 1 1.06 1.27 1.3a.17.17 0 0 0 .18 0l4.45-1.21a.18.18 0 0 0 .08-.31l-1.58-1.43a.2.2 0 0 0-.18 0l-4.14 1.33a.19.19 0 0 0-.08.32Zm-12.49-2.81 2.39 2.3a.17.17 0 0 0 .17 0l11.49-3a.19.19 0 0 0 .07-.33l-2.79-2.3a.18.18 0 0 0-.17 0l-11.08 3a.19.19 0 0 0-.08.33Zm-.78-3.55 2.46 2.19a.18.18 0 0 0 .17 0l8.64-2a.19.19 0 0 0 .08-.33l-2.83-2.36a.18.18 0 0 0-.17 0l-8.27 2.22a.19.19 0 0 0-.08.28Zm.79-3.77 2.33 2.08a.22.22 0 0 0 .17.05l4.43-1a.19.19 0 0 0 .09-.32l-2.76-2.38a.17.17 0 0 0-.18 0l-4 1.29a.18.18 0 0 0-.08.28Zm-6.07-2.05 2.26 2a.17.17 0 0 0 .17 0l7-1.66a.19.19 0 0 0 .08-.33l-2.69-2.25a.17.17 0 0 0-.17 0l-6.6 1.86a.19164.19164 0 0 0-.05.38Z" fill="#464a5f"/><path d="M446.39 276.06a198.8 198.8 0 0 0-12.13 16 50.62 50.62 0 0 1-4.91 6.55c-2.59 2.73-5.83 4.78-8.48 7.46-3.07 3.11-5.25 7-7.39 10.79a79.07 79.07 0 0 0-4 7.83 39.59 39.59 0 0 0-1.75 25.37c.81 3 2.43 6.38 5.49 7.09 2.4.56 4.8-.72 6.9-2 2.26-1.37 4.58-2.87 5.91-5.16a16.65 16.65 0 0 0 1.72-6.31l2.63-19.25a22.23 22.23 0 0 1 1.39-6c1.51-3.44 4.65-5.89 7.94-7.7s6.84-3.16 10-5.22c2.94-1.92 5.47-4.42 8.41-6.34 3.61-2.37 7.8-3.84 11.09-6.63s5.52-7.63 3.5-11.44a13.35 13.35 0 0 0-3.61-3.81l-6.43-5.18c-1.37-1.1-4.2-4.43-5.93-4.65s-4.35 2.4-5.51 3.43a48.66 48.66 0 0 0-4.84 5.17Z" fill="#fbbebe"/><path d="M424.44 246.8a21.2 21.2 0 0 1 4 1c1.31.53 2.51 1.33 3.83 1.83a45.9 45.9 0 0 0 5.21 1.24 7 7 0 0 1 4.41 2.8 13.3 13.3 0 0 0-7.35 4.75 22.23 22.23 0 0 0-3.07 6.07 68.25 68.25 0 0 0-4 20.08c-.06 1.2 0 2.58.9 3.37-4.45-3.61-10.74-3.5-16.46-3.24a4.1 4.1 0 0 1-1.6-.13 3.58 3.58 0 0 1-1.41-1.16 14 14 0 0 1-3-6.72c-.54-3.53.28-7.11 1-10.61a54.67 54.67 0 0 0 1.3-10.27c.05-3.52-1.06-6.36-1.64-9.71-.71-4.05 3.81-2.06 6.23-1.59Z" fill="#1bb1dc"/></svg>