<svg data-name="Layer 1" xmlns="http://www.w3.org/2000/svg" width="1145.7" height="770.6"><defs><linearGradient id="a" x1="736.5" y1="828.5" x2="736.5" y2="482.1" gradientTransform="matrix(-1 0 0 1 1540 0)" gradientUnits="userSpaceOnUse"><stop offset="0" stop-color="gray" stop-opacity=".3"/><stop offset=".5" stop-color="gray" stop-opacity=".1"/><stop offset="1" stop-color="gray" stop-opacity=".1"/></linearGradient></defs><ellipse cx="771.9" cy="760.6" rx="142" ry="10" fill="#1bb1dc" opacity=".1"/><path d="M1145.7 454.1a268 268 0 0 1-310.5 264.5H410.5A364 364 0 0 1 361 722q-17.8 0-35.2-1.7A360.6 360.6 0 0 1 0 361a361 361 0 0 1 704.5-111.2A266.8 266.8 0 0 1 878 186.2c147.9 0 267.8 120 267.8 267.9Z" fill="#1bb1dc" opacity=".1"/><path d="M1042.8 665.2a268.3 268.3 0 0 1-207.6 53.4H410.5A364 364 0 0 1 361 722q-17.8 0-35.2-1.7a361.2 361.2 0 0 1-309-250.2c34.5-73.9 123.4-126.5 227.5-126.5 101.6 0 188.6 50 224.9 120.9a301.8 301.8 0 0 1 54.2-4.9c105.2 0 194.7 53.7 228.5 128.7a295.6 295.6 0 0 1 86.5-12.7c85.8 0 161.2 35.7 204.4 89.6Z" fill="#1bb1dc" opacity=".1"/><path d="M351.7 673.2c0 25.6-9.8 39.6-26 47.1a359 359 0 0 1-169-61.6 97 97 0 0 1 7.4-25.2l45.8 14.2-40.8-24a98.1 98.1 0 0 1 20.9-25l76.9 24-60.3-35.4A98 98 0 0 1 346 640l.2.6.5 1.4 1.5 4.8.4 1.7.5 1.7.3 1.5.2.9.3 1.4a78.2 78.2 0 0 1 1.1 6.8l.3 2.2v.6l.2 2a2.1 2.1 0 0 1 0 .2l.1 2.4.1 2.4a1.7 1.7 0 0 1 0 .2l.1 2.4Z" fill="#1bb1dc"/><path d="M351.7 673.2c0 25.6-9.8 39.6-26 47.1a358.4 358.4 0 0 1-113.4-30.2l1.7-1.1c7.4-5 15-10 23.8-11.6 7.6-1.5 15.5-.3 23.3-.7a54.7 54.7 0 0 0 35.8-16.4c5.6-5.8 10-12.8 16.7-17.2a36.5 36.5 0 0 1 25-4.6 66.1 66.1 0 0 1 7.3 1.5l.2.6.5 1.3 1.5 4.9.4 1.7.5 1.7.3 1.5.2.9.3 1.4a78.2 78.2 0 0 1 1.1 6.8l.3 2.2v.6l.2 2a2.1 2.1 0 0 1 0 .2l.1 2.4.1 2.3a1.7 1.7 0 0 1 0 .3l.1 2.4Z" opacity=".1"/><path d="M935.5 689.9a37 37 0 0 1-.8 7.7l-.3 1.4c-2.9 11.4-10.9 19.7-20.4 20.3h-1c-10.1 0-18.7-8.7-21.5-20.7l-.2-1a37 37 0 0 1-.8-7.8c0-16.3 10-29.5 22.5-29.5s22.5 13.3 22.5 29.6Z" fill="#3f3d56"/><path d="M935.5 689.9a37 37 0 0 1-.8 7.7l-.3 1.4h-1a45.8 45.8 0 0 1-7.4-1 45 45 0 0 1-6.5 1.5 45.9 45.9 0 0 1-5.2.5h-1.7a46.4 46.4 0 0 1-6.2-.4 45.2 45.2 0 0 1-9.6-2.4 45.6 45.6 0 0 1-5.3 1.4l-.2-1a37 37 0 0 1-.8-7.8c0-16.2 10-29.4 22.5-29.4s22.5 13.2 22.5 29.5Z" opacity=".1"/><path d="M983.5 635a45.5 45.5 0 0 0-4.9-20.6l-26.5 8.2 23.3-13.6a45.7 45.7 0 0 0-34.4-19.6 45.6 45.6 0 0 0-3.6-4.7l-38 11.8 31.2-18.3a45.7 45.7 0 0 0-72 24.3l32.6 37.5-35.4-25.5a45.7 45.7 0 0 0 41 80.7 46 46 0 0 0 29.3.8 45.8 45.8 0 0 0 55.5-44.7v-3a45.6 45.6 0 0 0 1.9-13.3Z" fill="#1bb1dc"/><path d="M982.7 643.5a121.9 121.9 0 0 0-42.3-.6c-16 2.7-32.2 8.5-47.7 4.2-9.1-2.4-17-8.2-26-11.4a49.2 49.2 0 0 0-26.7-1.6 45.8 45.8 0 0 0 56.7 61 46 46 0 0 0 29.3.9 45.8 45.8 0 0 0 55.6-44.7v-3a45.2 45.2 0 0 0 1.1-4.8Z" opacity=".1"/><rect x="707" y="250.4" width="8.9" height="73" rx="2.3" fill="#3a3768"/><rect x="412.5" y="193.2" width="5" height="24" rx="2.3" fill="#3a3768"/><rect x="412.3" y="237.2" width="5.6" height="41.8" rx="2.3" fill="#3a3768"/><rect x="412.4" y="293.7" width="5.3" height="42.2" rx="2.3" fill="#3a3768"/><rect x="415.3" y="113.8" width="296.4" height="602.4" rx="39" fill="#3f3d56"/><rect x="534.9" y="131.8" width="41.4" height="8.4" rx="3.9" fill="#e6e8ec"/><circle cx="587.4" cy="136" r="4.8" fill="#e6e8ec"/><path d="M669.9 129.5h-34v4a19.4 19.4 0 0 1-19.3 19.4H508.4a19.4 19.4 0 0 1-19.4-19.3v-4.1h-31.8a23.5 23.5 0 0 0-23.6 23.5v524a23.5 23.5 0 0 0 23.6 23.5h212.7a23.5 23.5 0 0 0 23.5-23.6V153a23.5 23.5 0 0 0-23.5-23.5Z" fill="#1bb1dc"/><path stroke="#1bb1dc" stroke-miterlimit="10" opacity=".1" d="M444.5 223.5h149v24h-149z"/><circle cx="480.5" cy="355.5" r="32" stroke="#1bb1dc" stroke-miterlimit="10" opacity=".1"/><path d="M471.5 349.5v12h8l10 10.4V339l-10 10.5Z" fill="#fff"/><circle cx="565.5" cy="355.5" r="32" stroke="#1bb1dc" stroke-miterlimit="10" opacity=".1"/><path d="M565.5 368.8a3.8 3.8 0 1 0 3.8 3.9 3.8 3.8 0 0 0-3.8-3.9Zm-11.2-34.3a3.8 3.8 0 1 0 3.8 3.8 3.8 3.8 0 0 0-3.8-3.8Zm0 11.4a3.8 3.8 0 1 0 3.8 3.8 3.8 3.8 0 0 0-3.8-3.8Zm0 11.5a3.8 3.8 0 1 0 3.8 3.8 3.8 3.8 0 0 0-3.8-3.8Zm22.4-15.3a3.8 3.8 0 1 0-3.8-3.8 3.8 3.8 0 0 0 3.8 3.8Zm-11.2 15.3a3.8 3.8 0 1 0 3.8 3.8 3.8 3.8 0 0 0-3.8-3.8Zm11.2 0a3.8 3.8 0 1 0 3.8 3.8 3.8 3.8 0 0 0-3.8-3.8Zm0-11.5a3.8 3.8 0 1 0 3.8 3.8 3.8 3.8 0 0 0-3.8-3.8Zm-11.2 0a3.8 3.8 0 1 0 3.8 3.8 3.8 3.8 0 0 0-3.8-3.8Zm0-11.4a3.8 3.8 0 1 0 3.8 3.8 3.8 3.8 0 0 0-3.8-3.8Z" fill="#fff"/><g opacity=".4"><circle cx="480.5" cy="451.5" r="32" stroke="#1bb1dc" stroke-miterlimit="10" opacity=".1"/><path d="M495.5 453.5h-13v13h-4v-13h-13v-4h13v-13h4v13h13Z" fill="#fff"/></g><circle cx="650.5" cy="355.5" r="32" stroke="#1bb1dc" stroke-miterlimit="10" opacity=".1"/><path d="M650.5 336a18.2 18.2 0 0 0-18 18.4v14.4a6 6 0 0 0 6 6.2h6v-16.5h-8v-4a14 14 0 1 1 28 0v4h-8V375h6a6 6 0 0 0 6-6.2v-14.4a18.2 18.2 0 0 0-18-18.4Z" fill="#fff"/><g opacity=".4"><circle cx="565.5" cy="451.5" r="32" stroke="#1bb1dc" stroke-miterlimit="10" opacity=".1"/><path d="M577.5 448v-8a2.3 2.3 0 0 0-2.3-2.2h-28.4a2.3 2.3 0 0 0-2.3 2.2v23a2.3 2.3 0 0 0 2.3 2.2h28.4a2.3 2.3 0 0 0 2.3-2.3v-8l9 9.2v-25Z" fill="#fff"/></g><circle cx="650.5" cy="451.5" r="32" stroke="#1bb1dc" stroke-miterlimit="10" opacity=".1"/><path d="M649 459.7a11.4 11.4 0 0 1-11.3 0c-4.5 1.4-7.2 5.8-8.2 9.8h27.6c-1-4-3.7-8.4-8.1-9.8Zm-5.7-21a10 10 0 1 0 10 10 10 10 0 0 0-10-10Zm0 17.5a7.7 7.7 0 0 1-7-4.7h14a7.7 7.7 0 0 1-7 4.7Z" fill="#fff"/><path d="M656.8 463.5h14.7a12.3 12.3 0 0 0-8.1-9 11.5 11.5 0 0 1-5.7 1.4 11.3 11.3 0 0 1-3.9-.6 13.5 13.5 0 0 1-2.6 3.3 12.8 12.8 0 0 1 5.6 4.9Zm-1.5-17.3h9.4a7.7 7.7 0 0 1-7 4.7 7.3 7.3 0 0 1-2.3-.4 12 12 0 0 1-.6 2.4 10 10 0 1 0 3-19.4 10 10 0 0 0-8.4 4.6 12.3 12.3 0 0 1 5.9 8.1Z" fill="#fff"/><circle cx="565.5" cy="579.5" r="32" fill="#ff6f61"/><path d="M549.1 587.4a23.6 23.6 0 0 1 6-4.1 1.9 1.9 0 0 0 1-1.7l.2-6.3a30 30 0 0 1 18.7.5l-.2 6.2a2 2 0 0 0 1 1.8 21.9 21.9 0 0 1 5.8 4.4 2 2 0 0 0 2.8.1l5.1-4.8a2 2 0 0 0 0-2.8 34 34 0 0 0-48-1.3 2 2 0 0 0 0 2.8l4.8 5.1a2 2 0 0 0 2.8 0Z" fill="#fff"/><circle cx="654.5" cy="243.5" r="25" stroke="#1bb1dc" stroke-miterlimit="10" opacity=".1"/><path d="M660.2 249a11.5 11.5 0 0 1-11.3 0c-4.4 1.4-7.1 5.9-8.1 9.8h27.5c-1-3.9-3.7-8.4-8.1-9.7Zm-5.7-21a10 10 0 1 0 10 10 10 10 0 0 0-10-10Zm0 17.6a7.7 7.7 0 0 1-7-4.8h14a7.7 7.7 0 0 1-7 4.8Z" fill="#fff"/><path d="M404.6 66.4c-2.3-1.4-5.5 0-7.1 2.1s-2 5-2.4 7.6c-1 6-1.6 12.7 2.4 17.2a55.8 55.8 0 0 0-46-37.1m457.1 336.4c-1.5-.8-3.5 0-4.5 1.4a10.8 10.8 0 0 0-1.6 4.9c-.6 3.8-1 8.2 1.6 11a35.9 35.9 0 0 0-29.6-23.9M299.1 263.4c-1.5-.9-3.5 0-4.5 1.3a10.8 10.8 0 0 0-1.6 5c-.6 3.7-1 8 1.6 11a35.9 35.9 0 0 0-29.6-24" fill="none" stroke="#1bb1dc" stroke-miterlimit="10" stroke-width="3" opacity=".1"/><path d="M724 795.7c1 1.9 2.9 3 4.7 4a222.7 222.7 0 0 0 39.6 17.9 2.6 2.6 0 0 0 3.8-1.5c1.6-2.7 3.3-7 2.9-10.5a5.9 5.9 0 0 0 2.6-3.6 17.5 17.5 0 0 1 2.5-5c1.8-2.8 4-5.6 4.4-9a15.7 15.7 0 0 1 .3-3.7c.6-1.6 2-2.6 3-3.9 1.7-2 2.5-4.5 3.2-7 3.2-10.5 6.3-20.9 8.9-31.5.8-3.4 1.6-6.9 2.7-10.2 1-3 2.3-5.7 3.6-8.5a226.3 226.3 0 0 1 15.8-29.3 78.5 78.5 0 0 0 3.4 9.2l2 4.6c2.7 5.9 2.2 13.4 5.4 18.9l4 6.7a13.6 13.6 0 0 1 1.7 3.6l.4 2.7c.6 4 3.9 6.8 5.7 10.4 1.6 3.2 2 7 3 10.6 2.4 8.3 8.2 15.5 8.8 24.1a62.4 62.4 0 0 1-.2 7 59.4 59.4 0 0 0 .8 12.2 4.7 4.7 0 0 0 .3 1.2 35.3 35.3 0 0 1-22 14.8c-1.7.4-3.6.7-4.5 2.3-1 1.9.1 4.4 2 5.4s4 1 6 .7a217.9 217.9 0 0 0 42.4-7.8 3.6 3.6 0 0 0 1.8-1 3.7 3.7 0 0 0 .6-2.5 21 21 0 0 0-2.2-9.3l1-.3c.6-4-1.5-7.9-3.1-11.6-2.8-6.5-4.3-13.5-6.5-20.2-4.2-13-11-25.1-12.7-38.7-.5-3.8-1.6-7.6-1.8-11.3a146 146 0 0 0-2.7-22.9c-1.4-6-3.6-12-5-18.2s-1.9-12.7.2-18.6l1.9-5c2-6.7 0-13.8-1.9-20.5l-1.8-6.2-2.5-8.3.4-.3c1.7-2 1.7-5 3-7.5.6-1.2 1.5-2.2 2.2-3.4a12.6 12.6 0 0 0 .9-8.4c-.5-2.8-1.6-5.4-2.4-8.1a44.5 44.5 0 0 1-.5-23c.8-3.3 2-6.4 2.2-9.8a28.4 28.4 0 0 0-.6-6.6c-1.6-8.4-4.6-17-10.8-22.5-3.3-3-7.7-5.6-8-10.2a2.5 2.5 0 0 0-1.7 0 17.8 17.8 0 0 1-.6-3.2 4 4 0 0 0 1 0 1.8 1.8 0 0 0 .7-.2 2.1 2.1 0 0 0 .4-.3 6.5 6.5 0 0 0 1-1.3l1-2c.3-.5.9-1.2 1.3-2l3.2-6 .3-.7.1-.2.2-.5.1-.3.2-.3.1-.4.2-.3a3.4 3.4 0 0 0 .1-.4l.1-.3.2-.4v-.4l.2-.3v-.4l.2-.3v-.4l.2-.4v-.3l.1-.4v-3.8a8 8 0 0 0-.2-1.2 12 12 0 0 0-3.9-5.9 24.6 24.6 0 0 0-6-3.6 4.4 4.4 0 0 1-1.4-.9 11.1 11.1 0 0 1-1.2-2.2c-.9-1.6-2.6-2.3-4.3-2.7s-3.4-.7-4.8-1.7a1.3 1.3 0 0 0-.4-.2 1 1 0 0 0-.6 0l-3.9 1.8a1.8 1.8 0 0 0-2-1.5 5.1 5.1 0 0 0-2.6 1.4 1 1 0 0 1-.2-.9l-3 2c-.4.2-1 .3-1-.2a31.3 31.3 0 0 0-4.3 6 12.9 12.9 0 0 0-1 2.1v.5l-.2.5v.6a5.5 5.5 0 0 0 0 .6 3.2 3.2 0 0 0 1.8 2.6 3 3 0 0 0 1.2.2 15.5 15.5 0 0 0 2.5-.5 5.9 5.9 0 0 1 .8-.1 2.6 2.6 0 0 1 .4 0 2.2 2.2 0 0 1 1.5.5 16.8 16.8 0 0 0-7 13.8 17.3 17.3 0 0 0 1.8 7.6 2.4 2.4 0 0 0-1.3 2.3 7.7 7.7 0 0 1-.4-2.4c-1.6-.3-2.8 1.6-3.4 3.3a80.5 80.5 0 0 0-2.8 11.4l-1.5 7.7-1.4 8a61 61 0 0 0 1 20.8l-.4.7c-.3.7-1.1 1.4-1.2 2.3-.5 5 2.7 9.7 5.7 13.7a3 3 0 0 0 1 1 2.7 2.7 0 0 0 1.4.1 36 36 0 0 0 3.6-.3l.3 2c.8 7.1 2.3 14.3 2.3 21.6s-1.4 14.5 1.4 21c.4 1 1.3 2 1.4 3.1h.2a65.3 65.3 0 0 0-4.1 10.7c-1.1 4.4-1.4 9-2.6 13.2-1 3.7-2.8 7-4.2 10.6a58 58 0 0 0-4 18.1 22.6 22.6 0 0 1-1.7 8.3 84.5 84.5 0 0 0-4.3 9.8c-2 6-5.3 11.6-6 17.8-.3 3.6.2 7.4-1.3 10.6-.6 1.3-1.4 2.4-2.1 3.6a28.6 28.6 0 0 0-2.3 6l-10 32.8a10.7 10.7 0 0 1-2.3 4.9c-1 .9-2.2 1.3-3 2.2-1.4 1.5-1.8 3.5-1.8 5.7a11.8 11.8 0 0 0-3 1 33.7 33.7 0 0 1-26.5 0c-1.6-.7-3.5-1.5-5-.8-1.9 1-2.2 3.8-1.2 5.7ZM802.9 547a21.6 21.6 0 0 1 3.3-7.6l6.7-11.1.6-.6.5 1.5a35 35 0 0 1 .9 3.9 18.8 18.8 0 0 1 .3 5h-.2a5.3 5.3 0 0 0-1.9 2.2 4.3 4.3 0 0 0 0 2.6v.1c.4 1.3 1 2.7.8 4.1-.2 1.7-1.6 3-2.4 4.4-2 3.5-1.4 8.8-4.7 11a4.7 4.7 0 0 1-3.3-2.6c.3-4.2-1.3-8.6-.6-12.9Z" transform="translate(-27.1 -64.7)" fill="url(#a)"/><path d="M857.8 752.5a3.5 3.5 0 0 1-.7 2.5 3.9 3.9 0 0 1-1.9 1 238.6 238.6 0 0 1-44.1 7.7c-2.2.1-4.4.3-6.3-.7s-3.2-3.5-2-5.4c1-1.5 3-1.9 4.7-2.2a37 37 0 0 0 23.2-15 10.7 10.7 0 0 1 2.5-3c2-1.2 4.5-1 6.7-.5 4 .8 9.3 1.8 13 3.8s4.8 8 4.9 11.8Z" fill="#3f3d56"/><path d="M857.8 752.5a3.5 3.5 0 0 1-.7 2.5 3.9 3.9 0 0 1-1.9 1 238.6 238.6 0 0 1-44.1 7.7c-2.2.1-4.4.3-6.3-.7s-3.2-3.5-2-5.4c1-1.5 3-1.9 4.7-2.2a37 37 0 0 0 23.2-15 10.7 10.7 0 0 1 2.5-3c2-1.2 4.5-1 6.7-.5 4 .8 9.3 1.8 13 3.8s4.8 8 4.9 11.8Z" opacity=".1"/><path d="M741.6 751.5a3.5 3.5 0 0 1-2 1.8 3.8 3.8 0 0 1-2-.3 238.8 238.8 0 0 1-41.3-17.6c-1.8-1-3.8-2.1-4.9-4s-.7-4.6 1.2-5.6c1.7-.7 3.6 0 5.2.7a36.9 36.9 0 0 0 27.6 0 10.7 10.7 0 0 1 3.7-1c2.3 0 4.3 1.5 6 3.2 3 2.8 6.9 6.6 8.8 10.2s-.3 9.4-2.3 12.6Z" fill="#3f3d56"/><path d="M741.6 751.5a3.5 3.5 0 0 1-2 1.8 3.8 3.8 0 0 1-2-.3 238.8 238.8 0 0 1-41.3-17.6c-1.8-1-3.8-2.1-4.9-4s-.7-4.6 1.2-5.6c1.7-.7 3.6 0 5.2.7a36.9 36.9 0 0 0 27.6 0 10.7 10.7 0 0 1 3.7-1c2.3 0 4.3 1.5 6 3.2 3 2.8 6.9 6.6 8.8 10.2s-.3 9.4-2.3 12.6Z" opacity=".1"/><path d="M817.8 560c1.5 4 2.7 8 4 12l1.9 6.2c2 6.6 4 13.6 1.9 20.2l-2 5c-2.1 5.8-1.6 12.4-.2 18.4s3.7 12 5.2 18c1.7 7.4 2.2 15 2.7 22.5.3 3.7 1.5 7.5 2 11.2 1.7 13.4 8.8 25.4 13.2 38.2 2.3 6.6 3.9 13.5 6.8 19.9 1.6 3.7 3.8 7.5 3.2 11.4a31.3 31.3 0 0 1-24.8-1.1 2.5 2.5 0 0 1-1.7-2.3 55.2 55.2 0 0 1-.8-12 58.5 58.5 0 0 0 .2-7c-.6-8.4-6.7-15.6-9.1-23.8-1-3.4-1.5-7.2-3.2-10.4-1.9-3.5-5.3-6.3-6-10.2l-.4-2.7a13.3 13.3 0 0 0-1.8-3.5l-4-6.7c-3.4-5.4-3-12.8-5.6-18.6l-2.2-4.6a76.4 76.4 0 0 1-3.6-9 218.2 218.2 0 0 0-16.5 28.8 89.7 89.7 0 0 0-3.7 8.4c-1.2 3.3-2 6.7-2.8 10-2.7 10.5-6 20.8-9.3 31-.7 2.6-1.6 5-3.3 7-1 1.3-2.5 2.3-3 4a14.7 14.7 0 0 0-.5 3.5c-.3 3.4-2.6 6.2-4.6 9a16.9 16.9 0 0 0-2.5 5 5.9 5.9 0 0 1-8 3.8 17.6 17.6 0 0 1-2.4-1.4 42.1 42.1 0 0 1-5.3-4 31 31 0 0 1-4-4.7 2.3 2.3 0 0 1 1.1-3.5c-.2-2.8-.3-6 1.7-7.9 1-.9 2.2-1.3 3.2-2.2a10.4 10.4 0 0 0 2.5-4.8l10.2-32.2a27.4 27.4 0 0 1 2.4-6c.7-1.2 1.6-2.2 2.2-3.5 1.6-3.2 1-6.9 1.4-10.4.7-6.2 4.1-11.8 6.3-17.6a81.5 81.5 0 0 1 4.4-9.7 21.2 21.2 0 0 0 1.7-8.2 54.7 54.7 0 0 1 4.2-17.8c1.5-3.5 3.3-6.8 4.4-10.5 1.3-4.2 1.5-8.7 2.7-13a62.5 62.5 0 0 1 4.3-10.6c1.4-3 3-6 5.3-8.4 4-3.8 9.7-5 15.2-5.2s11.5.6 17 0Z" fill="#3f3d56"/><path d="M784.2 482.2q10.6-6.3 20.9-13a13.3 13.3 0 0 1-2.6-7.6v-.3c-.1-2.7.9-5-2.5-4.7a64.4 64.4 0 0 0-9.6 2c-1 .3-8.7 3.1-9 2.8a19.2 19.2 0 0 1 3.8 7.1 34.2 34.2 0 0 1 .9 3.9c.7 3.4.7 7.4-1.9 9.8Z" fill="#a0616a"/><path d="M774.8 528.3c.9 7 2.4 14.2 2.4 21.3s-1.5 14.3 1.4 20.7c.5 1.1 1.4 2 1.5 3.1 4 .7 8-1.2 11.7-2.5a47.6 47.6 0 0 1 10.8-2.4c3-.3 6.1-.3 9-1a14.1 14.1 0 0 0 8-4c1.7-2 1.7-5 3-7.3l2.3-3.4a11.9 11.9 0 0 0 1-8.2 83.6 83.6 0 0 0-2.5-8 41.5 41.5 0 0 1-.5-22.7c.8-3.2 2-6.4 2.2-9.6a26.7 26.7 0 0 0-.6-6.6 38 38 0 0 0-11.2-22.2c-3.4-2.9-8-5.5-8.4-10-1.5-.5-3.1.5-4.4 1.4l-14.2 10.5a5.3 5.3 0 0 0-2 2.1c-1 2.1 1.1 4.5.8 6.8-.2 1.6-1.7 2.8-2.5 4.3-2.1 3.4-1.5 8.6-4.9 10.8l-.8 2a48.6 48.6 0 0 0-2.5 10.8 56.2 56.2 0 0 0 .4 14Z" fill="#3f3d56"/><path d="M781.4 461.5a19.2 19.2 0 0 1 3.8 7 15.8 15.8 0 0 0 3.5.4c5.8 0 9.7-6.7 12.6-11.3-.1-2.6 2.1-1.3-1.3-1a64.4 64.4 0 0 0-9.6 2c-1 .3-8.7 3.2-9 2.9Z" opacity=".1"/><circle cx="788.6" cy="451.2" r="16.4" fill="#a0616a"/><rect x="807.9" y="509.6" width="12.3" height="23.9" rx="3.3" transform="rotate(-132.4 786.2 495.1)" fill="#3f3d56"/><rect x="807.9" y="509.6" width="12.3" height="23.9" rx="3.3" transform="rotate(-132.4 786.2 495.1)" opacity=".1"/><circle cx="789.7" cy="454.2" r="1.4" fill="#fff"/><path d="M774.8 528.3c12.6-1.9 24-9.4 32.8-18.8a15 15 0 0 0 3.7-5.6 16.8 16.8 0 0 0 .5-5.4l-.2-7.2c-.1-3.2-.3-6.4-1.8-9.2s-5-4.8-7.9-3.6c-7.7 3-12.7 9.9-17.2 16.9a71.9 71.9 0 0 1-4 6.3c-.8 1-1.9 2-3 1.8a2.3 2.3 0 0 1-.8-.2 48.6 48.6 0 0 0-2.5 10.8 56.2 56.2 0 0 0 .4 14.2Z" opacity=".1"/><path d="M773.6 486.1a20.7 20.7 0 0 1 3.4-7.5c5-7.6 10.4-15 13-23.8-3.8.7-4.4 7.3-8.2 7.5l.3-4.7c0-.8 0-1.8-.7-2.2s-1.8.2-2.2 1-.5 1.7-1 2.5-1.3 1.5-2.1 1.2l-.3-1.6a2.4 2.4 0 0 0-3 2.4 7.2 7.2 0 0 1-.4-2.3c-1.7-.3-3 1.6-3.5 3.2a76 76 0 0 0-3 11.2l-1.5 7.7c-.6 2.6-1.1 5.2-1.5 7.9a57.3 57.3 0 0 0 1.1 21 68 68 0 0 0 6.1-3.8c1.5-1.2 3.2-2.7 3.8-4.6 1.4-5-1.1-10.1-.3-15Z" fill="#a0616a"/><path d="M802 476.4c2.9-1.1 6.3.9 7.8 3.7s1.7 6 1.8 9.1l.2 7.3a16.5 16.5 0 0 1-.5 5.4 15.1 15.1 0 0 1-3.7 5.5 56 56 0 0 1-36.9 19.3 3 3 0 0 1-1.4-.2 3.2 3.2 0 0 1-1-1c-3.2-4-6.5-8.5-6-13.5 0-.8 1-1.5 1.3-2.3a20.3 20.3 0 0 1 9.8-10.4l.9-.4a5 5 0 0 0 3.3 2.6c1.2.2 2.3-.8 3-1.8a72 72 0 0 0 4.2-6.3c4.4-7.1 9.4-14 17.1-17Zm-1-14.5c-1.5-.7-1.7-2.6-1.8-4.2a41 41 0 0 0-.9-5.4c-.4-2-1.1-4-2.8-5a4.2 4.2 0 0 0-6.3 3 1.4 1.4 0 0 1-.3 1 1 1 0 0 1-.5.2 3.2 3.2 0 0 1-3.8-2.1c-.3-1 0-2.3-.8-3.2s-1.5-.8-2.2-1.3a3.9 3.9 0 0 1-1.1-3.2c0-1.5.2-3.3-1-4.2-1.8-1.4-4.5.8-6.7 0a3.3 3.3 0 0 1-1.8-3.2 8 8 0 0 1 1.3-3.6 30.7 30.7 0 0 1 4.5-6c0 .5.7.4 1 .2l3.2-2a.8.8 0 0 0 .3 1 5.4 5.4 0 0 1 2.6-1.4 1.9 1.9 0 0 1 2.2 1.5l4-1.7a.8.8 0 0 1 1 0c1.5 1 3.3 1.4 5 1.8s3.6 1 4.5 2.6a10.8 10.8 0 0 0 1.3 2.2 4.7 4.7 0 0 0 1.5.9 26.2 26.2 0 0 1 6.3 3.5 11.9 11.9 0 0 1 4 5.9c1.1 3.9-.4 8-2.2 11.6a74.3 74.3 0 0 1-4.7 7.9c-.6 1-1.5 2.9-2.5 3.5a4.8 4.8 0 0 1-3.4-.3Z" fill="#3f3d56"/><path d="M772.9 433.4c2 .9 4.8-1.4 6.6 0 1.2 1 1 2.7 1 4.2a3.9 3.9 0 0 0 1.1 3.2c.7.6 1.7.7 2.3 1.4s.5 2 .8 3a3.2 3.2 0 0 0 3.7 2.2 1 1 0 0 0 .5-.2 1.4 1.4 0 0 0 .3-1 4.2 4.2 0 0 1 6.3-3c1.7 1 2.4 3.1 2.9 5a41 41 0 0 1 .8 5.5c.1 1.5.3 3.4 1.7 4a4.8 4.8 0 0 0 3.5.4c1-.6 1.9-2.5 2.5-3.5a74.3 74.3 0 0 0 4.6-8 24.8 24.8 0 0 0 2.5-6.8c.7 3.7-.8 7.5-2.5 11a74.3 74.3 0 0 1-4.6 7.9c-.6 1-1.5 2.8-2.5 3.4a4.8 4.8 0 0 1-3.5-.3c-1.4-.7-1.6-2.5-1.7-4.1a41 41 0 0 0-.8-5.4c-.5-2-1.2-4-2.9-5.1a4.2 4.2 0 0 0-6.3 3 1.4 1.4 0 0 1-.3 1 1 1 0 0 1-.5.2 3.2 3.2 0 0 1-3.7-2c-.3-1-.1-2.4-.8-3.2s-1.6-.8-2.3-1.3a3.9 3.9 0 0 1-1-3.2c0-1.5.1-3.3-1-4.2-1.9-1.4-4.6.8-6.8 0a3.3 3.3 0 0 1-1.8-3.2 5.8 5.8 0 0 1 .5-2.1 2.7 2.7 0 0 0 1.4 1.2Z" opacity=".1"/></svg>