<svg version="1.1" id="Layer_1" xmlns="http://www.w3.org/2000/svg" x="0" y="0" viewBox="0 0 453.8 353.4" style="enable-background:new 0 0 453.8 353.4" xml:space="preserve"><style>.st0{opacity:.3}.st1{fill:#e0e0e0}.st2{fill:#263238}.st5{fill:#fff}.st6{fill:#0061f2}.st7{fill:#455a64}.st8{fill:#fafafa}.st9{fill:#ffbe9d}.st10{opacity:.6}.st11{fill:#eb996e}</style><g id="freepik--background-complete--inject-5"><g class="st0"><path class="st1" d="M54.6 1c0 .6-.4 1-1 1s-1-.4-1-1 .4-1 1-1 1 .4 1 1z"/></g><g class="st0"><circle class="st1" cx="57" cy="1" r="1"/></g><g class="st0"><path class="st1" d="M61.4 1c0 .6-.4 1-1 1s-1-.4-1-1 .4-1 1-1 1 .4 1 1z"/></g></g><path class="st2" d="M453.8 325.9c0 .1-99.8.3-222.8.3s-223-.1-223-.3 99.8-.3 222.9-.3 222.9.2 222.9.3z" id="freepik--Floor--inject-5"/><g id="freepik--Screens--inject-5"><path style="fill:#d4dae3" d="M275.9 16.3H416v114.2H275.9z"/><path style="fill:#e0e5ec" d="M266 23.5h140.1v114.2H266z"/><path class="st5" d="M252.2 31.5h143.9v117.2H252.2z"/><path class="st2" d="M396.1 148.7v-32.3c0-20.5-.1-49.7-.1-85l.2.2H252.3l.3-.3v117.2l-.2-.2 104 .1 29.4.1h10.5-10.4l-29.4.1-104.1.1h-.2V31h144.3v.2c0 35.4-.1 64.7-.1 85.2 0 10.2 0 18.2-.1 23.7v6.2c0 1.4-.2 2.4-.2 2.4z"/><path class="st6" d="m269.8 48.4-1.5.6 1.5.6v.6l-2.2-.8v-.6l2.2-.8v.4zm3.6-1.1v3.2h-.8v-1.3h-1.5v1.3h-.8v-3.2h.8v1.3h1.5v-1.3h.8zm1.5.6h-1v-.6h2.8v.6h-1v2.6h-.8v-2.6zm5.1 2.7v-2l-1 1.6h-.3l-1-1.6v1.9h-.7v-3.2h.6l1.2 2 1.2-2h.6v3.2l-.6.1zm1.5-3.3h.8v2.6h1.7v.6h-2.4l-.1-3.2zm4.9 1.4v.6l-2.2.8v-.6l1.5-.6-1.5-.6v-.5l2.2.9zm-17.9 88.6-1.6.6 1.5.6v.6l-2.2-.8v-.6l2.2-.8.1.4zm1.6-1.7h.6l-1.5 4.4h-.6l1.5-4.4zm3.8.6v3.2h-.8v-1.3h-1.4v1.3h-.7v-3.2h.8v1.3h1.5v-1.3h.6zm1.5.6h-1v-.6h2.8v.6h-1v2.6h-.8v-2.6zm5.1 2.7v-2l-1 1.6h-.3l-1-1.6v1.9h-.7v-3.2h.6l1.2 2 1.2-2h.6v3.2l-.6.1zm1.5-3.3h.8v2.6h1.6v.6H282v-3.2zm4.9 1.3v.6l-2.2.8v-.6l1.5-.6-1.5-.6v-.6l2.2 1z"/><path d="m280 57.3-1.6.6 1.6.6v.4l-2.1-.8v-.4l2.1-.8v.4zm3.6-1v3.2h-.5v-1.4h-1.9v1.4h-.5v-3.2h.5v1.4h1.9v-1.4h.5zm3.3 2.8v.4h-2.4v-3.2h2.3v.4H285v1h1.6v.4H285v1h1.9zm2.8-.4H288l-.4.8h-.5l1.5-3.2h.5l1.5 3.2h-.5l-.4-.8zm-.2-.3-.7-1.6-.7 1.6h1.4zm1.5-2.1h1.4c.9-.1 1.7.6 1.8 1.5.1.9-.6 1.7-1.5 1.8H291v-3.3zm1.4 2.8c.7 0 1.2-.5 1.2-1.2s-.5-1.2-1.2-1.2h-.9v2.4h.9zm4.4-1.4v.4l-2.1.8v-.4l1.6-.6-1.6-.6v-.4l2.1.8zM280 68.4l-1.6.6 1.6.6v.4l-2.1-.8v-.4l2.1-.8v.4zm1.4-.6h-1.1v-.4h2.7v.4h-1.1v2.9h-.5v-2.9zm2.1-.4h.5v3.2h-.5v-3.2zm2.1.4h-1.1v-.4h2.7v.4H286v2.9h-.5l.1-2.9zm2-.4h.5v2.8h1.8v.4h-2.2l-.1-3.2zm5.2 2.9v.4h-2.4v-3.2h2.3v.4h-1.8v1h1.6v.4h-1.6v1h1.9zm2.6-1.5v.4l-2.1.8v-.4l1.6-.6-1.6-.6V68l2.1.8zm2-1.4h.5v2.8h1.8v.4h-2.2l-.1-3.2zm2.5 2c0-.7.6-1.3 1.3-1.3.7 0 1.3.6 1.3 1.3s-.6 1.3-1.3 1.3c-.7 0-1.2-.5-1.3-1.2v-.1zm2.1 0c.1-.5-.3-.9-.7-.9-.5-.1-.9.3-.9.7v.2c-.1.5.3.9.7.9.5.1.9-.3.9-.7v-.2zm2.4-1.2v.4h-.1c-.4 0-.8.3-.8.7v1.3h-.5v-2.5h.4v.4c.3-.2.6-.4 1-.3zm2.7 1.4h-2c.1.4.4.8.9.7.3 0 .5-.1.7-.3l.2.3c-.5.5-1.4.5-1.9 0-.2-.2-.4-.5-.4-.9 0-.7.5-1.2 1.2-1.2h.1c.7 0 1.2.5 1.2 1.1v.3zm-2-.3h1.6c0-.4-.4-.8-.8-.8s-.8.3-.8.8zm6.7-.1v1.4h-.5v-1.4c0-.5-.2-.7-.6-.7s-.7.3-.7.7v1.4h-.5v-1.4c0-.5-.2-.7-.6-.7s-.7.3-.7.7v1.4h-.4v-2.5h.4v.4c.2-.3.5-.4.9-.4.3 0 .7.1.9.4.2-.3.6-.5.9-.4.5 0 1 .3 1 .9-.1.1-.1.2-.1.2zm2-1.8c0-.2.1-.3.3-.3.2 0 .3.1.3.3 0 .2-.1.3-.3.3-.2 0-.3-.1-.3-.3zm.1.8h.5v2.5h-.4l-.1-2.5zm3.8 1.2c0 .7-.5 1.2-1.1 1.3h-.1c-.3 0-.7-.1-.9-.4v1.3h-.5v-3.4h.4v.4c.2-.3.5-.4.9-.4.7 0 1.2.5 1.2 1.1l.1.1zm-.4 0c0-.5-.4-.8-.8-.8-.5 0-.8.4-.8.8s.4.8.8.8c.4.1.8-.3.8-.8zm.7 1 .2-.4c.3.2.6.2.9.2.4 0 .6-.1.6-.3 0-.6-1.6-.1-1.6-1.1 0-.4.4-.7 1-.7.3 0 .6.1.9.2l-.2.4c-.2-.1-.5-.2-.7-.2-.4 0-.6.1-.6.3 0 .6 1.6.1 1.6 1.1 0 .4-.4.7-1.1.7-.4.1-.7 0-1-.2zm4.9-2.2v2.5h-.4v-.4c-.2.3-.5.4-.8.4-.6 0-1-.4-1.1-.9v-1.5h.5v1.4c0 .5.2.7.7.7.4 0 .7-.3.8-.7v-1.4l.3-.1zm5 1v1.4h-.4v-1.4c0-.5-.2-.7-.6-.7s-.7.3-.7.7v1.4h-.5v-1.4c0-.5-.2-.7-.6-.7s-.7.3-.7.7v1.4h-.5v-2.5h.4v.4c.2-.3.5-.4.9-.4.3 0 .7.1.9.4.2-.3.6-.5 1-.4.5 0 1 .3 1 .8-.2.2-.2.3-.2.3zm4-.8-1.6.6 1.6.6v.4l-2.1-.8v-.4l2.1-.8v.4zm1.7-1.6h.4l-1.5 4.4h-.4l1.5-4.4zm1.5 1H334v-.4h2.7v.4h-1.1v2.9h-.5v-2.9zm2.1-.4h.5v3.2h-.5v-3.2zm2.1.4h-1.1v-.4h2.7v.4h-1.1v2.9h-.5v-2.9zm2-.4h.5v2.8h1.8v.4h-2.2l-.1-3.2zm5.1 2.9v.4H344v-3.2h2.3v.4h-1.8v1h1.6v.4h-1.6v1h1.9zm2.7-1.5v.4l-2.1.8v-.4l1.6-.6-1.6-.6V68l2.1.8zM280 79.5l-1.6.6 1.6.6v.4l-2.1-.8v-.4l2.1-.8v.4zm1.7-1.7h.4l-1.5 4.4h-.4l1.5-4.4zm3.5.7v3.2h-.5v-1.4h-1.8v1.4h-.5v-3.2h.5v1.4h1.9v-1.4h.4zm3.3 2.9v.4h-2.4v-3.2h2.3v.4h-1.8v1h1.6v.4h-1.6v1h1.9zm2.8-.4h-1.7l-.4.8h-.5l1.5-3.2h.5l1.5 3.2h-.5l-.4-.8zm-.1-.4-.7-1.6-.7 1.6h1.4zm1.5-2.1h1.4c.9-.1 1.7.6 1.8 1.5.1.9-.6 1.7-1.5 1.8h-1.7v-3.3zm1.3 2.9c.7.1 1.3-.4 1.3-1.1s-.4-1.3-1.1-1.3h-1.1v2.4h.9zm4.4-1.4v.4l-2.1.8v-.3l1.6-.6-1.6-.6v-.4l2.1.7zm-27 9.2-1.6.6 1.6.6v.4l-2.1-.8v-.4l2.1-.8v.4zm3.5 1.4c0 .6-.4.9-1.2.9h-1.5v-3.2h1.5c.8 0 1.2.3 1.2.8-.4.2-.6.7-.3 1.1-.1.1.1.3.3.4zm-2.3-2v1h1c.5 0 .7-.2.7-.5s-.3-.5-.7-.5h-1zm1.8 2c0-.4-.3-.6-.8-.6h-1.1v1.1h1.1c.6 0 .9-.2.8-.5zm1-.8c0-1 .7-1.8 1.7-1.8s1.8.7 1.8 1.7-.7 1.8-1.7 1.8h-.1c-.9 0-1.7-.7-1.7-1.7 0 .1 0 .1 0 0zm3 0c0-.7-.5-1.3-1.2-1.3s-1.3.5-1.3 1.2.5 1.3 1.2 1.3c.7.1 1.3-.4 1.3-1.2 0 .1 0 .1 0 0zm1.2-1.6h1.4c.9-.1 1.7.6 1.8 1.5.1.9-.6 1.7-1.5 1.8h-1.7v-3.3zm1.3 2.8c.7 0 1.2-.5 1.2-1.2s-.5-1.2-1.2-1.2h-.9V91h.9zm3.6-.7v1.1h-.5v-1.1l-1.3-2.1h.5l1 1.7 1-1.7h.5l-1.2 2.1zm3.6-.7v.4l-2.1.8v-.4l1.6-.6-1.6-.6v-.3l2.1.7zm-16.7 10.7-1.6.6 1.6.6v.4l-2.1-.8v-.4l2.1-.8v.4zm3.5-1v3.2h-.5v-1.4h-1.9v1.4h-.5v-3.2h.5v1.4h1.9v-1.4h.5zm1.8 0v3.2h-.5v-2.8h-.7v-.4h1.2zm2.8 1.4v.4l-2.1.8v-.3l1.6-.6-1.6-.6v-.4l2.1.7zm2.1-1.4h.3v2.9h1.8v.3h-2.2v-3.2h.1zm2.4 2c0-.7.6-1.2 1.2-1.2s1.2.6 1.2 1.2c0 .7-.6 1.2-1.2 1.2-.6.1-1.2-.4-1.2-1.2 0 .1 0 .1 0 0zm2.1 0c0-.5-.4-.9-.9-.9s-.9.4-.9.9.4.9.9.9c.5.1.9-.3.9-.9 0 .1 0 .1 0 0zm2.3-1.2v.3h-.1c-.4 0-.8.3-.8.8v1.3h-.3v-2.4h.3v.5c.1-.3.5-.5.9-.5zm2.7 1.3h-2c0 .5.5.9 1 .9.3 0 .6-.1.8-.3l.2.2c-.2.3-.6.4-.9.4-.7 0-1.2-.5-1.3-1.1v-.1c0-.7.5-1.2 1.1-1.2h.1c.6 0 1.2.5 1.2 1.1v.1h-.2zm-2-.2h1.7c-.1-.5-.5-.8-1-.8-.4.1-.7.4-.7.8zm6.7-.1v1.4h-.3v-1.4c0-.5-.3-.8-.7-.8-.4 0-.8.3-.8.7v1.4h-.3V101c0-.5-.3-.8-.7-.8-.4 0-.8.3-.8.8v1.4h-.3V100h.3v.4c.2-.3.5-.5.9-.5s.7.2.9.5c.2-.3.6-.6 1-.5.5 0 .9.4 1 .9-.2.2-.2.3-.2.3zm2-1.8c0-.1.1-.2.2-.2s.2.1.2.2-.1.2-.2.2-.2 0-.2-.2zm.1.8h.3v2.4h-.3v-2.4zm3.7 1.2c0 .7-.5 1.2-1.1 1.2h-.1c-.4 0-.7-.2-.9-.5v1.4h-.3v-3.3h.3v.5c.2-.3.6-.5.9-.5.6 0 1.2.5 1.2 1.2zm-.3 0c0-.5-.4-.9-.9-.9s-.9.4-.9.9.4.9.9.9.9-.4.9-.9zm.6 1 .1-.3c.3.2.6.3.9.3.5 0 .6-.2.6-.4 0-.6-1.6-.1-1.6-1.1 0-.4.4-.7 1-.7.3 0 .6.1.9.2l-.1.3c-.2-.1-.5-.2-.7-.2-.4 0-.6.2-.6.4 0 .7 1.6.2 1.6 1.1 0 .4-.4.7-1 .7-.4 0-.8-.1-1.1-.3zm4.8-2.2v2.4h-.3v-.4c-.2.3-.5.5-.9.5-.5 0-1-.4-1-.9v-1.6h.3v1.4c0 .5.3.8.7.8.4 0 .8-.3.8-.7v-1.4h.4v-.1zm5 1v1.4h-.3v-1.4c0-.5-.3-.8-.7-.8-.4 0-.8.3-.8.7v1.4h-.3V101c0-.5-.3-.8-.7-.8-.4 0-.8.3-.8.8v1.4h-.3V100h.3v.4c.2-.3.5-.5.9-.5s.7.2.9.5c.2-.4.6-.6 1-.5.5 0 .9.4.9.9-.1.2-.1.3-.1.3zm4.3-2v3.4h-.3v-.5c-.2.3-.6.5-.9.5-.7-.1-1.2-.7-1.1-1.4.1-.6.5-1.1 1.1-1.1.4 0 .7.2.9.5V99h.3v.1zm-.3 2.2c0-.5-.4-.9-.9-.9s-.9.4-.9.9.4.9.9.9c.5.1.9-.3.9-.9 0 .1 0 .1 0 0zm1 0c0-.7.6-1.2 1.2-1.2s1.2.6 1.2 1.2-.6 1.2-1.2 1.2c-.6.1-1.2-.4-1.2-1.2 0 .1 0 .1 0 0zm2.1 0c0-.5-.4-.9-.9-.9s-.9.4-.9.9.4.9.9.9c.5.1.9-.3.9-.9 0 .1 0 .1 0 0zm1-2.2h.3v3.4h-.3v-3.4zm1 2.2c0-.7.6-1.2 1.2-1.2s1.2.6 1.2 1.2c0 .7-.6 1.2-1.2 1.2-.6.1-1.1-.4-1.2-1.2 0 .1 0 .1 0 0zm2.2 0c0-.5-.4-.9-.9-.9s-.9.4-.9.9.4.9.9.9c.5.1.9-.3.9-.9 0 .1 0 .1 0 0zm2.2-1.2v.3h-.1c-.4 0-.8.3-.8.8v1.3h-.3v-2.4h.3v.5c.2-.3.5-.5.9-.5zm1.5 2.2.1-.3c.3.2.6.3.9.3.5 0 .6-.2.6-.4 0-.6-1.6-.1-1.6-1.1 0-.4.3-.7 1-.7.3 0 .6.1.9.2l-.1.3c-.2-.1-.5-.2-.7-.2-.4 0-.6.2-.6.4 0 .7 1.6.2 1.6 1.1 0 .4-.4.7-1 .7-.4 0-.8-.1-1.1-.3zm2.5-3c0-.1.1-.2.2-.2s.2.1.2.2-.1.2-.2.2-.2 0-.2-.2zm.1.8h.3v2.4h-.3v-2.4zm2.5 2.3c-.1.1-.3.2-.5.2-.4 0-.7-.2-.7-.6v-1.6h-.4v-.3h.4v-.5h.3v.5h.7v.3h-.7v1.5c0 .2.1.4.3.4h.1c.1 0 .3 0 .4-.1l.1.2zm3.7-1.4v1.5h-.3v-.4c-.2.3-.5.4-.8.4-.5 0-.9-.3-.9-.7s.2-.7.9-.7h.8v-.1c0-.3-.2-.6-.5-.7h-.1c-.3 0-.6.1-.8.3l-.1-.2c.3-.2.6-.3 1-.3.5-.1.9.3 1 .7-.2.1-.2.2-.2.2zm-.3.8v-.4h-.8c-.5 0-.6.2-.6.4s.2.5.6.5c.3 0 .6-.1.8-.5zm5.2-.7v1.4h-.3v-1.4c0-.5-.3-.8-.7-.8-.4 0-.8.3-.8.8v1.4h-.3v-1.4c0-.5-.3-.8-.7-.8-.4 0-.8.3-.8.8v1.4h-.3v-2.4h.3v.4c.2-.3.5-.5.9-.5s.7.2.9.5c.2-.4.6-.6 1-.5.5 0 .9.4 1 .9-.2.1-.2.2-.2.2zm3 .3h-2c0 .5.5.9 1 .9.3 0 .6-.1.8-.3l.2.2c-.2.3-.6.4-.9.4-.7 0-1.2-.5-1.3-1.1v-.1c0-.7.5-1.2 1.2-1.2s1.2.5 1.2 1.2c-.1-.1-.2 0-.2 0zm-2-.2h1.7c-.1-.5-.5-.8-1-.8-.3.1-.6.4-.7.8zm4 1.2c-.1.1-.3.2-.5.2-.4 0-.7-.2-.7-.6v-1.6h-.4v-.3h.4v-.5h.3v.5h.7v.3h-.7v1.5c0 .2.1.4.3.4h.1c.1 0 .3 0 .4-.1l.1.2zm.9-.1c0 .1 0 .2-.1.3l-.2.6h-.2l.2-.7c-.1 0-.2-.1-.2-.2s.1-.2.2-.2c.2 0 .3.1.3.2zm1.7-1c0-.7.5-1.2 1.2-1.2h.1c.4 0 .8.2 1 .5l-.2.2c-.2-.2-.4-.4-.7-.4-.5.2-.8.7-.6 1.3.1.3.3.5.6.6.3 0 .5-.1.7-.4l.2.2c-.2.3-.6.5-1 .5-.7 0-1.3-.5-1.3-1.3 0 .1 0 .1 0 0zm2.6 0c0-.7.6-1.2 1.2-1.2s1.2.6 1.2 1.2c0 .7-.6 1.2-1.2 1.2-.7.1-1.2-.4-1.2-1.2 0 .1 0 .1 0 0zm2.1 0c.1-.5-.3-.9-.8-1h-.1c-.5.2-.8.7-.6 1.3.1.3.3.5.6.6.5 0 .9-.4.9-.9zm3.3-.2v1.4h-.3v-1.4c.1-.4-.2-.7-.6-.8h-.2c-.4 0-.8.3-.9.7v1.4h-.3V100h.3v.4c.2-.3.6-.5.9-.5.5 0 1 .4 1 .9.1.2.1.3.1.3zm.5 1.2.1-.3c.3.2.6.3.9.3.5 0 .6-.2.6-.4 0-.6-1.6-.1-1.6-1.1 0-.4.3-.7 1-.7.3 0 .6.1.9.2l-.1.3c-.2-.1-.5-.2-.7-.2-.4 0-.6.2-.6.4 0 .7 1.6.2 1.6 1.1 0 .4-.4.7-1 .7-.4 0-.8-.1-1.1-.3zm4.7-.9h-2c0 .5.5.9 1 .9.3 0 .6-.1.8-.3l.2.2c-.2.3-.6.4-.9.4-.7 0-1.2-.5-1.3-1.1v-.1c0-.7.5-1.2 1.1-1.2h.1c.6 0 1.2.5 1.2 1.1v.1h-.2zm-2-.2h1.7c-.1-.5-.5-.8-1-.8-.4.1-.7.4-.7.8zm2.5.1c0-.7.5-1.2 1.2-1.2h.1c.4 0 .8.2 1 .5l-.2.2c-.2-.2-.4-.4-.7-.4-.5.2-.8.7-.6 1.3.1.3.3.5.6.6.3 0 .5-.1.7-.4l.2.2c-.2.3-.6.5-1 .5-.7 0-1.3-.5-1.3-1.3 0 .1 0 .1 0 0zm4.1 1.1c-.1.1-.3.2-.5.2-.4 0-.7-.2-.7-.6v-1.6h-.4v-.3h.4v-.5h.3v.5h.7v.3h-.7v1.5c0 .2.1.4.3.4h.1c.1 0 .3 0 .4-.1l.1.2zm2.7-1h-2c0 .5.5.9 1 .9.3 0 .6-.1.8-.3l.2.2c-.2.3-.6.4-.9.4-.7 0-1.2-.5-1.3-1.1v-.1c0-.7.5-1.2 1.2-1.2s1.2.5 1.2 1.2c-.1-.1-.2 0-.2 0zm-2-.2h1.7c-.1-.5-.5-.8-1-.8-.4.1-.7.4-.7.8zm3.9 1.2c-.1.1-.3.2-.5.2-.4 0-.7-.2-.7-.6v-1.6h-.4v-.3h.4v-.5h.3v.5h.7v.3h-.7v1.5c0 .2.1.4.3.4h.1c.1 0 .3 0 .4-.1l.1.2zm2.8-2.3v2.4h-.3v-.4c-.2.3-.5.5-.9.5-.6 0-1-.4-1-1v-1.5h.3v1.4c0 .5.3.8.7.8.4 0 .8-.3.8-.7v-1.4l.4-.1zm3.1 1.3h-2c0 .5.4.9.9.9h.1c.3 0 .6-.1.7-.3l.2.2c-.5.5-1.3.5-1.8 0-.2-.2-.4-.6-.4-.9 0-.6.5-1.2 1.1-1.2h.1c.6 0 1.2.5 1.2 1.1v.1l-.1.1zm-2-.2h1.7c-.1-.5-.5-.8-1-.8-.4.1-.7.4-.7.8zm3.9-1.1v.3h-.1c-.4 0-.8.3-.8.8v1.3h-.4v-2.4h.3v.5c.2-.4.6-.6 1-.5zm-106.9 6.5v1.5h-.3v-.4c-.2.3-.5.4-.8.4-.5 0-.9-.3-.9-.7s.2-.7.9-.7h.7v-.1c0-.4-.2-.6-.7-.6-.3 0-.6.1-.8.3l-.1-.2c.3-.2.6-.3 1-.3.5-.1.9.2 1 .7v.1zm-.4.8v-.4h-.8c-.5 0-.6.2-.6.4s.2.5.6.5.7-.2.8-.5zm3.5-2.7v3.4h-.3v-.5c-.2.3-.6.5-1 .5-.7-.1-1.2-.7-1.1-1.4.1-.6.5-1.1 1.1-1.1.4 0 .7.2.9.5v-1.5h.4v.1zm-.3 2.2c0-.5-.4-.9-.9-.9s-.9.4-.9.9.4.9.9.9c.5.1.9-.3.9-.9zm1.1-2c0-.1.1-.2.2-.2s.2.1.2.2-.2.2-.3.2c0 0 0-.1-.1-.2zm.1.8h.3v2.4h-.3v-2.4zm3.7 1.2c0 .7-.5 1.2-1.1 1.2h-.1c-.4 0-.7-.2-.9-.5v1.4h-.3v-3.3h.3v.5c.2-.3.6-.5.9-.5.7-.1 1.2.5 1.2 1.2zm-.3 0c0-.5-.4-.9-.9-.9s-.9.4-.9.9.4.9.9.9.9-.4.9-.9zm.9-2c0-.1.1-.2.2-.2s.2.1.2.2-.1.2-.2.2-.2-.1-.2-.2zm.1.8h.3v2.4h-.3v-2.4zm.9 2.1.1-.3c.3.2.6.3.9.3.5 0 .6-.2.6-.4 0-.6-1.6-.1-1.6-1.1 0-.4.3-.7 1-.7.3 0 .6.1.9.2l-.1.3c-.2-.1-.5-.2-.7-.2-.4 0-.6.2-.6.4 0 .7 1.6.2 1.6 1.1 0 .4-.4.7-1 .7-.4.1-.8 0-1.1-.3zm2.4-.9c0-.7.5-1.2 1.2-1.2h.1c.4 0 .8.2 1 .5l-.2.2c-.2-.2-.4-.4-.7-.4-.5.2-.8.7-.6 1.3.1.3.3.5.6.6.3 0 .5-.1.7-.4l.2.2c-.2.3-.6.5-1 .5-.7 0-1.3-.6-1.3-1.3 0 .1 0 0 0 0zm2.7-2c0-.1.1-.2.2-.2s.2.1.2.2-.1.2-.2.2-.2-.1-.2-.2zm.1.8h.3v2.4h-.3v-2.4zm3.5 1v1.4h-.3v-1.4c.1-.4-.2-.7-.6-.8h-.2c-.4 0-.8.3-.9.7v1.4h-.3v-2.4h.3v.4c.2-.3.6-.5.9-.5.5 0 1 .4 1 .9.1.2.1.2.1.3zm3.2-1v2.2c.1.6-.3 1.1-.9 1.2h-.3c-.4 0-.8-.1-1.1-.4l.2-.2c.3.2.6.4 1 .3.6 0 .9-.3.9-.9v-.3c-.2.3-.6.5-1 .5-.7.1-1.2-.4-1.3-1.1-.1-.7.4-1.2 1.1-1.3h.2c.4 0 .8.2 1 .5v-.5h.2zm-.3 1.1c0-.5-.4-.9-.9-1s-.9.4-1 .9.4.9.9 1c.5.1.9-.3 1-.9 0 .1 0 .1 0 0zm4.5.2h-2c0 .5.4.9.9.8h.1c.3 0 .6-.1.7-.3l.2.2c-.5.5-1.3.5-1.8 0-.2-.2-.4-.6-.4-.9 0-.6.5-1.2 1.1-1.2h.1c.6 0 1.2.5 1.2 1.1v.1l-.1.2zm-2-.2h1.7c-.1-.5-.5-.8-1-.8-.3 0-.6.3-.7.8zm2.7-2.1h.3v3.4h-.3v-3.4zm1.2.2c0-.1.1-.2.2-.2s.2.1.2.2-.2.2-.3.2c0 0-.1-.1-.1-.2zm.1.8h.3v2.4h-.3v-2.4zm2.5 2.3c-.1.1-.3.2-.5.2-.4 0-.7-.2-.7-.6V106h-.4v-.3h.4v-.5h.3v.5h.7v.3h-.7v1.5c0 .2.1.4.3.4h.1c.1 0 .3 0 .4-.1l.1.2zm.9-.2c0 .1 0 .2-.1.3l-.2.6h-.2l.2-.7c-.1 0-.2-.1-.2-.2s.1-.2.2-.2c.2 0 .3.1.3.2zm1.6 0 .1-.3c.3.2.6.3.9.3.5 0 .6-.2.6-.4 0-.6-1.6-.1-1.6-1.1 0-.4.3-.7 1-.7.3 0 .6.1.9.2l-.1.3c-.2-.1-.5-.2-.7-.2-.4 0-.6.2-.6.4 0 .7 1.6.2 1.6 1.1 0 .4-.4.7-1 .7-.4.1-.8 0-1.1-.3zm4.7-.8h-2c0 .5.5.9 1 .8.3 0 .6-.1.8-.3l.2.2c-.5.5-1.3.5-1.8 0-.2-.2-.4-.6-.4-.9 0-.6.5-1.2 1.1-1.2h.1c.6 0 1.2.5 1.2 1.1v.1l-.2.2zm-2-.2h1.7c-.1-.5-.5-.8-1-.8-.3 0-.6.3-.7.8zm4.9-2.1v3.4h-.3v-.5c-.2.3-.6.5-.9.5-.7-.1-1.2-.7-1.1-1.4.1-.6.5-1.1 1.1-1.1.4 0 .7.2.9.5v-1.5h.3v.1zm-.3 2.2c0-.5-.4-.9-.9-.9s-.9.4-.9.9.4.9.9.9c.5.1.9-.3.9-.9zm4.7-2.2v3.4h-.3v-.5c-.2.3-.6.5-.9.5-.7-.1-1.2-.7-1.1-1.4.1-.6.5-1.1 1.1-1.1.4 0 .7.2.9.5v-1.5h.3v.1zm-.4 2.2c0-.5-.4-.9-.9-.9s-.9.4-.9.9.4.9.9.9.9-.3.9-.9c.1 0 .1 0 0 0zm1.2-2c0-.1.1-.2.2-.2s.2.1.2.2-.1.2-.2.2-.2-.1-.2-.2zm.1.8h.3v2.4h-.3v-2.4zm3.1.9v1.5h-.3v-.4c-.2.3-.5.4-.8.4-.5 0-.9-.3-.9-.7s.2-.7.9-.7h.8v-.1c0-.3-.2-.6-.5-.7h-.1c-.3 0-.6.1-.8.3l-.1-.2c.3-.2.6-.3 1-.3.5-.1.9.3 1 .7-.2.1-.2.1-.2.2zm-.4.8v-.4h-.8c-.5 0-.6.2-.6.4s.2.5.6.5.7-.2.8-.5zm5.3-.7v1.4h-.3v-1.4c0-.5-.3-.8-.7-.8-.4 0-.8.3-.8.8v1.4h-.3v-1.4c0-.5-.3-.8-.7-.8-.4 0-.8.3-.8.8v1.4h-.3v-2.4h.3v.4c.2-.3.5-.5.9-.5s.7.2.9.5c.2-.4.6-.6 1-.5.5 0 .9.4.9.9-.1.1-.1.2-.1.2zm2.8-.9-1.6.6 1.6.6v.4l-2.1-.8v-.4l2.1-.8v.4zm1.7-1.6h.4l-1.5 4.4h-.4l1.5-4.4zm3.5.6v3.2h-.5v-1.4h-1.9v1.4h-.5v-3.2h.5v1.4h1.9v-1.4h.5zm1.7 0v3.2h-.4v-2.8h-.7v-.4h1.1zm2.9 1.5v.4l-2.1.8v-.4l1.7-.6-1.7-.6v-.4l2.1.8zM271.4 117l-1.6.6 1.6.6v.4l-2.1-.8v-.4l2.1-.8v.4zm3.4.1c0 .7-.5 1.1-1.4 1.1h-.8v1h-.5V116h1.3c.9 0 1.4.4 1.4 1.1zm-.5 0c0-.5-.3-.7-.9-.7h-.8v1.4h.8c.6 0 .9-.2.9-.7zm3.1.3v.4l-2.1.8v-.4l1.6-.6-1.6-.6v-.4l2.1.8zm3.9-.4-1.6.6 1.6.6v.4l-2.1-.8v-.4l2.1-.8v.4zm.8-1h.5v3.2h-.5V116zm4.5 3.2v-2.4l-1.2 2h-.2l-1.2-2v2.4h-.4V116h.4l1.4 2.3 1.3-2.3h.4v3.2h-.5zm3.6-1.6h.5v1.2c-.4.3-.8.4-1.2.4-.9 0-1.6-.8-1.6-1.7s.8-1.6 1.7-1.6c.4 0 .8.2 1.1.5l-.3.3c-.2-.3-.6-.4-.9-.4-.7 0-1.2.6-1.2 1.2s.6 1.2 1.2 1.2c.3 0 .5-.1.8-.2l-.1-.9zm2.3 1.2.2-.4c.3.2.7.4 1.1.4.6 0 .8-.2.8-.5 0-.8-2-.3-2-1.5 0-.5.4-.9 1.2-.9.4 0 .7.1 1 .3l-.2.4c-.3-.2-.6-.3-.9-.3-.5 0-.8.2-.8.5 0 .8 2 .3 2 1.5 0 .5-.4.9-1.3.9-.3.1-.7-.1-1.1-.4zm5.4.4-.7-1h-1v1h-.5V116h1.3c.9 0 1.4.4 1.4 1.1 0 .5-.3.9-.7 1l.8 1.1h-.6zm0-2.1c0-.5-.3-.7-.9-.7h-.8v1.4h.8c.5 0 .9-.2.9-.7zm.9.5c0-.9.7-1.6 1.6-1.7h.1c.5 0 .9.2 1.2.5l-.3.3c-.2-.3-.6-.4-.9-.4-.7 0-1.2.6-1.2 1.2s.6 1.2 1.2 1.2c.3 0 .7-.1.9-.4l.3.3c-.3.3-.8.5-1.2.5-.9 0-1.7-.7-1.7-1.5 0 .1 0 0 0 0zm3.4-.8h2.1v.4h-2.1v-.4zm0 1.1h2.1v.4h-2.1v-.4zm4-1.9h.4v1.2h-.3l-.1-1.2zm.8 0h.4v1.2h-.3l-.1-1.2zm1.2 0h.5v2.9h1.8v.4h-2.2l-.1-3.3zm2.4 2c0-.7.6-1.3 1.3-1.3.7 0 1.3.6 1.3 1.3s-.6 1.3-1.3 1.3c-.7 0-1.2-.5-1.3-1.2v-.1zm2.1 0c.1-.5-.3-.9-.7-.9-.5-.1-.9.3-.9.7v.2c-.1.5.3.9.7.9.5.1.9-.3.9-.7v-.2zm2.4-1.2v.4h-.1c-.4 0-.8.3-.8.7v1.3h-.4v-2.4h.4v.4c.2-.3.5-.5.9-.4zm2.7 1.4h-2c.1.4.4.8.9.7.3 0 .5-.1.7-.3l.2.3c-.5.5-1.4.5-1.9 0-.2-.2-.4-.5-.4-.9 0-.7.5-1.2 1.2-1.2h.1c.7 0 1.2.5 1.2 1.1v.3zm-2-.4h1.6c-.1-.4-.5-.7-.9-.7-.3.1-.6.4-.7.7zm6.7 0v1.4h-.4v-1.4c0-.5-.2-.7-.6-.7s-.7.3-.7.8v1.3h-.4v-1.4c0-.5-.2-.7-.6-.7s-.7.3-.7.7v1.4h-.4v-2.4h.5v.4c.2-.3.5-.4.8-.4.4 0 .7.2.9.5.2-.3.6-.5.9-.5.6 0 1 .5 1 1h-.3zm2-1.8c0-.2.1-.3.3-.3.2 0 .3.1.3.3s-.1.3-.3.3c-.1 0-.3-.1-.3-.3zm.1.8h.5v2.4h-.5v-2.4zm3.8 1.2c0 .7-.5 1.2-1.1 1.3h-.1c-.3 0-.7-.1-.9-.4v1.3h-.4v-3.4h.4v.4c.2-.3.5-.4.9-.4.7 0 1.2.5 1.2 1.2 0-.1 0 0 0 0zm-.4 0c0-.5-.4-.8-.9-.8s-.8.4-.8.9c0 .4.4.8.8.8.5 0 .9-.4.9-.9 0 .1 0 0 0 0zm.7 1 .2-.4c.3.2.6.3.9.3.4 0 .6-.1.6-.3 0-.6-1.6-.1-1.6-1 0-.4.4-.7 1-.7.3 0 .6.1.9.2l-.2.4c-.2-.1-.5-.2-.7-.2-.4 0-.6.1-.6.3 0 .6 1.5.1 1.5 1.1 0 .4-.4.7-1.1.7-.2-.1-.6-.2-.9-.4zm5-2.2v2.4h-.4v-.4c-.2.3-.5.4-.8.4-.6 0-1-.4-1.1-.9v-1.5h.5v1.4c0 .5.2.7.7.7.4 0 .7-.3.8-.7v-1.5l.3.1zm4.9 1v1.4h-.5v-1.4c0-.5-.2-.7-.6-.7s-.7.3-.7.8v1.3h-.5v-1.4c0-.5-.2-.7-.6-.7s-.7.3-.7.8v1.3h-.4v-2.4h.4v.4c.2-.3.5-.4.9-.4.3 0 .7.2.9.5.2-.3.6-.5 1-.5.6 0 1 .4 1 1-.2-.1-.2 0-.2 0zm.7-1.8h.4v1.2h-.3l-.1-1.2zm.8 0h.4v1.2h-.3l-.1-1.2zm3.1 1.4v.4l-2.1.8v-.4l1.6-.6-1.6-.6v-.4l2.1.8zm2.7-.4-1.6.6 1.6.6v.4l-2.1-.8v-.4l2.1-.8v.4zm1.7-1.7h.4l-1.5 4.4h-.4l1.5-4.4zm3.3 1.8c0 .7-.5 1.1-1.4 1.1h-.8v1h-.5V116h1.3c.9 0 1.4.4 1.4 1.1zm-.5 0c0-.5-.3-.7-.9-.7h-.8v1.4h.8c.7 0 1-.2.9-.7zm3.2.3v.4l-2.1.8v-.4l1.7-.6-1.7-.6v-.4l2.1.8zm-82.2 10.7-1.6.6 1.6.6v.4l-2.1-.8v-.4l2.1-.8v.4zm1.7-1.6h.4l-1.6 4.4h-.4l1.6-4.4zm3.5 3c0 .6-.4.9-1.2.9h-1.5v-3.2h1.5c.8 0 1.2.3 1.2.8 0 .3-.2.6-.4.7.1.1.4.4.4.8zm-2.4-2v1h1c.5 0 .8-.2.8-.5s-.3-.5-.8-.5h-1zm1.9 2c0-.4-.3-.5-.8-.5h-1.1v1.1h1.1c.5-.1.8-.3.8-.6zm.9-.8c0-1 .7-1.8 1.7-1.8s1.8.7 1.8 1.7-.7 1.8-1.7 1.8h-.1c-.9 0-1.6-.7-1.7-1.7 0 .1 0 .1 0 0zm3 0c0-.7-.6-1.3-1.2-1.3s-1.3.6-1.3 1.2c0 .7.6 1.3 1.2 1.3.7.1 1.3-.4 1.3-1.2 0 .1 0 .1 0 0zm1.2-1.6h1.4c.9-.1 1.7.6 1.8 1.5.1.9-.6 1.7-1.5 1.8h-1.7v-3.3zm1.3 2.9c.7 0 1.2-.5 1.2-1.2s-.5-1.2-1.2-1.2h-.9v2.4h.9zm3.6-.8v1.1h-.5v-1.1l-1.3-2.1h.5l1 1.7 1-1.7h.5l-1.2 2.1zm3.7-.7v.4l-2.1.8v-.4l1.6-.6-1.6-.6v-.4l2.1.8z"/><path class="st2" d="M396.1 41.2c0 .1-32.1.3-71.7.3s-71.7-.1-71.7-.3 32.1-.3 71.7-.3 71.7.2 71.7.3zm-139-5.1c0 .5-.4.9-.9.9s-.9-.4-.9-.9.4-.9.9-.9c.4 0 .9.4.9.9z"/><circle class="st2" cx="259.7" cy="36.1" r=".9"/><path class="st2" d="M264.1 36.1c0 .5-.4.9-.9.9s-.9-.4-.9-.9.4-.9.9-.9.9.4.9.9z"/><path class="st1" d="M261.9 149.6c-.1 0-.3-24.3-.3-54.3s.1-54.3.3-54.3.3 24.3.3 54.3-.2 54.3-.3 54.3z"/><path class="st6" d="M383.3 97.1h53.6v38.2h-53.6z"/><path class="st5" d="M401.4 114.8v7.6h-1.8v-3.1h-3.4v3.1h-1.8v-7.6h1.8v3h3.4v-3h1.8zm3.3 1.5h-2.4v-1.5h6.6v1.4h-2.4v6.1h-1.8v-6zm14.3-1.5h1.8v6.1h3.8v1.4H419v-7.5zm-2.5 7.7V118l-2.2 3.7h-.8l-2.2-3.6v4.4h-1.6v-7.6h1.5l2.8 4.7 2.8-4.7h1.4v7.6h-1.7zm20.8-19.7c0 .1-12.1.2-27 .2s-27-.1-27-.2 12.1-.2 27-.2 27 .1 27 .2zm-49.6-2.8c-.1.4-.4.7-.8.6-.3-.1-.5-.3-.6-.6.1-.4.4-.7.8-.6.3.1.5.3.6.6zm2.6 0c-.1.4-.4.7-.8.6-.3-.1-.5-.3-.6-.6.1-.4.4-.7.8-.6.3.1.5.3.6.6zm2.6 0c.1.4-.2.8-.6.8-.4.1-.8-.2-.8-.6-.1-.4.2-.8.6-.8h.1c.4 0 .7.2.7.6z"/><path class="st6" d="M32.7 96.6h39.5v28.1H32.7z"/><path class="st5" d="M72.5 100.8c0 .1-8.9.1-19.9.1s-19.9-.1-19.9-.1 8.9-.1 19.9-.1 19.9 0 19.9.1zm-36.6-2.1c0 .3-.3.5-.5.5-.3 0-.5-.2-.5-.4 0-.3.3-.5.5-.5.3-.1.5.1.5.4zm1.9 0c0 .3-.3.5-.6.5-.2 0-.4-.2-.5-.5 0-.3.3-.5.6-.5.3.1.5.3.5.5zm2 0c0 .3-.2.6-.5.6s-.6-.2-.6-.5.2-.6.5-.6h.1c.2 0 .5.2.5.5z"/><path class="st6" d="M69 59c-.1-4.1 3.2-7.5 7.3-7.5h.4c2-.1 3.9.6 5.3 2l-.7.7c-1.2-1.2-2.9-1.8-4.5-1.8-3.6-.2-6.7 2.5-6.9 6.1-.2 3.6 2.5 6.7 6.1 6.9h.7c1.7.1 3.3-.6 4.5-1.8l.7.7c-1.4 1.4-3.3 2.1-5.3 2.1-4.1.2-7.5-3-7.7-7.1.1-.1.1-.2.1-.3zm14.9 5.6.5-.8c1.3 1.2 3.1 1.9 4.9 1.9 3 0 4.3-1.3 4.3-2.9 0-4.4-9.2-1.8-9.2-7.2 0-2.1 1.6-3.9 5.2-3.9 1.6 0 3.1.5 4.5 1.3l-.4.9c-1.2-.8-2.6-1.2-4.1-1.2-2.9 0-4.2 1.3-4.2 3 0 4.4 9.2 1.8 9.2 7.2 0 2.1-1.7 3.9-5.3 3.9-2-.2-3.9-.9-5.4-2.2zm12.9 0 .5-.8c1.3 1.2 3.1 1.9 4.9 1.9 3 0 4.3-1.3 4.3-2.9 0-4.4-9.2-1.8-9.2-7.2 0-2.1 1.6-3.9 5.2-3.9 1.6 0 3.1.5 4.5 1.3l-.4.9c-1.2-.8-2.6-1.2-4.1-1.2-2.9 0-4.2 1.3-4.2 3 0 4.4 9.2 1.8 9.2 7.2 0 2.1-1.7 3.9-5.3 3.9-2-.2-4-.9-5.4-2.2z"/><path class="st6" d="M120.1 78.4v-3.1c0-2 0-4.9-.1-8.6 0-7.4-.1-18-.1-31l.2.2H54.2l.3-.3v42.6l-.2-.2 47.4.1 13.6.1h4.5-4.5l-13.5.1-47.6.1H54V35.5h.3l65.9.1h.2v.2c0 13-.1 23.7-.1 31.1v10.7c-.1.5-.2.8-.2.8z"/><path class="st6" d="M120.1 42c0 .1-14.8.3-33 .3s-33-.1-33-.3 14.8-.3 33-.3 33 .3 33 .3zm-61-3c.1.4-.2.9-.7.9-.4.1-.9-.2-.9-.7-.1-.4.2-.9.7-.9h.1c.4-.1.8.2.8.7zm2.9 0c.1.4-.2.9-.7.9-.4.1-.9-.2-.9-.7-.1-.4.2-.9.7-.9h.1c.4-.1.8.2.8.7zm2.9 0c.1.4-.2.9-.7.9-.4.1-.9-.2-.9-.7-.1-.4.2-.9.7-.9h.1c.4-.1.8.2.8.7z"/></g><g id="freepik--Character--inject-5"><path class="st7" d="m128.8 152.8 26.1 88.1c1.2 3.9 4.8 6.6 8.8 6.6l106 .3c5.4 0 9.8-4.4 9.8-9.8v-.5c-.3-5.2-4.6-9.3-9.8-9.3h-40.5l-32.5-90.4H140c-6.4 0-11.7 5.2-11.7 11.7 0 1.1.2 2.3.5 3.3z"/><path class="st2" d="M218.5 235.5c0 .2-10.8.4-24.1.4s-24.1-.2-24.1-.4 10.8-.4 24.1-.4 24.1.2 24.1.4zm-81.9-94.9c.2-.1 7.4 21 16.1 47.2s15.6 47.3 15.4 47.4-7.4-21-16.1-47.2-15.6-47.3-15.4-47.4z"/><path class="st7" d="m214.1 325.9-6.5-.1v-78.2h6.5z"/><path class="st7" d="M180.8 325.6h60.1l-27.2-9.5h-6.5z"/><path class="st6" d="m165.6 117.6 9.9 49.7-1.8 37.2 66.9-11.1-2.6-32.6-.1-27 16.4 31.8 12.8-24.7-23.4-42.3c-4.3-4.4-9.5-7.8-15.3-9.9-3.1-1.1-6.3-1.7-9.6-1.8-7.5 2.4-15.6 2.4-23.1 0-.9.1-2.2.2-3.9.4h-.3c-14.2 1.8-25.1 13.5-25.8 27.8l-.1 2.5z"/><path class="st6" d="M191.8 87.3s-27.5.2-30.9 29.2l-.5 21.3 23.7-.2 7.7-50.3z"/><path class="st8" d="M257.4 124.6c0 .2-21.6.4-48.3.4s-48.2-.2-48.2-.4 21.6-.4 48.3-.4 48.2.2 48.2.4zm0 4.7c0 .2-21.6.4-48.3.4s-48.3-.2-48.3-.4 21.6-.4 48.3-.4 48.3.1 48.3.4zm-1.5-8.5c0 .2-21.3.4-47.5.4s-47.5-.2-47.5-.4 21.3-.4 47.5-.4 47.5.2 47.5.4z"/><path class="st2" d="M237.6 165.6c-.2 0-.1-11.8.2-26.3s.8-26.3 1-26.3.1 11.8-.2 26.3-.8 26.3-1 26.3z"/><path class="st9" d="M228.2 146.5s13 .9 15.3 4.4 5.9 13.2 4.6 13.3c-.8 0-1.7-.2-2.3-.7l-3.6-6.3s.6 6.1-1.6 6.2c-2.2.1-12.7 2.2-12.7 2.2l.3-19.1z"/><path class="st6" d="m160.5 132.2-.1 33.5c.4 7 6.4 12.4 13.4 12 .7 0 1.4-.1 2-.3l52.4-10.8-.1-21.5-45.2 8.7-.6-22.8-21.8 1.2z"/><path class="st2" d="M190.4 174.7c.2-.1.5-.1.7-.2l2-.5 7.7-1.6 27.3-5.6-.3.3V145l.4.4-9.2 1.8-36 6.9-.4.1v-.3c.3-10 .6-18.3.8-24.2.1-2.9.2-5.1.3-6.8 0-.7.1-1.3.1-1.8 0-.2 0-.4.1-.6v2.4c0 1.6-.1 3.9-.1 6.8-.1 5.9-.3 14.2-.6 24.2l-.4-.3 36-7 9.2-1.8.4-.1v22.9h-.3l-27.4 5.3-7.7 1.5-2.1.4c0-.1-.3-.1-.5-.1zm30-87.4s.1.2.2.5c.2.5.3 1 .4 1.5.4 1.9.3 3.8-.2 5.6-.8 2.7-2.4 5.1-4.5 7-2.6 2.3-6 3.6-9.5 3.6-3.5.1-6.9-1.3-9.4-3.8-2-2.1-3.2-4.7-3.5-7.6-.2-1.9 0-3.8.7-5.6.2-.5.4-.9.7-1.4.2-.3.3-.4.3-.4s-.3.7-.7 1.9c-.5 1.8-.7 3.6-.4 5.4.4 2.7 1.6 5.2 3.5 7.2 2.4 2.3 5.6 3.6 8.9 3.6 3.3 0 6.6-1.2 9.1-3.4 2.1-1.8 3.7-4.1 4.5-6.7.5-1.8.7-3.6.5-5.4-.4-1.3-.7-2-.6-2z"/><path class="st8" d="M223 168.4c-.1-1.1-.1-2.2 0-3.3.1-2 .2-4.8.2-7.9 0-3.1 0-5.9-.1-8-.1-1.1-.1-2.2 0-3.3.3 1.1.5 2.2.5 3.3.2 2 .3 4.9.3 8s-.2 5.9-.4 8c-.1 1.1-.2 2.1-.5 3.2zm-2.8.5c-.1-1.1-.2-2.2-.1-3.3 0-2.3.1-5 .1-7.9v-7.9c-.1-1.1 0-2.2.1-3.3.3 1.1.4 2.2.4 3.3.1 2 .2 4.8.2 7.9 0 3.1-.1 5.9-.3 7.9.1 1.2-.1 2.3-.4 3.3z"/><path class="st6" d="m272.7 302.1 9.9 27.3 14.1 19.3c1 1.3.6 3.2-.7 4.2l-.1.1c-.8.5-1.8.6-2.7.2-5.7-2.4-26.5-11.1-27.1-13.1-.7-2.4-14.1-31.7-14.1-31.7l20.7-6.3z"/><g class="st10"><path class="st5" d="m295.9 352.9-30.5-14.7.5 1.1c.4 1 1.1 1.8 2 2.3 2.5 1.4 9.5 4.9 25.2 11.5.9.5 1.9.4 2.8-.2z"/></g><g class="st10"><path class="st5" d="M267.5 327.3c.9.2 1.4 1.1 1.3 2-.2.9-1.1 1.5-2 1.3s-1.5-1.2-1.4-2.1c.3-.9 1.3-1.4 2.2-1.1"/></g><path class="st2" d="M285.1 343.5c.3-1.1.9-2.1 1.6-3 1.3-1.4 2.9-1.6 2.9-1.8s-.4-.1-1.1 0c-1.8.5-3.1 1.9-3.4 3.7-.2.7-.1 1.1 0 1.1zm3.3 2.9c.2.1.7-1.1 1.9-2.1.8-.5 1.6-1 2.5-1.4 0-.2-1.5-.2-2.9.9s-1.6 2.6-1.5 2.6zm-8.7-6.1c.2.1 1-1.8 2.8-3.4s3.7-2.3 3.6-2.5-2.2.2-4.1 2-2.5 3.9-2.3 3.9zm-3.7-8.1c.1.1 1.4-1.1 3.3-1.9s3.6-1 3.6-1.1-1.8-.3-3.9.6-3.1 2.4-3 2.4zm-3.1-7.9c.1.1 1.3-1.4 3.4-2.1s3.9-.3 3.9-.5-.4-.3-1.2-.4c-2-.3-4.1.4-5.5 1.9-.5.6-.7 1.1-.6 1.1zm2.7-3.5c-.1-.4-.2-.7-.4-1-.5-.9-1.1-1.7-1.9-2.4-.5-.5-1.2-.9-1.9-1-.5 0-1 .3-1.2.7-.2.4-.2.9 0 1.4.8 1.9 2.9 2.8 4.9 2.3 1.9-.5 3.3-2.1 3.5-4.1.1-.5-.1-1-.4-1.3-.4-.3-.9-.4-1.4-.1-.6.4-1.1 1-1.4 1.6-.5.9-.8 1.8-1 2.8-.1.4-.1.7 0 1.1.3-1.3.8-2.5 1.5-3.7.3-.6.7-1 1.3-1.4.2-.1.5-.1.8.1.2.3.3.6.2.9-.3 1.7-1.5 3.1-3.1 3.5-1.7.4-3.4-.4-4.1-1.9-.2-.3-.2-.7-.1-1s.4-.4.6-.4c.6.1 1.2.4 1.6.8 1.1.9 1.9 1.9 2.5 3.1z"/><path class="st6" d="m314.5 294.9-.9 22.2s22.2 8.3 22.5 12.4l-43-.1-.1-34.6 21.5.1z"/><g class="st10"><path class="st5" d="M300.4 315.2c-.9.3-1.4 1.1-1.2 2 .2.9 1.1 1.4 2 1.2.9-.3 1.5-1.2 1.3-2.1-.3-.9-1.3-1.3-2.2-1"/></g><g class="st10"><path class="st5" d="M293.1 329.4v-3.5l41.4 1.4s1.9.8 1.7 2.2l-43.1-.1z"/></g><path class="st2" d="M314.4 316.9c0 .2-1 .3-2.1 1s-1.6 1.6-1.8 1.5.1-1.3 1.4-2.1 2.5-.6 2.5-.4zm4.5 1.9c0 .2-.9.6-1.6 1.5s-.9 1.8-1.1 1.8-.3-1.2.6-2.3 2.1-1.2 2.1-1zm2.5 5.4c-.2 0-.5-1 .1-2.1s1.5-1.6 1.6-1.4-.5.8-1 1.7-.4 1.8-.7 1.8zm-7.4-12.4c-.1.2-1-.1-2.2 0s-2.1.5-2.2.3.8-.9 2.2-1 2.3.6 2.2.7z"/><path d="m314.4 299.3-.2 4-21.1-.3v-3.5z" class="st0"/><path class="st2" d="M314.1 307.4c-.7.2-1.5.2-2.2 0-.8-.1-1.5-.4-2.2-.7-.4-.2-.8-.4-1.2-.7-.2-.1-.5-.3-.6-.5-.3-.3-.3-.8-.1-1.1.2-.3.6-.5.9-.5s.5 0 .8.1c.5.1.9.3 1.3.5.7.3 1.4.8 2 1.3 1 .9 1.3 1.7 1.3 1.8s-.6-.6-1.6-1.4c-.6-.4-1.2-.8-1.9-1.1-.4-.2-.8-.3-1.2-.4-.5-.1-.9-.1-1 .1s0 .1 0 .2c.1.1.3.3.5.4.4.2.7.5 1.1.6.7.3 1.4.6 2.1.8.6.2 1.3.3 2 .6z"/><path class="st2" d="M313.8 307.7c-.4-.6-.6-1.4-.6-2.1 0-.8.1-1.6.3-2.4.1-.4.3-.9.5-1.3.2-.6.8-1 1.4-1.1.4 0 .7.2.9.6.1.3.2.5.2.8.1.5.1 1 0 1.5-.1.8-.4 1.6-.9 2.2-.8 1.1-1.7 1.4-1.7 1.3s.7-.5 1.3-1.6c.4-.6.6-1.3.7-2 .1-.4.1-.8 0-1.2-.1-.5-.2-.8-.4-.8s-.6.3-.8.7c-.2.4-.4.8-.5 1.2-.2.7-.4 1.4-.4 2.1-.1 1.2.2 2 0 2.1z"/><path class="st2" d="M293.1 188.7c-25.4 2.6-59.1 6.1-59.1 6.1l4.6 41.4s49.5-13.1 49.2-12 2.3 88.1 2.3 88.1h29.8l.6-98.5c.2-13.7-10.7-24.9-24.4-25.1-1.1-.2-2-.1-3 0z"/><path class="st2" d="M173.1 205.4v12.8c0 8.7 9.9 18 18.7 18h6.8c5.3 0 13.7-3.9 18-7l2.6-1.9 31.1 96.2s35.5-6.4 35.5-7.5-24.1-78.8-35.2-114.9c-4.5-14.7-20.3-23.3-34.9-18.3l-1.5.6c-16 6.4-41.1 22-41.1 22z"/><path class="st7" d="M285.7 316c-.1-.1-.1-.2-.1-.3-.1-.3-.2-.6-.4-1-.3-.9-.8-2.2-1.4-4-1.2-3.5-2.8-8.5-4.8-14.8-4-12.5-9.3-29.9-15.1-49.1-2.9-9.6-5.6-18.8-8.1-27.1-1.2-4.2-2.4-8.1-3.5-11.8-.6-1.9-1.1-3.6-1.6-5.4-.5-1.7-1-3.3-1.6-4.9-1.1-2.7-2.8-5.1-5-7.1-1.6-1.5-3.4-2.9-5.3-4.1-1.5-1-2.7-1.8-3.6-2.3l-.9-.6c-.1-.1-.2-.1-.3-.2.1 0 .2.1.3.2l1 .5c.9.5 2.1 1.2 3.6 2.2 1.9 1.2 3.7 2.5 5.4 4 2.3 2 4 4.4 5.2 7.2.6 1.6 1.2 3.2 1.7 4.9.5 1.7 1.1 3.5 1.6 5.4l3.6 11.8c2.5 8.3 5.3 17.5 8.2 27.1 5.8 19.2 11 36.5 14.8 49.2l4.6 14.8 1.3 4c.1.4.2.8.3 1s.1.4.1.4zm7.5-104.3c.2.1-1.5 2.7-2.9 6.1s-2 6.4-2.3 6.4.1-3.1 1.6-6.7 3.4-5.9 3.6-5.8zm5.7 4c.1.2-2.5 1.3-5.1 3.4s-4.4 4.3-4.6 4.2 1.3-2.6 4.1-4.8 5.5-3 5.6-2.8zm-48.4 107.8c-.2.1-8.6-25.7-18.7-57.5s-18.2-57.7-18-57.7 8.6 25.7 18.7 57.5 18.2 57.7 18 57.7zm-38.1-150.1 101.6 1 19-53.6-74 .5-17.1 48.2-29.5.5z"/><path class="st5" d="M289.4 152.2c-2.3-.3-3.8-2.4-3.5-4.7.3-2.3 2.4-3.8 4.7-3.5 2.3.3 3.8 2.4 3.5 4.7-.3 2.3-2.4 3.9-4.7 3.5z"/><path class="st2" d="M204.1 28.4c1-3.6 3.6-5.3 7.1-6.5 3.6-1.2 7.5-.6 10.5 1.7 2 1.5 3.5 3.7 5.8 4.5 3.8 1.3 8.3-1.5 12 .2 2.6 1.2 3.8 4.3 2.6 6.9-.9 2-2.9 3.2-5.1 3.1 2.5.9 3.3 4.5 1.8 6.7s-4.5 3.1-7.1 2.6c-2.6-.6-5-2-6.9-3.9-2-1.8-3.8-3.8-5.9-5.4-2.1-1.7-4.7-2.7-7.4-2.7-3.6.2-6.7 2.9-8.3 6.1s-2 6.9-2.2 10.5-.3 7.3-1.3 10.7c-.1.4-.3.9-.7 1-.6.2-1.1-.4-1.4-1-3.3-6.1-5.3-12.8-6.1-19.7-.4-4-.3-7.8 1.9-11.1s7.9-5.8 10.7-3.7"/><path class="st9" d="m197.1 45.1-1.9 40.5c-.3 6.9.6 17.1 11.5 17.1 9.5-.7 12.2-9.6 12.5-16 .1-3 .2-5.6.3-5.9 0 0 10.3-.5 11.6-10.7.6-4.9 1-15.1 1.2-24.4.2-9.9-7.1-18.4-17-19.4l-1-.1c-10.6-.5-17 8.3-17.2 18.9z"/><path class="st11" d="M219.7 80.6c-4.7-.4-9.2-2.2-12.9-5.2 0 0 2.4 7.6 12.6 7.8l.3-2.6z"/><path class="st2" d="M228.7 52.3c-.1.8-.8 1.4-1.6 1.3-.8 0-1.4-.7-1.4-1.4.1-.8.8-1.4 1.6-1.3.8-.1 1.4.5 1.4 1.4 0-.1 0-.1 0 0zm1-1.8c-.2.2-1.2-.8-2.8-.9s-2.8.5-2.9.3.1-.4.7-.7c.7-.4 1.6-.6 2.4-.5.8.1 1.6.4 2.2 1 .3.4.5.8.4.8zm-16.4.7c-.1.8-.8 1.4-1.6 1.3-.8 0-1.4-.7-1.4-1.5.1-.8.8-1.4 1.6-1.3.8 0 1.4.7 1.4 1.5 0-.1 0-.1 0 0zm1-2c-.2.2-1.2-.8-2.8-.9s-2.8.5-2.9.3.1-.4.7-.7c.7-.4 1.6-.6 2.4-.5.8.1 1.6.4 2.2 1 .3.3.5.7.4.8zm4.4 12.2c.9-.2 1.7-.2 2.6-.2.4 0 .8 0 .9-.3.1-.4 0-.8-.1-1.2-.3-1-.6-2.1-.9-3.2-1.2-4.5-2-8.2-1.8-8.2s1.3 3.6 2.5 8.1c.3 1.1.6 2.2.8 3.2.2.5.2 1.1 0 1.6-.1.3-.4.5-.7.5h-.7c-.9-.1-1.8-.1-2.6-.3zm-4.7.6c.2 0 .1 1.7 1.4 3.1s3.1 1.4 3.1 1.6-.4.3-1.2.2c-1-.1-1.9-.5-2.6-1.2-.7-.7-1.1-1.6-1.1-2.6 0-.7.3-1.1.4-1.1zm1.3-18.9c-.2.4-1.7 0-3.6.1s-3.4.4-3.6 0c-.1-.2.2-.6.9-.9 1.7-.9 3.8-.9 5.5 0 .6.2.9.6.8.8zm14.3 2.8c-.3.3-1.4-.2-2.6-.3s-2.4 0-2.6-.4c-.1-.2.1-.5.6-.8.7-.3 1.5-.5 2.2-.4s1.4.4 2 .9c.4.5.5.9.4 1z"/><path class="st9" d="M197.1 52.8c-.2-.1-6.8-2.8-7.3 4.2s6.6 6.1 6.6 5.9.7-10.1.7-10.1z"/><path class="st11" d="M194.5 60s-.1.1-.3.2c-.3.1-.6.1-.9-.1-.9-.7-1.3-1.7-1.2-2.8 0-.6.2-1.2.5-1.7.2-.4.5-.8 1-.9.3 0 .6.1.7.4.1.2 0 .3.1.4s.2-.1.1-.4c0-.2-.1-.3-.2-.4-.2-.2-.4-.2-.7-.2-.6.1-1.1.5-1.4 1-.3.6-.5 1.2-.6 1.9-.1 1.4.6 2.8 1.6 3.1.4.1.8.1 1.1-.1.2-.2.3-.4.2-.4z"/><path class="st2" d="M234.8 43.8c-4.7.7-9.4-.9-12.7-4.3-2.2-2.4-3.8-5.6-6.8-6.9-2.1-.8-4.4-.7-6.4.2-2 .9-3.8 2.3-5.3 3.9 1.4 5.4-.5 11-2.4 16.2-.2.6-.5 1.1-1 1.5-.9.6-2.1-.1-2.7-.9-.9-1.4-1.4-3.1-1.4-4.7-.3-3.8.1-7.6 1.3-11.3 1.2-3.6 3.4-6.9 6.4-9.3 3.9-2.9 8.7-4.1 13.5-3.5 4.7.6 9.2 2.8 12.6 6.1 1.7 1.5 3 3.3 3.8 5.4"/></g><g id="freepik--Plant--inject-5"><path class="st6" d="M39.2 258.9c3.6-1.7 7.7-2.2 11.7-1.4 2.1.4 4.3 1 5.8 2.6s1.7 4.4.1 5.8c-1.1.7-2.4 1-3.7.9-3.1 0-6.5-.6-9 1.3-1.4 1.1-2.4 2.8-4 3.4-1.7.4-3.5-.4-4.4-2-.8-1.5-1-3.3-.5-5 .4-2.4 1.9-4.5 4-5.6zm-8.1-15.8c2.2 3.1 6.4 2.1 8.4.2s2.8-4.6 3.5-7.3c1.7-6 3.5-12.3 2.2-18.4-.3-1.9-1.1-3.6-2.4-5-1.3-1.4-3.2-2.1-5.1-1.7-2.1.6-3.5 2.7-4.4 4.6-2.8 5.9-4.3 12.3-4.3 18.8 0 3.1.3 6.3 2.1 8.8m-6 4.5c2.3-3 2.9-6.9 1.8-10.4-1.2-3.5-3.3-6.6-6.2-9-3.2-2.9-6.9-5.1-11-6.5-1.6-.6-3.3-.9-5-.8s-3.3 1-4.2 2.5c-1.2 2.2 0 4.9 1.2 7.1 2.1 3.9 4.6 7.6 7.3 11.1 2.2 2.8 4.7 5.6 8 6.8s6.8 1.1 8.5-1.2"/><path class="st2" d="M30.9 290.1c.1-.5.2-.9.2-1.4.1-1 .2-2.3.4-3.9.2-1.9.5-3.8.9-5.7.5-2.3 1.2-4.5 2.1-6.7.9-2.2 2-4.2 3.4-6 1.1-1.5 2.6-2.8 4.3-3.6 1.1-.6 2.4-1 3.6-1.1.5 0 .9-.1 1.4-.2h-1.4c-1.3.1-2.6.4-3.8 1-1.8.8-3.3 2.1-4.5 3.6-1.5 1.9-2.6 3.9-3.5 6.2-.9 2.2-1.5 4.5-2 6.8-.4 1.9-.6 3.8-.8 5.7-.1 1.6-.2 3-.2 3.9-.1.5-.1.9-.1 1.4z"/><path class="st2" d="M31.2 287.1v-2.5c0-1.6 0-4 .1-6.9.1-5.8.6-12.1 1.6-20.9.9-8.3 2.2-18 3.5-24.3.3-1.4.5-2.7.8-3.8s.5-2.1.7-2.9.3-1.4.4-1.8c.1-.2.1-.4.1-.6-.1.2-.2.4-.2.6-.2.5-.3 1.1-.5 1.8s-.5 1.8-.8 2.9-.6 2.4-.9 3.8c-1.6 7.4-2.8 14.9-3.6 22.5-.9 8.9-1.4 16.9-1.4 22.8 0 2.9 0 5.3.1 6.9 0 .8.1 1.4.1 1.9-.1.1-.1.3 0 .5z"/><path class="st2" d="M31.2 271.6c.1-.7.1-1.3 0-2-.1-1.8-.3-3.6-.6-5.3-.4-2.6-1-5.2-1.7-7.7-.8-3.1-1.9-6.2-3.2-9.2-2.2-5.5-5.5-10.5-9.5-14.8-.7-.7-1.5-1.4-2.2-2.1-.3-.3-.7-.6-1-.8l-.9-.6c-.5-.4-1.1-.8-1.6-1.1 1.9 1.5 3.7 3.1 5.4 4.8 3.9 4.4 7 9.3 9.3 14.8 1.3 2.9 2.4 6 3.3 9.1.8 2.9 1.4 5.5 1.8 7.7s.6 4 .8 5.3c-.1.6 0 1.3.1 1.9zm-15 27.4 1.5 21.4h27.5l1.5-21.4zm-2.7-8.4H50v8.4H13.5z"/><path class="st7" d="M13.5 319.5v2.4h35.9v-2.4zm3.4 6.5-1.7-4.1h32.9l-2 4.1z"/><path class="st1" d="M46.2 306c0 .1-.1.1-.1.2l-.4.5-1.6 2-.1.1-.1-.1-3.9-5.4h.2l-3.9 5.5-.1.2-.1-.2c-1.4-1.7-3-3.5-4.6-5.5h.3c-.1.1-.2.2-.2.3l-4.1 5.1-.1.2-.1-.2-3.9-5.5h.2l-4.8 5.5-.1.1-.1-.1c-.6-1-1.1-1.9-1.5-2.5l-.4-.7-.1-.2.2.2.4.6 1.6 2.5h-.2l4.7-5.5.1-.1.1.1 3.9 5.4h-.3l4.1-5.1.2-.3.1-.2.1.2 4.6 5.5h-.3l3.9-5.4.1-.2.1.2 3.8 5.5h-.2l1.7-2 .4-.5c.4-.2.5-.2.5-.2z"/><path class="st7" d="M47.1 298.8c0 .1-6.9.2-15.3.2s-15.3-.1-15.3-.2 6.9-.2 15.3-.2 15.3.2 15.3.2z"/><path class="st2" d="M48.5 322.1c0 .1-7.5.2-16.7.2s-16.7-.1-16.7-.2 7.5-.2 16.7-.2 16.7.1 16.7.2z"/></g><g id="freepik--Devices--inject-5"><path class="st2" d="m372.6 76.4-19 79.7h5.3l18.8-79.7z"/><path class="st2" d="M365.3 128.8c-.3 1.5 8.6 44.9 8.6 44.9h-4.3l-6.8-34.4 2.5-10.5z"/><path class="st6" d="M339.5 231.2h89.2v94.6h-89.2z"/><path class="st2" d="M428.7 245h4.4v4.4h-4.4zm0 13.9h4.4v4.4h-4.4zm0 13.9h4.4v4.4h-4.4zm0 13.9h4.4v4.4h-4.4z"/><path class="st2" d="M433.3 274.1c.4-.1.9-.2 1.3-.3 1.2-.2 2.5-.4 3.8-.4 1.9 0 3.8.5 5.4 1.4 2.1 1.3 3.2 3.6 3 6-.1 1.2-.5 2.4-1.1 3.4s-1.4 1.8-2.3 2.4c-1.5 1.1-3.3 1.8-5.2 2.1-1.2.2-2.5.2-3.8.1-.5 0-.9-.1-1.4-.2h1.4c1.2 0 2.5-.1 3.7-.3 1.8-.3 3.5-1 5-2.1 1.8-1.3 3-3.3 3.2-5.5s-.8-4.4-2.8-5.6c-1.6-1-3.3-1.5-5.2-1.5-1.2 0-2.5 0-3.7.2-.4.3-.9.3-1.3.3z"/><path class="st2" d="M432.2 260.3c.1-.1.3-.2.4-.2.4-.2.9-.4 1.3-.5 1.7-.5 3.4-.6 5.1-.3.6.1 1.1.3 1.6.6.6.4 1 .9 1.1 1.6.5 2.2-.7 4.5-2.9 5.4-.8.3-1.7.3-2.4-.1-.8-.4-1.3-1.2-1.4-2.1 0-.9.6-1.8 1.4-2.2.8-.4 1.7-.5 2.5-.3s1.6.5 2.2 1.1c1.2 1 2 2.4 2.2 4 .1 1.4-.3 2.9-1.1 4-.7 1-1.7 1.8-2.7 2.3-1.6.8-3.3 1.2-5 1.3-.6 0-1.1.1-1.4.1h-.5s.7-.1 1.9-.2c1.7-.2 3.3-.7 4.8-1.4 1-.6 1.9-1.3 2.6-2.2.8-1 1.1-2.4 1-3.6-.2-1.4-.9-2.7-2.1-3.6-.6-.5-1.3-.8-2-1s-1.5-.1-2.2.2c-.7.3-1.1 1-1.1 1.7.1.7.5 1.3 1.1 1.6.6.3 1.3.4 2 .1.6-.2 1.2-.7 1.6-1.2.9-1 1.3-2.3 1-3.6-.4-1.1-1.3-1.9-2.5-2-1.7-.4-3.4-.3-5 .1-.9.1-1.5.4-1.5.4z"/><path class="st2" d="M432.2 246.7c.3-.1.7-.2 1-.2.9-.1 1.8 0 2.7.3 1.3.4 2.4 1.2 3.3 2.2 1.1 1.3 1.7 2.9 1.7 4.6.1 1.7-.4 3.3-1.4 4.7-.8 1.1-1.9 1.9-3.2 2.4-.8.4-1.7.5-2.6.5-.3 0-.7 0-1-.1 1.2 0 2.4-.3 3.5-.8 1.2-.5 2.2-1.4 3-2.4 1.8-2.6 1.7-6.2-.3-8.7-.8-1-1.9-1.7-3.1-2.2-1.2-.2-2.4-.4-3.6-.3z"/><path class="st2" d="M366 180.9c.3.6.6 1.2.8 1.8.5 1.8.9 3.6 1.2 5.4.4 2.4.7 5.3 1 8.6s.6 7.2 1.1 11.5c.1 1 .3 2.1.5 3.2s.5 2.2 1 3.2c.6 1 1.3 1.9 2.2 2.7 2.7 2.6 6.3 4.3 10.1 4.7 2.7.3 5.4-.2 7.9-1.4 2.6-1.3 4.4-3.6 5.1-6.4.3-1.4.2-2.9-.3-4.2-.6-1.4-1.5-2.5-2.8-3.4-1.3-.8-2.7-1.3-4.2-1.4s-3 .4-4.3 1.2c-.6.4-1.1 1-1.5 1.7-.3.7-.4 1.4-.3 2.2.4 1.5 1.4 2.8 2.8 3.5s3 1.1 4.6 1.3c1.6.2 3.2.3 4.7.3 3.1 0 6.2-.2 9.3-.5 6.1-.7 12-1.7 17.6-1.7s11.1.7 15.7 3c2.2 1.1 4.2 2.5 5.8 4.4 1.5 1.7 2.5 3.8 3 6 .8 3.8.2 7.8-1.8 11.2-1.5 2.5-3.5 4.7-5.9 6.3-1.5 1-3.2 1.9-4.9 2.5-.6.2-1.2.4-1.8.5l.5-.2c.3-.1.8-.3 1.3-.5 1.7-.7 3.3-1.5 4.8-2.6 2.4-1.6 4.4-3.8 5.8-6.3 1.8-3.4 2.4-7.3 1.6-11-.5-2.2-1.5-4.2-3-5.8-1.6-1.8-3.6-3.2-5.7-4.2-4.5-2.2-9.9-3-15.5-2.9s-11.5 1-17.6 1.7c-3.1.4-6.2.6-9.4.5-1.6 0-3.2-.1-4.8-.3-1.6-.1-3.3-.6-4.7-1.3-1.5-.8-2.6-2.2-3-3.9-.2-.8 0-1.7.3-2.5.4-.8.9-1.4 1.6-1.9 1.3-1 3-1.4 4.6-1.4 1.6.1 3.2.6 4.5 1.5s2.3 2.1 3 3.6c.6 1.5.7 3 .3 4.5-.7 2.9-2.7 5.4-5.4 6.7-2.5 1.2-5.4 1.7-8.1 1.4-2.6-.3-5.1-1.1-7.4-2.5-1.1-.7-2.1-1.4-3-2.3-.9-.8-1.7-1.8-2.3-2.8-.5-1.1-.8-2.2-1-3.3-.2-1.1-.4-2.2-.5-3.2-.5-4.2-.8-8.1-1.1-11.5s-.6-6.3-.9-8.6c-.2-1.8-.6-3.6-1.1-5.4-.1-.5-.3-.9-.5-1.4.2.1.1-.1.1-.3z"/><path class="st2" d="M423.7 321.8v-6.3c0-4.1 0-10.1-.1-17.7 0-15.2-.1-36.9-.1-62.9l.2.2h-80.6l.3-.3v86.9l-.2-.2 58.4.1 16.4.1h5.8-1.5l-4.4.1-16.3.1-58.6.1h-.2v-87.4h81.1v.2c0 26-.1 47.8-.1 63 0 7.6 0 13.6-.1 17.7v6.3z"/><path class="st2" d="M400.9 245.6c0 .2-.2.4-.4.4s-.4-.1-.5-.4.1-.4.4-.5h.1c.2.1.4.2.4.5zm2.3 0c0 .2-.2.4-.4.4s-.4-.1-.5-.4.1-.4.4-.5h.1c.2.1.4.2.4.5zm2.3 0c0 .2-.2.4-.4.4s-.4-.1-.5-.4.1-.4.4-.5h.1c.2.1.4.2.4.5zm2.3 0c0 .2-.2.4-.4.4s-.4-.2-.4-.4.2-.4.4-.4.4.1.4.4zm2.3 0c0 .2-.2.4-.4.4s-.4-.3-.4-.5.2-.3.4-.4c.2.1.4.2.4.5zm2.2 0c0 .2-.2.4-.4.4s-.4-.3-.4-.5.2-.3.4-.4c.2.1.4.2.4.5zm2.3 0c0 .2-.2.4-.4.4s-.4-.3-.4-.5.2-.3.4-.4c.2.1.4.2.4.5z"/><circle class="st2" cx="413.1" cy="247.1" r=".4"/><circle class="st2" cx="410.8" cy="247.1" r=".4"/><path class="st2" d="M408.9 247.1c0 .2-.2.4-.4.4s-.4-.2-.4-.4.2-.4.4-.4.4.2.4.4z"/><circle class="st2" cx="406.2" cy="247.1" r=".4"/><circle class="st2" cx="403.8" cy="247.1" r=".4"/><path class="st2" d="M401.9 247.1c0 .2-.2.4-.4.4s-.4-.2-.4-.4.2-.4.4-.4.4.2.4.4zm-1 1.7c0 .2-.2.4-.4.4s-.4-.2-.4-.4.2-.4.4-.4.4.2.4.4zm2.3 0c0 .2-.2.4-.4.4s-.4-.2-.4-.4.2-.4.4-.4.4.2.4.4zm2.3 0c0 .2-.2.4-.4.4s-.4-.2-.4-.4.2-.4.4-.4.4.2.4.4zm2.3 0c0 .2-.3.4-.5.4s-.3-.2-.4-.4c0-.2.1-.4.4-.5s.4.1.5.4v.1zm2.3 0c0 .2-.2.4-.4.4s-.4-.2-.4-.4.2-.4.4-.4.4.2.4.4zm2.2 0c0 .2-.2.4-.4.4s-.4-.2-.4-.4.2-.4.4-.4c.3 0 .4.2.4.4zm2.3 0c0 .2-.2.4-.4.4s-.4-.2-.4-.4.2-.4.4-.4.4.2.4.4zm-1 1.6c0 .2-.2.4-.4.4s-.4-.2-.4-.4.2-.4.4-.4.4.1.4.4zm-2.4 0c0 .2-.2.4-.4.4s-.4-.2-.4-.4.2-.4.4-.4.4.1.4.4zm-2.3 0c0 .2-.2.4-.4.4s-.4-.2-.4-.4.2-.4.4-.4.4.1.4.4zm-2.3 0c0 .2-.2.4-.4.4s-.4-.2-.4-.4.2-.4.4-.4.4.1.4.4zm-2.4 0c0 .2-.1.4-.4.5s-.4-.1-.5-.4v-.1c0-.2.3-.4.5-.4.3 0 .4.2.4.4zm-2.3 0c0 .2-.2.4-.4.4s-.4-.2-.4-.4.2-.4.4-.4.4.1.4.4zm-1 1.7c0 .2-.2.4-.4.4s-.4-.2-.4-.4.2-.4.4-.4.4.2.4.4zm2.3 0c0 .2-.2.4-.4.4s-.4-.2-.4-.4.2-.4.4-.4.4.2.4.4zm2.3 0c0 .2-.2.4-.4.4s-.4-.2-.4-.4.2-.4.4-.4.4.2.4.4zm2.3 0c0 .2-.1.4-.4.5s-.4-.1-.5-.4v-.1c0-.2.3-.4.5-.4.2.1.4.2.4.4zm2.3 0c0 .2-.2.4-.4.4s-.4-.2-.4-.4.2-.4.4-.4.4.2.4.4zm2.2 0c0 .2-.2.4-.4.4s-.4-.2-.4-.4.2-.4.4-.4.4.2.4.4zm2.3 0c0 .2-.2.4-.4.4s-.4-.2-.4-.4.2-.4.4-.4.4.2.4.4z"/><circle class="st2" cx="413.1" cy="253.6" r=".4"/><circle class="st2" cx="410.8" cy="253.6" r=".4"/><path class="st2" d="M408.9 253.6c0 .2-.2.4-.4.4s-.4-.1-.5-.4.1-.4.4-.5h.1c.2.1.4.3.4.5z"/><circle class="st2" cx="406.2" cy="253.6" r=".4"/><circle class="st2" cx="403.8" cy="253.6" r=".4"/><path class="st2" d="M401.9 253.6c0 .2-.2.4-.4.4s-.4-.3-.4-.5.2-.3.4-.4c.2.1.4.3.4.5z"/><path class="st1" d="M369.4 152.1c.6 0 1.1.1 1.6.3 1.5.5 2.9 1.4 3.9 2.6 1.6 1.9 2.8 4.2 3.5 6.6 1 3.2 1.7 6.4 2.2 9.7 1.1 8.5 1.3 17.2.6 25.8-.1 2.5-.9 5-2.2 7.1-.7 1.1-1.7 2-2.8 2.7-1.2.7-2.5 1.1-3.9.9-1.4-.1-2.7-.7-3.7-1.7-.5-.5-.9-1.1-1.1-1.8-.2-.7-.2-1.4 0-2.1.4-1.4 1.4-2.6 2.8-3.1.7-.3 1.5-.3 2.2 0s1.3.7 1.8 1.3c.9 1.2 1.2 2.7 1 4.1s-.7 2.7-1.5 3.9c-4.1 7.2-13.2 9.9-20.5 5.9-2.1-1.2-3.9-2.7-5.4-4.6-1.4-1.8-2.5-3.7-3.3-5.8-1.3-3.8-2.1-7.8-2.2-11.8-.2-3.7 0-7-.4-9.9-.2-1.3-.5-2.6-.9-3.9-.4-1.1-1-2-1.7-2.9-1-1.2-2.2-2.2-3.7-2.8-.5-.2-1.1-.3-1.6-.4.6 0 1.1.1 1.6.3 1.5.5 2.8 1.5 3.8 2.7.7.9 1.3 1.9 1.8 3 .5 1.3.8 2.6 1 4 .4 2.9.2 6.2.4 9.9.1 4 .9 7.9 2.2 11.7.8 2.1 1.9 4 3.2 5.7 1.4 1.8 3.2 3.4 5.3 4.5 7.1 3.8 15.9 1.2 19.8-5.8.7-1.2 1.2-2.4 1.4-3.8.2-1.3-.1-2.7-.9-3.8-.4-.5-.9-.9-1.5-1.2-.6-.2-1.3-.2-1.9 0-1.2.5-2.1 1.5-2.5 2.8-.3 1.3.1 2.6 1 3.5s2.1 1.5 3.4 1.6 2.5-.2 3.6-.9 2-1.5 2.7-2.6c1.3-2.1 2-4.5 2.2-6.9.7-8.5.5-17.1-.5-25.6-.5-3.3-1.2-6.5-2.1-9.6-.6-2.4-1.8-4.6-3.4-6.5-1-1.2-2.3-2.1-3.8-2.6-.4-.2-.9-.3-1.5-.5z"/><path class="st1" d="M328.3 166.6h33.2v6.3h-33.2z"/><path class="st2" d="M78.4 232h43.3v93.3H78.4z"/><path class="st7" d="M118 315.5v-6.1c0-3.9 0-9.5-.1-16.7 0-14.2-.1-34.2-.1-57.5l.2.2H81.8l.3-.3c0 31.2 0 59.5-.1 80.2l-.2-.2 26.5.1h9.1c.5.2.7.2.6.3l-.5-.1h-9.1l-26.6.1h-.2v-.2c0-20.8 0-49.1-.1-80.2v-.3h36.8v.2c0 23.4-.1 43.4-.1 57.7 0 7.1 0 12.7-.1 16.6v5.5c0 .2-.1.7-.1.7z"/><path class="st7" d="M115.8 242.1v-1c0-.6 0-1.6-.1-2.7l.1.1c-5.6.1-17.6.1-31.5.1l.3-.3v3.7l-.2-.3c8.8 0 16.7.1 22.3.1l6.7.1h2.5-2.4l-6.6.1c-5.7.1-13.6.1-22.5.1h-.3v-3.9l.3-.3c13.9 0 25.9.1 31.5.1v.1c0 1.2 0 2.1-.1 2.8.1.4 0 .8 0 1.2zm-28.4 2.6c0 .1-.7.3-1.4.3s-1.5-.1-1.5-.3.7-.3 1.5-.3 1.4.1 1.4.3zm27.6 4.8c0 .1-6.7.3-15 .3s-15-.1-15-.3 6.7-.3 15-.3 15 .2 15 .3zm.1 5.8c0 .1-6.6.3-14.7.3s-14.7-.1-14.7-.3 6.6-.3 14.7-.3 14.7.2 14.7.3z"/><circle class="st6" cx="100" cy="268.9" r="2.4"/><path class="st7" d="M93.2 268.8c-1 .3-2.1.3-3.2.3-1.1.1-2.1 0-3.1-.3 1-.3 2.1-.3 3.2-.3s2.1.1 3.1.3zm19.4-.6c-1 .3-2 .3-3 .3-1 .1-2 0-3-.3 1-.3 2-.3 3-.3 1-.1 2 0 3 .3z"/><path class="st2" d="M79.9 278.8c-.5-.1-1.1-.2-1.6-.3-1.5-.4-3-1.1-4.3-2-2.1-1.4-3.8-3.3-5.2-5.4-1.7-2.8-3-5.9-3.8-9.2-1-3.9-1.4-7.9-1.2-11.9.3-4.7 1.8-9.1 4.6-12.9 1.5-2 3.3-3.8 5.4-5.2 1.1-.7 2.3-1.3 3.5-1.7 1.3-.4 2.5-.7 3.9-.9 2.6-.4 5.3-.3 8-.5 2.7-.1 5.4-.7 7.9-1.8s4.3-3.4 4.9-6c1-4.5-1.8-9.1-6.3-10.1-.7-.2-1.4-.2-2.1-.2-1.2.1-2.4.5-3.3 1.2s-1.4 1.8-1.4 3c.3 2.3 2.1 4.1 4.5 4.3 2.2 0 4.3-.9 5.7-2.6 1.3-1.6 2.3-3.4 2.8-5.4.5-1.8.9-3.7 1.2-5.6.7-5.7.9-11.5.5-17.3-.1-2-.2-3.6-.2-4.7 0-.5 0-.9-.1-1.2v-.4c0 .1.1.3.1.4 0 .3.1.7.1 1.2.1 1.1.2 2.7.3 4.7.4 5.8.3 11.6-.4 17.4-.3 1.9-.6 3.8-1.1 5.7-.5 2.1-1.5 4-2.8 5.6-1.5 1.8-3.7 2.8-6.1 2.7-2.6-.2-4.6-2.2-4.9-4.7-.1-1.3.5-2.6 1.6-3.4 1-.8 2.3-1.3 3.6-1.4 5-.1 9 3.9 9.1 8.9 0 2.1-.7 4.1-2 5.8-.9 1.1-2.1 2-3.3 2.6-2.5 1.2-5.3 1.8-8.1 1.9-2.7.2-5.4.1-8 .5-1.3.2-2.5.5-3.8.9-1.2.4-2.3 1-3.4 1.7-2.1 1.3-3.9 3-5.3 5-2.7 3.7-4.2 8.1-4.5 12.7-.3 4 .1 8 1.1 11.8.7 3.2 2 6.3 3.7 9.1 1.3 2.1 3 3.9 5 5.4 1.3.9 2.7 1.6 4.2 2.1.5.1.9.2 1.2.3 0-.2.2-.1.3-.1zM65.2 87.4h102.6v70.5H65.2z"/><path class="st2" d="M108.5 148.2h14v26.6h-14z"/></g><g id="freepik--Desk--inject-5"><path class="st2" d="M75.4 173.8v9.5h52.9v142.5h4.9V183.3l221.1 1.1v141.4h4.7V184.1l34.2.3v-11.5z"/><path class="st2" d="m109.2 181.5 20.9 15-1.8 1.7-21-15.8zm269.5 1.4-24.2 17.2 1.8 1.7 24.4-18zm-226.4-12.7H207v4h-54.7z"/></g></svg>